{
.appVersion = "3133";
.formatVersion = 3;
DisplayStrings = (
"HḪȞḨĤḦḢḤḨ"
);
classes = (
{
automatic = 1;
code = " onesuperior twosuperior threesuperior ";
name = sups2;
},
{
automatic = 1;
code = " one two three ";
name = sups1;
},
{
automatic = 1;
code = " zero one two three four five six seven eight nine ";
name = ordn1;
},
{
automatic = 1;

glyphs = (
{
glyphname = A;
kernLeft = KO_A;
kernRight = KO_A;
lastChange = "2022-05-19 01:21:39 +0000";
layers = (
{
anchors = (
{
name = bottom;
pos = (323,0);
},
{
name = ogonek;
pos = (671,0);
},
{
name = top;
pos = (331,698);
}
);
guides = (
{
pos = (605,866);
}
);
layerId = "184835E3-72D9-430C-A639-2454AC4A0BE8";
shapes = (
{
closed = 1;
nodes = (
(226,0,l),
(241,16,o),
(249,40,o),
(249,64,c),
(209,64,o),
(185,79,o),
(185,115,cs),
(185,127,o),
(189,142,o),
(194,159,cs),
(200,180,l),
(424,180,l),
(430,159,ls),
(435,140,o),
(437,124,o),
(437,112,cs),
(437,78,o),
(415,64,o),
(380,64,c),
(380,40,o),
(388,16,o),
(403,0,c),
(674,0,l),
(689,16,o),
(697,40,o),
(697,64,c),
(662,64,o),
(626,88,o),
(612,132,cs),
(426,698,l),
(152,698,l),
(137,680,o),
(128,654,o),
(128,626,c),
(168,626,o),
(201,622,o),
(229,613,c),
(65,129,ls),
(50,85,o),
(16,64,o),
(-20,64,c),
(-20,40,o),
(-12,16,o),
(3,0,c)
);
},
{
closed = 1;
nodes = (
(308,557,l),
(318,542,o),
(325,526,o),
(331,506,cs),
(402,258,l),
(222,258,l)
);
}
);
width = 677;
}
);
unicode = 65;
userData = {
KernOnName = A;
};
},
{
glyphname = Aogonek;
kernLeft = KO_A;
kernRight = KO_A;
lastChange = "2022-05-19 01:21:39 +0000";
layers = (
{
layerId = "184835E3-72D9-430C-A639-2454AC4A0BE8";
shapes = (
{
closed = 1;
nodes = (
(606,-240,o),
(647,-225,o),
(664,-208,cs),
(678,-194,o),
(682,-175,o),
(682,-156,cs),
(682,-144,o),
(680,-127,o),
(674,-118,c),
(662,-128,o),
(634,-136,o),
(606,-136,cs),
(575,-136,o),
(543,-126,o),
(543,-97,cs),
(543,-53,o),
(573,-14,o),
(634,1,c),
(622,37,l),
(573,37,o),
(429,-7,o),
(429,-127,cs),
(429,-209,o),
(497,-240,o),
(559,-240,cs)
);
},
{
ref = A;
}
);
width = 678;
}
);
unicode = 260;
},
{
glyphname = Aringacute;
lastChange = "2022-05-19 01:21:39 +0000";
layers = (
{
anchors = (
{
name = _top;
pos = (311,963);
},
{
name = top;
pos = (311,1174);
}
);
layerId = "184835E3-72D9-430C-A639-2454AC4A0BE8";
shapes = (
{
closed = 1;
nodes = (
(392,765,o),
(446,818,o),
(446,898,cs,{
name = hr00;
}),
(446,977,o),
(392,1031,o),
(309,1031,cs),
(226,1031,o),
(173,977,o),
(173,898,cs),
(173,818,o),
(226,765,o),
(309,765,cs)
);
},
{
closed = 1;
nodes = (
(277,844,o),
(256,866,o),
(256,897,cs),
(256,929,o),
(277,951,o),
(309,951,cs),
(342,951,o),
(363,929,o),
(363,897,cs),
(363,866,o),
(342,844,o),
(309,844,cs)
);
},
{
closed = 1;
nodes = (
(385,963,o),
(494,1028,o),
(494,1080,cs),
(494,1104,o),
(468,1138,o),
(429,1138,c,{
name = hr00;
}),
(397,1078,o),
(342,1028,o),
(295,997,c),
(298,973,o),
(315,963,o),
(334,963,cs)
);
},
{
ref = A;
}
);
width = 657;
}
);
unicode = 506;
},
{
glyphname = AE;
kernLeft = KO_AE;
kernRight = KO_E;
lastChange = "2022-05-19 01:21:39 +0000";
layers = (
{
anchors = (
{
name = bottom;
pos = (450,0);
},
{
name = top;
pos = (450,698);
}
);
background = {
shapes = (
{
closed = 1;
nodes = (
(486,323,l),
(617,323,ls),
(654,323,o),
(682,300,o),
(682,247,c),
(711,247,o),
(741,255,o),
(762,268,c),
(762,454,l),
(740,467,o),
(711,475,o),
(681,475,c),
(681,421,o),
(653,402,o),
(616,402,cs),
(511,402,l,{
name = hr02;
}),
(544,384,l),
(544,645,l),
(444,613,l),
(657,613,ls),
(710,613,o),
(748,566,o),
(763,522,c),
(787,527,o),
(837,545,o),
(854,561,c),
(854,594,o),
(821,682,o),
(804,715,c),
(779,715,o),
(747,709,o),
(723,698,c),
(335,698,l),
(322,681,o),
(312,658,o),
(312,635,c,{
name = hr03;
}),
(356,635,o),
(377,621,o),
(377,584,cs),
(377,115,ls),
(377,77,o),
(355,63,o),
(311,63,c),
(311,40,o),
(321,17,o),
(334,0,c,{
name = hr04;
}),
(797,0,l),
(821,-11,o),
(831,-14,o),
(839,-16,c),
(858,20,o),
(884,172,o),
(884,211,c),
(777,211,l),
(767,144,o),
(723,88,o),
(665,88,cs),
(493,88,l),
(544,59,l,{
name = hr05;
}),
(544,351,l,{
name = hr01;
})
);
}
);
};
layerId = "184835E3-72D9-430C-A639-2454AC4A0BE8";
shapes = (
{
closed = 1;
nodes = (
(858,20,o),
(884,172,o),
(884,211,c),
(777,211,l),
(767,144,o),
(723,88,o),
(665,88,cs),
(544,88,l),
(544,323,l),
(617,323,ls),
(654,323,o),
(682,300,o),
(682,247,c),
(711,247,o),
(741,255,o),
(762,268,c),
(762,454,l),
(740,467,o),
(711,475,o),
(681,475,c),
(681,421,o),
(653,402,o),
(616,402,cs),
(544,402,l),
(544,613,l),
(657,613,ls),
(710,613,o),
(748,566,o),
(763,522,c),
(787,527,o),
(837,545,o),
(854,561,c),
(854,594,o),
(821,682,o),
(804,715,c),
(779,715,o),
(747,709,o),
(723,698,c),
(123,698,l),
(109,680,o),
(101,653,o),
(101,626,c),
(114,628,o),
(128,629,o),
(140,629,cs),
(203,629,o),
(246,606,o),
(252,570,c),
(32,128,ls),
(13,89,o),
(-20,64,o),
(-55,64,c,{
name = hr02;
}),
(-55,41,o),
(-47,17,o),
(-33,0,c),
(199,0,l),
(214,17,o),
(222,41,o),
(222,64,c),
(184,64,o),
(160,78,o),
(160,109,cs),
(160,122,o),
(165,139,o),
(174,159,c),
(176,164,l),
(379,164,l),
(379,115,ls),
(379,77,o),
(362,63,o),
(318,63,c),
(318,40,o),
(327,17,o),
(341,0,c,{
name = hr04;
}),
(797,0,l),
(821,-11,o),
(831,-14,o),
(839,-16,c)
);
},
{
closed = 1;
nodes = (
(379,616,l),
(379,242,l),
(213,242,l)
);
}
);
width = 900;
}
);
metricRight = E;
unicode = 198;
userData = {
com.typemytype.robofont.guides = (
{
angle = 0;
isGlobal = 0;
magnetic = 5;
x = 0;
y = 1363;
}
);
};
},
{
glyphname = B;
kernLeft = KO_D;
kernRight = KO_B;
lastChange = "2022-05-19 01:21:39 +0000";
layers = (
{
anchors = (
{
name = bottom;
pos = (305,0);
},
{
name = top;
pos = (292,698);
}
);
layerId = "184835E3-72D9-430C-A639-2454AC4A0BE8";
shapes = (
{
closed = 1;
nodes = (
(560,-8,o),
(617,93,o),
(617,196,cs),
(617,303,o),
(567,346,o),
(452,370,c),
(544,408,o),
(579,460,o),
(579,535,cs),
(579,611,o),
(524,703,o),
(292,703,cs),
(231,703,o),
(189,698,o),
(48,698,c),
(34,681,o),
(26,658,o),
(26,635,c),
(71,635,o),
(88,621,o),
(88,584,cs),
(88,114,ls),
(88,77,o),
(71,63,o),
(26,63,c),
(26,40,o),
(34,17,o),
(48,0,c),
(170,0,o),
(248,-8,o),
(311,-8,cs)
);
},
{
closed = 1;
nodes = (
(278,65,o),
(262,67,o),
(253,68,c),
(253,321,l,{
name = hr00;
}),
(261,321,o),
(275,322,o),
(286,322,cs),
(393,322,o),
(435,276,o),
(435,186,cs),
(435,107,o),
(389,65,o),
(295,65,cs)
);
},
{
closed = 1;
nodes = (
(274,394,o),
(262,395,o),
(253,396,c),
(253,626,l),
(263,629,o),
(280,630,o),
(294,630,cs),
(379,630,o),
(417,584,o),
(417,512,cs),
(417,440,o),
(380,394,o),
(283,394,cs)
);
}
);
width = 633;
}
);
metricLeft = H;
unicode = 66;
userData = {
KernOnName = B;
com.typemytype.robofont.guides = (
{
angle = 0;
isGlobal = 0;
magnetic = 5;
x = 0;
y = 1410;
},
{
angle = 0;
isGlobal = 0;
magnetic = 5;
x = 0;
y = 140;
}
);
};
},
{
glyphname = C;
kernLeft = KO_C;
kernRight = KO_C;
lastChange = "2022-05-19 01:21:39 +0000";
layers = (
{
anchors = (
{
name = bottom;
pos = (335,0);
},
{
name = top;
pos = (339,698);
}
);
background = {
shapes = (
{
closed = 1;
nodes = (
(555,543,o),
(552,645,o),
(526,709,c),
(505,708,o),
(457,696,o),
(437,687,c),
(409,700,o),
(362,709,o),
(333,709,cs),
(148,709,o),
(25,587,o),
(25,352,cs),
(25,106,o),
(173,-14,o),
(344,-14,cs),
(479,-14,o),
(554,55,o),
(554,102,cs),
(554,121,o),
(543,150,o),
(526,162,c),
(509,136,o),
(464,108,o),
(403,108,cs),
(296,108,o),
(202,180,o),
(202,387,cs),
(202,554,o),
(262,622,o),
(335,622,cs),
(394,622,o),
(436,570,o),
(447,483,c),
(555,483,l,{
name = hr00;
})
);
}
);
};
layerId = "184835E3-72D9-430C-A639-2454AC4A0BE8";
shapes = (
{
closed = 1;
nodes = (
(479,-14,o),
(554,55,o),
(554,102,cs),
(554,121,o),
(543,150,o),
(526,162,c),
(509,136,o),
(464,108,o),
(403,108,cs),
(296,108,o),
(202,180,o),
(202,387,cs),
(202,554,o),
(258,622,o),
(335,622,cs),
(394,622,o),
(431,562,o),
(442,475,c),
(555,475,l,{
name = hr00;
}),
(555,535,o),
(552,645,o),
(526,709,c),
(505,708,o),
(457,696,o),
(437,687,c),
(409,700,o),
(367,709,o),
(338,709,cs),
(153,709,o),
(25,587,o),
(25,352,cs),
(25,106,o),
(173,-14,o),
(344,-14,cs)
);
}
);
width = 574;
}
);
metricLeft = O;
unicode = 67;
userData = {
KernOnName = C;
};
},
{
glyphname = D;
kernLeft = KO_D;
kernRight = KO_D;
lastChange = "2022-05-19 01:21:39 +0000";
layers = (
{
anchors = (
{
name = bottom;
pos = (284,0);
},
{
name = center;
pos = (174,349);
},
{
name = top;
pos = (304,698);
}
);
layerId = "184835E3-72D9-430C-A639-2454AC4A0BE8";
shapes = (
{
closed = 1;
nodes = (
(537,-11,o),
(641,159,o),
(641,364,cs),
(641,552,o),
(537,710,o),
(306,710,cs),
(276,710,o),
(180,698,o),
(48,698,c),
(34,682,o),
(26,659,o),
(26,635,c),
(70,635,o),
(88,621,o),
(88,585,cs),
(88,115,ls),
(88,78,o),
(70,64,o),
(26,64,c),
(26,40,o),
(34,18,o),
(48,0,c),
(193,0,o),
(246,-11,o),
(292,-11,cs)
);
},
{
closed = 1;
nodes = (
(274,72,o),
(262,72,o),
(252,74,c),
(252,628,l),
(259,630,o),
(267,630,o),
(276,630,cs),
(389,630,o),
(463,543,o),
(463,349,cs,{
name = hr00;
}),
(463,147,o),
(393,72,o),
(284,72,cs)
);
}
);
width = 668;
}
);
metricLeft = H;
unicode = 68;
},
{
glyphname = Eth;
kernLeft = KO_Dcroat;
kernRight = KO_D;
lastChange = "2022-05-19 01:21:39 +0000";
layers = (
{
layerId = "184835E3-72D9-430C-A639-2454AC4A0BE8";
shapes = (
{
closed = 1;
nodes = (
(344,333,l),
(361,352,o),
(360,385,o),
(360,411,c),
(39,411,l),
(39,333,l)
);
},
{
ref = D;
}
);
width = 668;
}
);
metricRight = D;
unicode = 208;
},
{
glyphname = E;
kernLeft = KO_E;
kernRight = KO_E;
lastChange = "2022-05-19 01:21:39 +0000";
layers = (
{
anchors = (
{
name = bottom;
pos = (308,0);
},
{
name = ogonek;
pos = (554,10);
},
{
name = top;
pos = (308,698);
},
{
name = topleft;
pos = (20,698);
}
);
background = {
shapes = (
{
closed = 1;
nodes = (
(222,313,l),
(552,313,l),
(552,397,l),
(222,397,l,{
name = hr00;
})
);
},
{
closed = 1;
nodes = (
(312,16,o),
(321,40,o),
(321,64,c),
(277,64,o),
(261,77,o),
(261,114,cs),
(261,584,ls),
(261,621,o),
(277,635,o),
(321,635,c),
(321,658,o),
(312,682,o),
(299,698,c),
(54,698,l),
(40,682,o),
(32,658,o),
(32,635,c,{
name = hr03;
}),
(76,635,o),
(92,621,o),
(92,584,cs),
(92,114,ls),
(92,77,o),
(76,64,o),
(32,64,c),
(32,40,o),
(40,16,o),
(54,0,c,{
name = hr04;
}),
(299,0,l)
);
},
{
closed = 1;
nodes = (
(699,16,o),
(707,40,o),
(707,64,c),
(664,64,o),
(648,77,o),
(648,114,cs),
(648,584,ls),
(648,621,o),
(664,635,o),
(707,635,c),
(707,658,o),
(699,682,o),
(685,698,c),
(441,698,l),
(427,682,o),
(419,658,o),
(419,635,c),
(462,635,o),
(479,621,o),
(479,584,cs),
(479,114,ls),
(479,77,o),
(462,64,o),
(419,64,c),
(419,40,o),
(427,16,o),
(441,0,c),
(685,0,l)
);
}
);
};
layerId = "184835E3-72D9-430C-A639-2454AC4A0BE8";
shapes = (
{
closed = 1;
nodes = (
(573,20,o),
(599,172,o),
(599,211,c),
(492,211,l),
(482,144,o),
(438,88,o),
(380,88,cs),
(208,88,l),
(259,59,l,{
name = hr05;
}),
(259,351,l,{
name = hr01;
}),
(201,323,l),
(332,323,ls),
(369,323,o),
(397,300,o),
(397,247,c),
(426,247,o),
(456,255,o),
(477,268,c),
(477,454,l),
(455,467,o),
(426,475,o),
(396,475,c),
(396,421,o),
(368,402,o),
(331,402,cs),
(226,402,l,{
name = hr02;
}),
(259,384,l),
(259,645,l),
(159,613,l),
(372,613,ls),
(425,613,o),
(463,566,o),
(478,522,c),
(502,527,o),
(552,545,o),
(569,561,c),
(569,594,o),
(536,682,o),
(519,715,c),
(494,715,o),
(462,709,o),
(438,698,c),
(50,698,l),
(37,681,o),
(27,658,o),
(27,635,c,{
name = hr03;
}),
(71,635,o),
(92,621,o),
(92,584,cs),
(92,115,ls),
(92,77,o),
(70,63,o),
(26,63,c),
(26,40,o),
(36,17,o),
(49,0,c,{
name = hr04;
}),
(512,0,l),
(536,-11,o),
(546,-14,o),
(554,-16,c)
);
}
);
width = 615;
}
);
metricLeft = H;
unicode = 69;
userData = {
KernOnName = E;
};
},
{
glyphname = Eogonek;
kernLeft = KO_D;
kernRight = KO_Eogonek;
lastChange = "2022-05-19 01:21:39 +0000";
layers = (
{
anchors = (
{
name = top;
pos = (305,963);
}
);
layerId = "184835E3-72D9-430C-A639-2454AC4A0BE8";
shapes = (
{
closed = 1;
nodes = (
(469,-240,o),
(510,-224,o),
(527,-208,cs),
(541,-194,o),
(545,-175,o),
(545,-156,cs),
(545,-144,o),
(543,-127,o),
(537,-118,c),
(525,-128,o),
(497,-136,o),
(469,-136,cs),
(438,-136,o),
(406,-126,o),
(406,-97,cs),
(406,-54,o),
(435,-16,o),
(493,0,c),
(507,0,l),
(531,-11,o),
(541,-14,o),
(549,-16,c),
(568,20,o),
(585,171,o),
(585,210,c),
(478,210,l),
(460,154,o),
(433,88,o),
(375,88,cs),
(254,88,l),
(254,325,l),
(327,325,ls),
(364,325,o),
(392,302,o),
(392,249,c),
(421,249,o),
(451,257,o),
(472,270,c),
(472,454,l),
(450,467,o),
(421,475,o),
(391,475,c),
(391,421,o),
(363,402,o),
(326,402,cs),
(254,402,l),
(254,613,l),
(363,613,ls),
(416,613,o),
(444,566,o),
(459,522,c),
(483,527,o),
(537,545,o),
(554,561,c),
(554,594,o),
(531,682,o),
(514,715,c),
(489,715,o),
(457,709,o),
(433,698,c),
(49,698,l),
(36,681,o),
(26,658,o),
(26,635,c,{
name = hr03;
}),
(70,635,o),
(87,621,o),
(87,584,cs),
(87,115,ls),
(87,77,o),
(70,63,o),
(26,63,c),
(26,40,o),
(36,17,o),
(49,0,c,{
name = hr04;
}),
(375,0,l),
(333,-23,o),
(292,-67,o),
(292,-127,cs),
(292,-209,o),
(360,-240,o),
(422,-240,cs)
);
}
);
width = 615;
}
);
metricLeft = E;
metricWidth = E;
unicode = 280;
},
{
glyphname = F;
kernLeft = KO_F;
kernRight = KO_F;
lastChange = "2022-05-19 01:21:39 +0000";
layers = (
{
anchors = (
{
name = bottom;
pos = (282,0);
},
{
name = top;
pos = (282,698);
}
);
layerId = "184835E3-72D9-430C-A639-2454AC4A0BE8";
shapes = (
{
closed = 1;
nodes = (
(386,0,l),
(400,16,o),
(404,44,o),
(404,68,c),
(376,68,o),
(346,68,o),
(324,68,cs),
(268,68,o),
(258,90,o),
(258,127,cs),
(258,327,l),
(223,305,l),
(341,305,ls),
(378,305,o),
(392,283,o),
(392,229,c),
(422,229,o),
(457,237,o),
(478,251,c),
(478,436,l),
(457,450,o),
(421,458,o),
(392,458,c),
(392,404,o),
(378,380,o),
(340,380,cs),
(224,380,l),
(258,350,l),
(258,663,l),
(160,612,l,{
name = hr00;
}),
(346,612,ls),
(413,612,o),
(445,569,o),
(459,525,c),
(485,530,o),
(527,547,o),
(544,563,c),
(544,596,o),
(528,682,o),
(511,714,c),
(486,714,o),
(460,708,o),
(435,697,c),
(53,697,l),
(39,681,o),
(30,658,o),
(30,634,c),
(73,634,o),
(94,621,o),
(94,584,cs),
(94,114,ls),
(94,77,o),
(80,64,o),
(26,64,c),
(26,40,o),
(34,16,o),
(49,0,c)
);
}
);
width = 564;
}
);
metricLeft = H;
unicode = 70;
userData = {
KernOnName = F;
};
},
{
glyphname = G;
kernLeft = KO_G;
kernRight = KO_G;
lastChange = "2022-05-19 01:21:39 +0000";
layers = (
{
anchors = (
{
name = bottom;
pos = (332,0);
},
{
name = top;
pos = (356,698);
}
);
background = {
shapes = (
{
closed = 1;
nodes = (
(810,1211,o),
(803,1438,o),
(747,1579,c),
(699,1577,o),
(594,1552,o),
(548,1530,c),
(486,1561,o),
(382,1580,o),
(316,1580,cs),
(-95,1580,o),
(-361,1300,o),
(-361,778,cs),
(-361,232,o),
(-40,-27,o),
(342,-27,cs),
(643,-27,o),
(807,125,o),
(807,232,cs),
(807,273,o),
(783,338,o),
(747,363,c),
(709,306,o),
(609,245,o),
(473,245,cs),
(234,245,o),
(9,427,o),
(9,885,cs),
(9,1257,o),
(160,1387,o),
(323,1387,cs),
(473,1387,o),
(580,1270,o),
(604,1076,c),
(810,1076,l,{
name = hr00;
})
);
}
);
};
layerId = "184835E3-72D9-430C-A639-2454AC4A0BE8";
shapes = (
{
closed = 1;
nodes = (
(505,-14,o),
(611,43,o),
(611,78,cs),
(611,88,o),
(608,92,o),
(604,96,cs),
(599,102,o),
(593,111,o),
(593,141,cs),
(593,256,l),
(608,262,o),
(628,264,o),
(649,264,c),
(652,269,o),
(654,277,o),
(654,282,cs),
(654,297,o),
(645,349,o),
(585,349,cs),
(369,349,l),
(355,333,o),
(345,295,o),
(345,272,c),
(408,272,o),
(438,258,o),
(438,223,cs),
(438,109,l),
(420,90,o),
(396,83,o),
(359,83,cs),
(262,83,o),
(209,153,o),
(209,365,cs),
(209,563,o),
(270,617,o),
(350,617,cs),
(422,617,o),
(480,570,o),
(494,483,c),
(591,483,l),
(591,543,o),
(587,645,o),
(562,709,c),
(541,708,o),
(494,696,o),
(474,687,c),
(424,706,o),
(383,709,o),
(353,709,cs),
(161,709,o),
(25,584,o),
(25,339,cs),
(25,132,o),
(157,-14,o),
(370,-14,cs,{
name = hr00;
})
);
}
);
width = 664;
}
);
metricLeft = O;
unicode = 71;
userData = {
KernOnName = G;
};
},
{
glyphname = H;
kernLeft = KO_H;
kernRight = KO_H;
lastChange = "2022-10-20 09:05:46 +0000";
layers = (
{
anchors = (
{
name = bottom;
pos = (364,0);
},
{
name = center;
pos = (364,349);
},
{
name = top;
pos = (364,698);
},
{
name = topleft;
pos = (20,698);
}
);
layerId = "184835E3-72D9-430C-A639-2454AC4A0BE8";
shapes = (
{
closed = 1;
nodes = (
(292,0,l),
(305,16,o),
(314,40,o),
(314,64,c),
(270,64,o),
(254,77,o),
(254,114,cs),
(254,584,ls),
(254,621,o),
(270,635,o),
(314,635,c),
(314,658,o),
(305,682,o),
(292,698,c),
(48,698,l),
(34,682,o),
(26,658,o),
(26,635,c,{
name = hr03;
}),
(70,635,o),
(86,621,o),
(86,584,cs),
(86,114,ls),
(86,77,o),
(70,64,o),
(26,64,c),
(26,40,o),
(34,16,o),
(48,0,c,{
name = hr04;
})
);
},
{
closed = 1;
nodes = (
(547,313,l),
(547,397,l),
(215,397,l,{
name = hr00;
}),
(215,313,l)
);
},
{
closed = 1;
nodes = (
(679,0,l),
(693,16,o),
(701,40,o),
(701,64,c),
(658,64,o),
(640,77,o),
(640,114,cs),
(640,584,ls),
(640,621,o),
(658,635,o),
(701,635,c),
(701,658,o),
(693,682,o),
(679,698,c),
(434,698,l),
(420,682,o),
(412,658,o),
(412,635,c),
(455,635,o),
(472,621,o),
(472,584,cs),
(472,114,ls),
(472,77,o),
(455,64,o),
(412,64,c),
(412,40,o),
(420,16,o),
(434,0,c)
);
}
);
width = 727;
}
);
metricRight = "=|";
unicode = 72;
userData = {
KernOnName = H;
};
},
{
glyphname = Hbar;
kernLeft = KO_H;
kernRight = KO_H;
lastChange = "2022-05-19 01:21:39 +0000";
layers = (
{
layerId = "184835E3-72D9-430C-A639-2454AC4A0BE8";
shapes = (
{
closed = 1;
nodes = (
(293,0,l),
(306,16,o),
(315,40,o),
(315,64,c),
(271,64,o),
(255,77,o),
(255,114,cs),
(255,584,ls),
(255,621,o),
(271,635,o),
(315,635,c),
(315,658,o),
(306,682,o),
(293,698,c),
(48,698,l),
(34,682,o),
(26,658,o),
(26,635,c,{
name = hr03;
}),
(70,635,o),
(86,621,o),
(86,584,cs),
(86,114,ls),
(86,77,o),
(70,64,o),
(26,64,c),
(26,40,o),
(34,16,o),
(48,0,c,{
name = hr04;
})
);
},
{
closed = 1;
nodes = (
(570,267,l),
(544,349,l),
(212,349,l,{
name = hr00;
}),
(209,267,l)
);
},
{
closed = 1;
nodes = (
(671,434,l),
(688,453,o),
(687,486,o),
(687,512,c),
(39,512,l),
(39,434,l)
);
},
{
closed = 1;
nodes = (
(679,0,l),
(693,16,o),
(701,40,o),
(701,64,c),
(658,64,o),
(642,77,o),
(642,114,cs),
(642,584,ls),
(642,621,o),
(658,635,o),
(701,635,c),
(701,658,o),
(693,682,o),
(679,698,c),
(435,698,l),
(421,682,o),
(413,658,o),
(413,635,c),
(456,635,o),
(473,621,o),
(473,584,cs),
(473,114,ls),
(473,77,o),
(456,64,o),
(413,64,c),
(413,40,o),
(421,16,o),
(435,0,c)
);
}
);
width = 727;
}
);
metricLeft = H;
metricRight = H;
unicode = 294;
},
{
glyphname = I;
kernLeft = KO_I;
kernRight = KO_I;
lastChange = "2022-05-19 01:21:39 +0000";
layers = (
{
anchors = (
{
name = bottom;
pos = (173,0);
},
{
name = ogonek;
pos = (311,10);
},
{
name = top;
pos = (173,698);
},
{
name = topleft;
pos = (20,698);
}
);
layerId = "184835E3-72D9-430C-A639-2454AC4A0BE8";
shapes = (
{
closed = 1;
nodes = (
(294,0,l),
(307,16,o),
(316,40,o),
(316,64,c),
(272,64,o),
(256,77,o),
(256,114,cs),
(256,584,ls),
(256,621,o),
(272,635,o),
(316,635,c),
(316,658,o),
(307,682,o),
(294,698,c),
(51,698,l),
(37,682,o),
(29,658,o),
(29,635,c,{
name = hr03;
}),
(73,635,o),
(89,621,o),
(89,584,cs),
(89,114,ls),
(89,77,o),
(73,64,o),
(29,64,c),
(29,40,o),
(37,16,o),
(51,0,c,{
name = hr04;
})
);
}
);
width = 345;
}
);
unicode = 73;
},
{
glyphname = J;
kernLeft = KO_J;
kernRight = KO_J;
lastChange = "2022-05-19 01:21:39 +0000";
layers = (
{
anchors = (
{
name = bottom;
pos = (268,0);
},
{
name = top;
pos = (422,698);
}
);
layerId = "184835E3-72D9-430C-A639-2454AC4A0BE8";
shapes = (
{
closed = 1;
nodes = (
(143,10,l),
(169,-4,o),
(227,-13,o),
(260,-13,cs),
(385,-13,o),
(499,42,o),
(499,228,cs),
(499,583,ls,{
name = hr00;
}),
(499,620,o),
(520,634,o),
(565,634,c),
(565,657,o),
(557,681,o),
(542,697,c),
(268,697,l),
(254,681,o),
(245,657,o),
(245,634,c),
(317,634,o),
(337,612,o),
(337,564,cs),
(337,170,ls),
(337,95,o),
(296,75,o),
(260,75,cs),
(195,75,o),
(169,130,o),
(169,204,cs),
(169,227,o),
(172,246,o),
(177,268,c),
(25,268,l),
(22,253,o),
(20,236,o),
(20,210,cs),
(20,87,o),
(67,23,o),
(100,-13,c)
);
}
);
width = 573;
}
);
unicode = 74;
},
{
glyphname = K;
kernLeft = KO_H;
kernRight = KO_K;
lastChange = "2022-05-19 01:21:39 +0000";
layers = (
{
anchors = (
{
name = bottom;
pos = (343,0);
},
{
name = top;
pos = (354,698);
}
);
layerId = "184835E3-72D9-430C-A639-2454AC4A0BE8";
shapes = (
{
closed = 1;
nodes = (
(616,-14,o),
(643,3,o),
(664,31,c),
(664,71,l),
(603,78,o),
(577,143,o),
(518,233,cs),
(479,293,o),
(442,334,o),
(377,363,c),
(566,587,l),
(580,605,o),
(609,635,o),
(666,635,c),
(666,657,o),
(657,681,o),
(644,698,c),
(411,698,l),
(397,681,o),
(388,657,o),
(388,635,c),
(414,635,o),
(446,624,o),
(446,607,cs),
(446,596,o),
(442,582,o),
(433,571,c),
(292,384,l),
(278,386,o),
(264,386,o),
(255,386,c),
(255,584,ls),
(255,621,o),
(271,635,o),
(315,635,c),
(315,658,o),
(306,682,o),
(293,698,c),
(48,698,l),
(34,682,o),
(26,658,o),
(26,635,c,{
name = hr03;
}),
(70,635,o),
(86,621,o),
(86,584,cs),
(86,114,ls),
(86,77,o),
(70,64,o),
(26,64,c),
(26,40,o),
(34,16,o),
(48,0,c,{
name = hr04;
}),
(293,0,l),
(306,16,o),
(315,40,o),
(315,64,c),
(271,64,o),
(255,77,o),
(255,114,cs),
(255,318,l),
(306,297,o),
(359,188,o),
(387,132,cs),
(417,72,o),
(450,-14,o),
(563,-14,cs)
);
}
);
width = 665;
}
);
metricLeft = H;
unicode = 75;
userData = {
KernOnName = K;
};
},
{
glyphname = L;
kernLeft = KO_D;
kernRight = KO_L;
lastChange = "2022-05-19 01:21:39 +0000";
layers = (
{
anchors = (
{
name = bottom;
pos = (269,0);
},
{
name = center;
pos = (177,349);
},
{
name = top;
pos = (195,698);
},
{
name = topright;
pos = (436,698);
}
);
layerId = "184835E3-72D9-430C-A639-2454AC4A0BE8";
shapes = (
{
closed = 1;
nodes = (
(446,0,ls,{
name = hr01;
}),
(515,0,o),
(540,48,o),
(540,128,cs),
(540,175,o),
(528,249,o),
(503,268,c),
(433,268,l),
(433,156,o),
(389,85,o),
(314,85,cs),
(252,85,l),
(252,584,ls),
(252,621,o),
(274,635,o),
(328,635,c),
(328,658,o),
(321,682,o),
(306,698,c),
(49,698,l),
(34,682,o),
(26,658,o),
(26,635,c),
(71,635,o),
(88,621,o),
(88,584,cs),
(88,114,ls),
(88,77,o),
(71,64,o),
(26,64,c,{
name = hr02;
}),
(26,40,o),
(34,16,o),
(49,0,c,{
name = hr03;
})
);
}
);
width = 550;
}
);
metricLeft = H;
unicode = 76;
userData = {
KernOnName = L;
};
},
{
glyphname = Lslash;
kernLeft = KO_Lslash;
kernRight = KO_Lslash;
lastChange = "2022-05-19 01:21:39 +0000";
layers = (
{
background = {
shapes = (
{
closed = 1;
nodes = (
(37,206,l),
(119,269,l),
(242,358,l),
(410,479,l),
(362,540,l),
(244,456,l),
(105,355,l),
(-12,265,l)
);
},
{
closed = 1;
nodes = (
(433,268,l),
(433,181,o),
(362,85,o),
(289,85,qs),
(252,85,l),
(252,365,l),
(410,479,l),
(362,540,l),
(252,462,l),
(252,584,ls),
(252,611,o),
(284,635,o),
(318,635,q),
(318,675,o),
(296,698,q),
(49,698,l),
(38,686,o),
(26,653,o),
(26,635,q),
(60,635,o),
(88,612,o),
(88,584,qs),
(88,342,l),
(-12,265,l),
(37,206,l),
(88,245,l),
(88,114,ls),
(88,86,o),
(60,64,o),
(26,64,q),
(26,46,o),
(38,12,o),
(49,0,q),
(446,0,ls),
(496,0,o),
(540,65,o),
(540,128,qs),
(540,169,o),
(520,255,o),
(503,268,q)
);
}
);
};
layerId = "184835E3-72D9-430C-A639-2454AC4A0BE8";
shapes = (
{
closed = 1;
nodes = (
(121,271,l),
(242,358,l),
(405,476,l),
(403,488,o),
(395,502,o),
(388,512,cs),
(381,523,o),
(369,534,o),
(359,539,c),
(244,456,l),
(107,357,l),
(-6,270,l),
(-5,258,o),
(2,241,o),
(11,230,cs),
(19,220,o),
(30,211,o),
(40,207,c)
);
},
{
ref = L;
}
);
width = 537;
}
);
unicode = 321;
},
{
glyphname = M;
kernLeft = KO_M;
kernRight = KO_M;
lastChange = "2022-05-19 01:21:39 +0000";
layers = (
{
anchors = (
{
name = bottom;
pos = (457,0);
},
{
name = top;
pos = (457,698);
}
);
layerId = "184835E3-72D9-430C-A639-2454AC4A0BE8";
shapes = (
{
closed = 1;
nodes = (
(256,0,l),
(269,16,o),
(278,40,o),
(278,64,c),
(227,64,o),
(199,77,o),
(199,114,cs),
(199,528,l),
(397,45,l),
(442,45,o),
(475,55,o),
(493,99,cs),
(663,528,l),
(663,114,ls),
(663,77,o),
(639,64,o),
(594,64,c),
(594,40,o),
(603,16,o),
(616,0,c),
(864,0,l),
(878,16,o),
(887,40,o),
(887,64,c),
(839,64,o),
(820,77,o),
(820,114,cs),
(820,584,ls),
(820,621,o),
(842,635,o),
(887,635,c),
(887,658,o),
(878,682,o),
(864,698,c),
(636,698,l,{
name = hr00;
}),
(510,370,l),
(472,246,l),
(432,370,l),
(326,631,l),
(302,688,o),
(263,698,o),
(206,698,cs),
(49,698,l),
(35,682,o),
(26,658,o),
(26,635,c),
(71,635,o),
(97,621,o),
(97,584,cs),
(97,114,ls),
(97,77,o),
(74,64,o),
(26,64,c),
(26,40,o),
(34,16,o),
(48,0,c)
);
}
);
width = 913;
}
);
metricLeft = H;
metricRight = H;
unicode = 77;
userData = {
KernOnName = M;
};
},
{
glyphname = N;
kernLeft = KO_N;
kernRight = KO_N;
lastChange = "2022-05-19 01:21:39 +0000";
layers = (
{
anchors = (
{
name = bottom;
pos = (362,0);
},
{
name = top;
pos = (362,698);
}
);
layerId = "184835E3-72D9-430C-A639-2454AC4A0BE8";
shapes = (
{
closed = 1;
nodes = (
(646,-6,l),
(646,584,ls),
(646,621,o),
(671,635,o),
(715,635,c),
(715,658,o),
(706,682,o),
(692,698,c),
(479,698,l),
(464,682,o),
(456,658,o),
(456,635,c),
(501,635,o),
(527,621,o),
(527,584,cs),
(527,254,l),
(300,613,l),
(266,666,o),
(226,698,o),
(187,698,cs),
(48,698,l),
(34,682,o),
(26,658,o),
(26,635,c),
(71,635,o),
(99,621,o),
(99,584,cs),
(99,114,ls),
(99,77,o),
(75,63,o),
(30,63,c),
(30,40,o),
(38,17,o),
(52,0,c),
(260,0,l),
(274,17,o),
(283,40,o),
(283,63,c),
(238,63,o),
(210,77,o),
(210,114,cs),
(210,475,l,{
name = hr00;
}),
(490,50,l),
(515,13,o),
(537,-6,o),
(606,-6,cs)
);
}
);
width = 724;
}
);
metricLeft = H;
unicode = 78;
userData = {
KernOnName = N;
};
},
{
glyphname = Eng;
kernLeft = KO_N;
lastChange = "2022-05-19 01:21:39 +0000";
layers = (
{
anchors = (
{
name = top;
pos = (373,963);
}
);
layerId = "184835E3-72D9-430C-A639-2454AC4A0BE8";
shapes = (
{
closed = 1;
nodes = (
(572,-221,o),
(646,-162,o),
(646,-36,cs),
(646,584,ls),
(646,621,o),
(671,635,o),
(715,635,c),
(715,658,o),
(706,682,o),
(692,698,c),
(479,698,l),
(464,682,o),
(456,658,o),
(456,635,c),
(501,635,o),
(527,621,o),
(527,584,cs),
(527,254,l),
(300,613,ls),
(266,666,o),
(226,698,o),
(187,698,cs),
(48,698,l),
(34,682,o),
(26,658,o),
(26,635,c),
(71,635,o),
(99,621,o),
(99,584,cs),
(99,114,ls),
(99,77,o),
(75,63,o),
(30,63,c),
(30,40,o),
(38,17,o),
(52,0,c),
(260,0,l),
(274,17,o),
(283,40,o),
(283,63,c),
(238,63,o),
(210,77,o),
(210,114,cs),
(210,475,l,{
name = hr00;
}),
(512,18,l),
(512,-29,ls),
(512,-112,o),
(457,-138,o),
(405,-138,c),
(401,-144,o),
(396,-158,o),
(396,-167,cs),
(396,-192,o),
(423,-221,o),
(485,-221,cs)
);
}
);
width = 707;
}
);
unicode = 330;
},
{
glyphname = O;
kernLeft = KO_O;
kernRight = KO_O;
lastChange = "2022-05-19 01:21:39 +0000";
layers = (
{
anchors = (
{
name = bottom;
pos = (335,0);
},
{
name = center;
pos = (335,349);
},
{
name = ogonek;
pos = (510,10);
},
{
name = top;
pos = (335,708);
},
{
name = topleft;
pos = (20,698);
},
{
name = topright;
pos = (391,698);
}
);
layerId = "184835E3-72D9-430C-A639-2454AC4A0BE8";
shapes = (
{
closed = 1;
nodes = (
(521,-13,o),
(644,120,o),
(644,348,cs),
(644,566,o),
(527,710,o),
(333,710,cs),
(147,710,o),
(25,577,o),
(25,348,cs),
(25,131,o),
(140,-13,o),
(334,-13,cs)
);
},
{
closed = 1;
nodes = (
(265,60,o),
(212,119,o),
(212,345,cs),
(212,587,o),
(274,636,o),
(336,636,cs),
(406,636,o),
(458,577,o),
(458,352,cs),
(458,109,o),
(396,60,o),
(334,60,cs,{
name = hr00;
})
);
}
);
width = 669;
}
);
metricRight = "=|";
unicode = 79;
userData = {
KernOnName = O;
};
},
{
glyphname = Ohorn;
kernLeft = KO_O;
kernRight = KO_Ohorn;
lastChange = "2022-05-19 01:21:39 +0000";
layers = (
{
background = {
shapes = (
{
closed = 1;
nodes = (
(516,635,l),
(591,635,ls,{
name = hr01;
}),
(631,635,o),
(661,686,o),
(661,732,cs),
(661,766,o),
(653,788,o),
(625,810,c),
(561,810,l),
(575,721,o),
(543,698,o),
(480,698,c)
);
}
);
};
layerId = "184835E3-72D9-430C-A639-2454AC4A0BE8";
shapes = (
{
ref = O;
},
{
pos = (351,0);
ref = horncomb.case;
}
);
width = 669;
}
);
unicode = 416;
},
{
glyphname = Oogonek;
kernLeft = KO_O;
lastChange = "2022-05-19 01:21:39 +0000";
layers = (
{
layerId = "184835E3-72D9-430C-A639-2454AC4A0BE8";
shapes = (
{
closed = 1;
nodes = (
(434,-228,o),
(475,-213,o),
(492,-196,cs),
(506,-182,o),
(510,-163,o),
(510,-144,cs),
(510,-132,o),
(508,-115,o),
(502,-106,c),
(490,-116,o),
(462,-124,o),
(434,-124,cs),
(403,-124,o),
(371,-114,o),
(371,-85,cs),
(371,-41,o),
(401,-2,o),
(462,13,c),
(450,49,l),
(401,49,o),
(257,5,o),
(257,-115,cs),
(257,-197,o),
(325,-228,o),
(387,-228,cs)
);
},
{
ref = O;
}
);
width = 675;
}
);
unicode = 490;
},
{
glyphname = Oslash;
kernLeft = KO_O;
kernRight = KO_Oslash;
lastChange = "2022-05-19 01:21:39 +0000";
layers = (
{
anchors = (
{
name = top;
pos = (335,708);
}
);
background = {
shapes = (
{
closed = 1;
nodes = (
(94,-13,l),
(159,72,l),
(196,103,l),
(473,501,l),
(544,574,l),
(650,712,l),
(575,712,l),
(501,616,l),
(450,564,l),
(162,151,l),
(118,115,l),
(20,-13,l)
);
}
);
};
layerId = "184835E3-72D9-430C-A639-2454AC4A0BE8";
shapes = (
{
closed = 1;
nodes = (
(521,-13,o),
(644,120,o),
(644,348,cs),
(644,566,o),
(527,710,o),
(333,710,cs),
(147,710,o),
(25,577,o),
(25,348,cs),
(25,131,o),
(140,-13,o),
(334,-13,cs)
);
},
{
closed = 1;
nodes = (
(159,72,l),
(196,103,l),
(473,501,l),
(544,574,l),
(633,689,l),
(629,697,o),
(623,706,o),
(612,714,cs),
(604,720,o),
(593,724,o),
(585,726,c),
(501,616,l),
(450,564,l),
(162,151,l),
(118,115,l),
(38,10,l),
(41,2,o),
(44,-4,o),
(52,-11,cs),
(63,-20,o),
(74,-25,o),
(84,-26,c)
);
},
{
closed = 1;
nodes = (
(265,60,o),
(212,119,o),
(212,345,cs),
(212,587,o),
(274,636,o),
(336,636,cs),
(406,636,o),
(458,577,o),
(458,352,cs),
(458,109,o),
(396,60,o),
(334,60,cs,{
name = hr00;
})
);
}
);
width = 669;
}
);
metricWidth = O;
unicode = 216;
},
{
glyphname = OE;
kernLeft = KO_C;
lastChange = "2022-05-19 01:21:39 +0000";
layers = (
{
anchors = (
{
name = top;
pos = (438,963);
}
);
layerId = "184835E3-72D9-430C-A639-2454AC4A0BE8";
shapes = (
{
closed = 1;
nodes = (
(889,3,o),
(902,128,o),
(902,167,c),
(819,167,l),
(802,111,o),
(763,71,o),
(694,71,cs),
(589,71,l),
(589,301,l),
(672,301,ls),
(709,301,o),
(737,284,o),
(737,231,c),
(767,231,o),
(794,239,o),
(815,252,c),
(815,428,l),
(794,441,o),
(766,449,o),
(737,449,c),
(737,395,o),
(709,374,o),
(672,374,cs),
(589,374,l),
(589,596,l),
(685,596,ls),
(738,596,o),
(767,551,o),
(780,508,c),
(805,514,o),
(843,531,o),
(860,546,c),
(860,579,o),
(846,665,o),
(830,698,c),
(805,698,o),
(778,692,o),
(753,681,c),
(418,681,l),
(390,689,o),
(364,690,o),
(330,690,cs),
(144,690,o),
(25,560,o),
(25,335,cs),
(25,115,o),
(139,-26,o),
(325,-26,cs),
(357,-26,o),
(385,-25,o),
(410,-17,c),
(794,-17,l),
(819,-28,o),
(846,-33,o),
(870,-33,c)
);
},
{
closed = 1;
nodes = (
(263,44,o),
(213,102,o),
(213,328,cs),
(213,573,o),
(271,620,o),
(343,620,cs),
(378,620,o),
(408,608,o),
(425,587,c),
(425,69,l),
(403,52,o),
(375,44,o),
(345,44,cs,{
name = hr01;
})
);
}
);
width = 918;
}
);
metricLeft = O;
metricRight = E;
unicode = 338;
},
{
glyphname = P;
kernLeft = KO_D;
kernRight = KO_P;
lastChange = "2022-05-19 01:21:39 +0000";
layers = (
{
anchors = (
{
name = bottom;
pos = (179,0);
},
{
name = top;
pos = (311,698);
}
);
layerId = "184835E3-72D9-430C-A639-2454AC4A0BE8";
shapes = (
{
closed = 1;
nodes = (
(340,0,l),
(354,16,o),
(362,40,o),
(362,64,c),
(273,64,o),
(253,81,o),
(253,159,cs),
(253,247,l),
(295,247,ls),
(496,247,o),
(592,348,o),
(592,479,cs),
(592,625,o),
(518,705,o),
(306,705,cs,{
name = hr00;
}),
(250,705,o),
(179,698,o),
(48,698,c),
(35,681,o),
(26,658,o),
(26,635,c),
(71,635,o),
(89,621,o),
(89,584,cs),
(89,114,ls),
(89,77,o),
(71,64,o),
(26,64,c),
(26,40,o),
(35,16,o),
(49,0,c)
);
},
{
closed = 1;
nodes = (
(270,327,o),
(262,327,o),
(253,329,c),
(253,622,l),
(264,625,o),
(276,626,o),
(290,626,cs),
(389,626,o),
(418,558,o),
(418,482,cs),
(418,414,o),
(403,327,o),
(279,327,cs)
);
}
);
width = 602;
}
);
metricLeft = H;
unicode = 80;
userData = {
KernOnName = P;
};
},
{
glyphname = Thorn;
kernLeft = KO_H;
kernRight = KO_Thorn;
lastChange = "2022-05-19 01:21:39 +0000";
layers = (
{
anchors = (
{
name = top;
pos = (170,963);
}
);
layerId = "184835E3-72D9-430C-A639-2454AC4A0BE8";
shapes = (
{
closed = 1;
nodes = (
(283,0,l),
(296,16,o),
(305,40,o),
(305,64,c),
(261,64,o),
(245,77,o),
(245,114,cs),
(245,147,l),
(271,141,o),
(313,138,o),
(338,138,cs),
(488,138,o),
(599,218,o),
(599,356,cs),
(599,484,o),
(503,572,o),
(314,572,cs),
(292,572,o),
(270,571,o),
(245,569,c),
(245,584,ls),
(245,621,o),
(261,635,o),
(305,635,c),
(305,658,o),
(296,682,o),
(283,698,c),
(48,698,l),
(34,682,o),
(26,658,o),
(26,635,c,{
name = hr03;
}),
(70,635,o),
(86,621,o),
(86,584,cs),
(86,114,ls),
(86,77,o),
(70,64,o),
(26,64,c),
(26,40,o),
(34,16,o),
(48,0,c,{
name = hr04;
})
);
},
{
closed = 1;
nodes = (
(281,218,o),
(261,219,o),
(245,223,c),
(245,486,l),
(256,487,o),
(270,488,o),
(282,488,cs),
(371,488,o),
(425,446,o),
(425,356,cs),
(425,269,o),
(374,218,o),
(295,218,cs)
);
}
);
width = 609;
}
);
metricLeft = H;
metricRight = P;
unicode = 222;
},
{
glyphname = Q;
kernLeft = KO_O;
kernRight = KO_Q;
lastChange = "2022-05-19 01:21:39 +0000";
layers = (
{
anchors = (
{
name = top;
pos = (321,963);
}
);
layerId = "184835E3-72D9-430C-A639-2454AC4A0BE8";
shapes = (
{
closed = 1;
nodes = (
(695,-182,o),
(732,-133,o),
(732,-100,cs),
(732,-90,o),
(724,-70,o),
(718,-62,c),
(697,-70,o),
(674,-73,o),
(653,-73,cs),
(629,-73,o),
(607,-69,o),
(589,-59,cs),
(554,-39,o),
(469,8,o),
(405,8,cs),
(310,8,o),
(254,-26,o),
(226,-76,c),
(255,-110,l),
(293,-86,o),
(313,-82,o),
(361,-82,cs,{
name = hr00;
}),
(407,-82,o),
(437,-104,o),
(469,-128,cs),
(504,-154,o),
(542,-182,o),
(605,-182,cs)
);
},
{
ref = O;
}
);
width = 669;
}
);
metricLeft = O;
metricWidth = O;
unicode = 81;
},
{
glyphname = R;
kernLeft = KO_E;
kernRight = KO_R;
lastChange = "2022-05-19 01:21:39 +0000";
layers = (
{
anchors = (
{
name = bottom;
pos = (334,0);
},
{
name = top;
pos = (327,698);
}
);
layerId = "184835E3-72D9-430C-A639-2454AC4A0BE8";
shapes = (
{
closed = 1;
nodes = (
(606,-7,o),
(641,0,o),
(659,25,c),
(659,75,l),
(621,80,o),
(600,105,o),
(585,154,cs),
(554,255,o),
(483,332,o),
(419,337,c),
(393,327,l),
(530,341,o),
(593,405,o),
(593,513,cs,{
name = hr00;
}),
(593,630,o),
(515,706,o),
(307,706,cs),
(266,706,o),
(230,704,o),
(194,702,cs),
(153,700,o),
(103,698,o),
(46,698,c),
(32,682,o),
(26,658,o),
(26,635,c),
(71,635,o),
(92,621,o),
(92,584,cs),
(92,114,ls),
(92,77,o),
(72,63,o),
(27,63,c),
(27,40,o),
(36,17,o),
(50,0,c),
(301,0,l),
(315,17,o),
(323,40,o),
(323,63,c),
(284,63,o),
(254,77,o),
(254,114,cs),
(254,297,l),
(320,297,l),
(360,283,o),
(381,209,o),
(396,151,cs),
(419,64,o),
(444,-7,o),
(572,-7,cs)
);
},
{
closed = 1;
nodes = (
(288,366,o),
(263,367,o),
(254,368,c),
(254,626,l),
(265,629,o),
(290,630,o),
(303,630,cs),
(390,630,o),
(426,586,o),
(426,503,cs),
(426,422,o),
(379,366,o),
(298,366,cs)
);
}
);
width = 653;
}
);
metricLeft = H;
unicode = 82;
userData = {
KernOnName = R;
};
},
{
glyphname = S;
kernLeft = KO_S;
kernRight = KO_S;
lastChange = "2022-05-19 01:21:39 +0000";
layers = (
{
anchors = (
{
name = bottom;
pos = (307,0);
},
{
name = top;
pos = (307,698);
}
);
layerId = "184835E3-72D9-430C-A639-2454AC4A0BE8";
shapes = (
{
closed = 1;
nodes = (
(162,19,l),
(223,-7,o),
(277,-15,o),
(323,-15,cs),
(470,-15,o),
(557,76,o),
(557,186,cs,{
name = hr02;
}),
(557,319,o),
(438,377,o),
(347,421,cs),
(284,452,o),
(225,482,o),
(225,546,cs),
(225,593,o),
(250,628,o),
(305,628,cs),
(364,628,o),
(418,595,o),
(446,482,c),
(529,482,l),
(529,486,o),
(529,492,o),
(529,497,cs),
(529,562,o),
(528,661,o),
(501,708,c),
(416,682,l),
(383,700,o),
(322,708,o),
(283,708,cs),
(157,708,o),
(59,637,o),
(59,516,cs),
(59,404,o),
(132,335,o),
(249,278,cs),
(317,245,o),
(394,207,o),
(394,142,cs),
(394,110,o),
(373,65,o),
(312,65,cs),
(228,65,o),
(159,133,o),
(138,246,c),
(38,246,l,{
name = hr01;
}),
(38,166,o),
(59,37,o),
(85,-15,c)
);
}
);
width = 589;
}
);
unicode = 83;
userData = {
KernOnName = S;
};
},
{
glyphname = Saltillo;
kernLeft = KO_I;
kernRight = KO_I;
lastChange = "2022-05-19 01:21:39 +0000";
layers = (
{
anchors = (
{
name = bottom;
pos = (173,0);
},
{
name = ogonek;
pos = (311,10);
},
{
name = top;
pos = (172,963);
},
{
name = topleft;
pos = (20,698);
}
);
layerId = "184835E3-72D9-430C-A639-2454AC4A0BE8";
shapes = (
{
closed = 1;
nodes = (
(256,114,l),
(256,584,ls),
(256,621,o),
(272,635,o),
(316,635,c),
(316,658,o),
(307,682,o),
(294,698,c),
(51,698,l),
(37,682,o),
(29,658,o),
(29,635,c,{
name = hr03;
}),
(73,635,o),
(89,621,o),
(89,584,cs),
(89,114,l)
);
}
);
width = 345;
}
);
unicode = 42891;
},
{
glyphname = Germandbls;
kernRight = KO_Germandbls;
lastChange = "2022-05-19 01:21:39 +0000";
layers = (
{
layerId = "184835E3-72D9-430C-A639-2454AC4A0BE8";
shapes = (
{
closed = 1;
nodes = (
(235,-13,l),
(236,394,ls),
(236,533,o),
(292,602,o),
(378,602,cs),
(463,602,o),
(483,601,o),
(506,601,c),
(558,698,l),
(529,698,o),
(500,698,o),
(364,698,cs),
(193,698,o),
(69,603,o),
(68,373,cs),
(67,100,ls),
(67,64,o),
(50,50,o),
(5,50,c),
(5,26,o),
(13,3,o),
(28,-13,c)
);
},
{
closed = 1;
nodes = (
(647,-13,o),
(728,73,o),
(728,196,cs),
(728,361,o),
(517,412,o),
(426,369,c),
(515,356,l),
(687,698,l),
(516,698,l),
(331,336,l),
(394,336,ls),
(466,336,o),
(555,274,o),
(555,190,cs),
(555,110,o),
(525,67,o),
(462,67,cs),
(430,67,o),
(401,79,o),
(388,93,c),
(405,110,o),
(410,138,o),
(410,156,cs),
(410,192,o),
(387,222,o),
(350,222,cs),
(314,222,o),
(285,193,o),
(285,138,cs),
(285,44,o),
(368,-13,o),
(481,-13,cs)
);
}
);
width = 762;
}
);
unicode = 7838;
},
{
glyphname = Schwa;
kernRight = KO_O;
lastChange = "2022-05-19 01:21:39 +0000";
layers = (
{
layerId = "184835E3-72D9-430C-A639-2454AC4A0BE8";
shapes = (
{
closed = 1;
nodes = (
(438,-14,o),
(566,119,o),
(566,346,cs),
(566,566,o),
(452,695,o),
(278,695,cs),
(145,695,o),
(58,623,o),
(58,581,cs),
(58,563,o),
(76,518,o),
(89,503,c,{
name = hr00;
}),
(127,534,o),
(181,561,o),
(252,561,cs),
(353,561,o),
(407,503,o),
(407,341,cs),
(407,289,ls),
(407,118,o),
(331,89,o),
(277,89,cs),
(235,89,o),
(173,118,o),
(173,228,cs),
(173,262,o),
(172,281,o),
(198,281,cs),
(455,281,l),
(460,364,l),
(101,364,ls),
(38,364,o),
(25,306,o),
(25,240,cs),
(25,75,o),
(121,-14,o),
(270,-14,cs)
);
}
);
width = 591;
}
);
metricLeft = O;
metricRight = O;
unicode = 399;
},
{
glyphname = T;
kernLeft = KO_T;
kernRight = KO_T;
lastChange = "2022-05-19 01:21:39 +0000";
layers = (
{
anchors = (
{
name = bottom;
pos = (319,0);
},
{
name = center;
pos = (319,349);
},
{
name = top;
pos = (315,963);
}
);
background = {
shapes = (
{
closed = 1;
nodes = (
(573,710,o),
(541,706,o),
(516,698,c),
(118,698,l),
(94,706,o),
(60,710,o),
(36,710,c),
(12,657,o),
(4,514,o),
(4,458,c),
(21,451,o),
(63,448,o),
(88,447,c),
(101,593,o),
(146,619,o),
(233,619,cs),
(235,619,l),
(235,118,ls),
(235,81,o),
(199,64,o),
(127,64,c),
(127,40,o),
(135,16,o),
(149,0,c),
(485,0,l),
(500,16,o),
(508,40,o),
(508,64,c),
(436,64,o),
(399,81,o),
(399,118,cs),
(399,619,l),
(403,619,ls,{
name = hr01;
}),
(498,619,o),
(533,593,o),
(546,447,c),
(572,447,o),
(612,451,o),
(630,458,c),
(630,514,o),
(622,657,o),
(598,710,c)
);
}
);
};
layerId = "184835E3-72D9-430C-A639-2454AC4A0BE8";
shapes = (
{
closed = 1;
nodes = (
(490,0,l),
(505,16,o),
(513,40,o),
(513,64,c),
(441,64,o),
(407,81,o),
(407,118,cs),
(407,619,l),
(424,619,ls,{
name = hr01;
}),
(495,619,o),
(527,583,o),
(540,421,c),
(566,421,o),
(612,425,o),
(630,432,c),
(630,488,o),
(620,657,o),
(596,710,c),
(571,710,o),
(539,706,o),
(514,698,c),
(124,698,l),
(100,706,o),
(66,710,o),
(42,710,c),
(18,657,o),
(8,488,o),
(8,432,c),
(25,425,o),
(73,422,o),
(98,421,c),
(111,583,o),
(166,619,o),
(219,619,cs),
(241,619,l),
(241,118,ls),
(241,81,o),
(200,64,o),
(128,64,c),
(128,40,o),
(136,16,o),
(150,0,c)
);
}
);
width = 638;
}
);
unicode = 84;
userData = {
KernOnName = T;
};
},
{
glyphname = Tbar;
kernLeft = KO_T;
lastChange = "2022-05-19 01:21:39 +0000";
layers = (
{
anchors = (
{
name = top;
pos = (323,1136.574);
}
);
layerId = "184835E3-72D9-430C-A639-2454AC4A0BE8";
shapes = (
{
closed = 1;
nodes = (
(522,262,l),
(525,271,o),
(527,289,o),
(527,306,cs),
(527,323,o),
(525,341,o),
(521,352,c),
(128,352,l,{
name = hr00;
}),
(123,343,o),
(121,325,o),
(121,306,cs),
(121,290,o),
(123,273,o),
(127,262,c)
);
},
{
ref = T;
}
);
width = 646;
}
);
unicode = 358;
},
{
glyphname = U;
kernLeft = KO_U;
kernRight = KO_U;
lastChange = "2022-05-19 01:21:39 +0000";
layers = (
{
anchors = (
{
name = bottom;
pos = (336,0);
},
{
name = ogonek;
pos = (519,10);
},
{
name = top;
pos = (346,698);
},
{
name = topright;
pos = (651,698);
}
);
layerId = "184835E3-72D9-430C-A639-2454AC4A0BE8";
shapes = (
{
closed = 1;
nodes = (
(514,-13,o),
(600,89,o),
(600,273,cs),
(600,585,ls,{
name = hr00;
}),
(600,621,o),
(620,635,o),
(671,635,c),
(671,659,o),
(663,682,o),
(649,698,c),
(429,698,l),
(414,682,o),
(407,659,o),
(407,635,c),
(457,635,o),
(478,621,o),
(478,585,cs),
(478,226,ls),
(478,148,o),
(448,83,o),
(358,83,cs),
(270,83,o),
(234,152,o),
(234,242,cs),
(234,585,ls),
(234,621,o),
(251,635,o),
(296,635,c),
(296,659,o),
(288,682,o),
(273,698,c),
(23,698,l),
(8,682,o),
(0,659,o),
(0,635,c),
(45,635,o),
(62,621,o),
(62,585,cs),
(62,263,ls),
(62,82,o),
(169,-13,o),
(340,-13,cs)
);
}
);
width = 671;
}
);
unicode = 85;
userData = {
KernOnName = U;
};
},
{
glyphname = Uhorn;
kernLeft = KO_U;
kernRight = KO_Uhorn;
lastChange = "2022-10-14 14:02:24 +0000";
layers = (
{
anchors = (
{
name = bottom;
pos = (347,0);
},
{
name = top;
pos = (346,698);
}
);
layerId = "184835E3-72D9-430C-A639-2454AC4A0BE8";
shapes = (
{
closed = 1;
nodes = (
(514,-13,o),
(600,89,o),
(600,273,cs),
(600,585,ls,{
name = hr00;
}),
(600,621,o),
(608,635,o),
(644,635,cs,{
name = hr01;
}),
(688,635,o),
(724,686,o),
(724,732,cs),
(724,766,o),
(716,788,o),
(688,810,c),
(624,810,l),
(626,796,o),
(627,784,o),
(627,773,cs),
(627,714,o),
(596,698,o),
(543,698,cs),
(429,698,l),
(414,682,o),
(407,659,o),
(407,635,c),
(457,635,o),
(478,621,o),
(478,585,cs),
(478,226,ls),
(478,148,o),
(448,83,o),
(358,83,cs),
(270,83,o),
(234,152,o),
(234,242,cs),
(234,585,ls),
(234,621,o),
(251,635,o),
(296,635,c),
(296,659,o),
(288,682,o),
(273,698,c),
(23,698,l),
(8,682,o),
(0,659,o),
(0,635,c),
(45,635,o),
(62,621,o),
(62,585,cs),
(62,263,ls),
(62,82,o),
(169,-13,o),
(340,-13,cs)
);
}
);
width = 694;
}
);
metricLeft = U;
unicode = 431;
},
{
glyphname = Uogonek;
kernLeft = KO_U;
kernRight = KO_H;
lastChange = "2022-05-19 01:21:39 +0000";
layers = (
{
layerId = "184835E3-72D9-430C-A639-2454AC4A0BE8";
shapes = (
{
closed = 1;
nodes = (
(418,-227,o),
(457,-212,o),
(473,-196,cs),
(486,-183,o),
(490,-165,o),
(490,-147,cs),
(490,-135,o),
(488,-119,o),
(482,-111,c),
(471,-120,o),
(444,-128,o),
(418,-128,cs),
(388,-128,o),
(358,-118,o),
(358,-91,cs),
(358,-49,o),
(391,-5,o),
(464,14,c),
(453,48,l),
(379,48,o),
(249,-5,o),
(249,-119,cs),
(249,-197,o),
(314,-227,o),
(373,-227,cs)
);
},
{
ref = U;
}
);
width = 695;
}
);
unicode = 370;
},
{
glyphname = V;
kernLeft = KO_V;
kernRight = KO_V;
lastChange = "2022-05-19 01:21:39 +0000";
layers = (
{
anchors = (
{
name = top;
pos = (317,969);
}
);
layerId = "184835E3-72D9-430C-A639-2454AC4A0BE8";
shapes = (
{
closed = 1;
nodes = (
(307,-7,ls),
(367,-7,o),
(393,21,o),
(416,89,cs),
(586,588,ls),
(598,624,o),
(625,635,o),
(670,635,c),
(670,659,o),
(666,679,o),
(654,698,c),
(422,698,l,{
name = hr00;
}),
(409,678,o),
(406,659,o),
(406,635,c),
(445,635,o),
(465,617,o),
(465,590,cs),
(465,584,o),
(463,577,o),
(461,569,cs),
(381,293,l),
(351,185,l),
(321,295,l),
(237,566,ls),
(234,575,o),
(231,583,o),
(231,590,cs),
(231,618,o),
(252,635,o),
(290,635,c),
(290,659,o),
(281,682,o),
(272,698,c),
(-24,698,l),
(-36,678,o),
(-40,659,o),
(-40,635,c),
(6,635,o),
(29,623,o),
(43,588,cs),
(276,-7,l)
);
}
);
width = 630;
}
);
unicode = 86;
userData = {
KernOnName = V;
};
},
{
glyphname = Vturned;
lastChange = "2022-05-19 01:21:39 +0000";
layers = (
{
layerId = "184835E3-72D9-430C-A639-2454AC4A0BE8";
shapes = (
{
closed = 1;
nodes = (
(208,0,l,{
name = hr00;
}),
(221,20,o),
(224,39,o),
(224,63,c),
(185,63,o),
(165,81,o),
(165,108,cs),
(165,114,o),
(167,121,o),
(169,129,cs),
(249,405,l),
(279,513,l),
(309,403,l),
(393,132,ls),
(396,123,o),
(399,115,o),
(399,108,cs),
(399,80,o),
(378,63,o),
(340,63,c),
(340,39,o),
(349,16,o),
(358,0,c),
(654,0,l),
(666,20,o),
(670,39,o),
(670,63,c),
(624,63,o),
(601,75,o),
(587,110,cs),
(354,705,l),
(323,705,ls),
(263,705,o),
(237,677,o),
(214,609,cs),
(44,110,ls),
(32,74,o),
(5,63,o),
(-40,63,c),
(-40,39,o),
(-36,19,o),
(-24,0,c)
);
}
);
width = 630;
}
);
unicode = 581;
},
{
glyphname = W;
kernLeft = KO_W;
kernRight = KO_W;
lastChange = "2022-05-19 01:21:39 +0000";
layers = (
{
anchors = (
{
name = bottom;
pos = (496,0);
},
{
name = top;
pos = (518,698);
}
);
layerId = "184835E3-72D9-430C-A639-2454AC4A0BE8";
shapes = (
{
closed = 1;
nodes = (
(280,-7,ls),
(347,-7,o),
(379,36,o),
(405,130,cs),
(456,314,l),
(507,547,l,{
name = hr00;
}),
(466,547,l,{
name = hr00;
}),
(527,315,l),
(619,-7,l),
(675,-7,ls),
(741,-7,o),
(779,36,o),
(805,130,cs),
(931,588,ls),
(941,623,o),
(967,635,o),
(1012,635,c),
(1012,658,o),
(1008,679,o),
(997,698,c),
(762,698,l),
(751,678,o),
(748,658,o),
(748,635,c),
(791,635,o),
(818,612,o),
(818,578,cs),
(818,573,o),
(817,565,o),
(815,558,cs),
(741,270,l),
(698,105,l),
(738,105,l),
(696,268,l),
(597,649,l),
(492,649,ls),
(450,649,o),
(427,601,o),
(418,551,c),
(302,105,l),
(334,130,l),
(307,268,l),
(221,591,l),
(221,614,o),
(231,635,o),
(282,635,c),
(282,658,o),
(273,682,o),
(265,698,c),
(-5,698,l),
(-17,678,o),
(-20,658,o),
(-20,635,c),
(25,635,o),
(39,623,o),
(49,588,cs),
(226,-7,l)
);
}
);
width = 992;
}
);
unicode = 87;
userData = {
KernOnName = W;
};
},
{
glyphname = X;
kernLeft = KO_X;
kernRight = KO_X;
lastChange = "2022-05-19 01:21:39 +0000";
layers = (
{
anchors = (
{
name = bottom;
pos = (343,0);
},
{
name = top;
pos = (363,698);
}
);
layerId = "184835E3-72D9-430C-A639-2454AC4A0BE8";
shapes = (
{
closed = 1;
nodes = (
(252,0,l),
(267,16,o),
(275,40,o),
(275,64,c),
(244,64,o),
(226,80,o),
(226,101,cs),
(226,109,o),
(229,118,o),
(235,127,cs),
(324,255,l),
(403,127,ls),
(411,114,o),
(417,102,o),
(417,91,cs),
(417,75,o),
(403,64,o),
(363,64,c),
(363,40,o),
(372,16,o),
(387,0,c),
(675,0,l),
(689,16,o),
(697,40,o),
(697,64,c),
(654,64,o),
(621,90,o),
(597,126,cs),
(434,372,l),
(581,585,ls),
(605,620,o),
(624,635,o),
(679,635,c),
(679,659,o),
(670,682,o),
(655,698,c),
(427,698,l),
(412,682,o),
(404,659,o),
(404,635,c),
(435,635,o),
(455,619,o),
(455,598,cs),
(455,590,o),
(450,577,o),
(445,568,c),
(381,451,l),
(306,572,ls),
(298,585,o),
(290,598,o),
(290,609,cs),
(290,624,o),
(304,635,o),
(346,635,c),
(346,659,o),
(337,682,o),
(322,698,c),
(27,698,l),
(13,682,o),
(5,659,o),
(5,635,c),
(44,635,o),
(77,617,o),
(107,574,cs),
(267,343,l),
(99,113,ls),
(73,77,o),
(55,64,o),
(1,64,c),
(1,40,o),
(10,16,o),
(25,0,c)
);
}
);
width = 685;
}
);
unicode = 88;
userData = {
KernOnName = X;
};
},
{
glyphname = Y;
kernLeft = KO_Y;
kernRight = KO_Y;
lastChange = "2022-05-19 01:21:39 +0000";
layers = (
{
anchors = (
{
name = bottom;
pos = (343,0);
},
{
name = top;
pos = (351,698);
},
{
name = topleft;
pos = (20,698);
}
);
layerId = "184835E3-72D9-430C-A639-2454AC4A0BE8";
shapes = (
{
closed = 1;
nodes = (
(494,0,l),
(508,16,o),
(516,40,o),
(516,64,c),
(469,64,o),
(420,77,o),
(420,114,cs),
(420,309,l),
(389,213,l),
(594,585,ls,{
name = hr00;
}),
(615,624,o),
(621,635,o),
(671,635,c),
(671,659,o),
(662,682,o),
(647,698,c),
(438,698,l),
(423,682,o),
(415,659,o),
(415,635,c),
(446,635,o),
(474,616,o),
(474,591,cs),
(474,585,o),
(472,578,o),
(469,572,cs),
(343,336,l),
(374,336,l),
(263,546,ls),
(253,566,o),
(247,583,o),
(247,596,cs),
(247,622,o),
(266,635,o),
(307,635,c),
(307,659,o),
(299,682,o),
(284,698,c),
(14,698,l),
(-1,682,o),
(-10,659,o),
(-10,635,c),
(17,635,o),
(49,617,o),
(64,591,cs),
(284,210,l),
(263,306,l),
(263,114,ls),
(263,77,o),
(215,64,o),
(171,64,c),
(171,40,o),
(179,16,o),
(193,0,c)
);
}
);
width = 661;
}
);
unicode = 89;
userData = {
KernOnName = Y;
};
},
{
glyphname = Z;
kernLeft = KO_Z;
kernRight = KO_Z;
lastChange = "2022-05-19 01:21:39 +0000";
layers = (
{
anchors = (
{
name = bottom;
pos = (308,0);
},
{
name = center;
pos = (308,349);
},
{
name = top;
pos = (338,698);
}
);
layerId = "184835E3-72D9-430C-A639-2454AC4A0BE8";
shapes = (
{
closed = 1;
nodes = (
(577,20,o),
(601,200,o),
(601,239,c),
(505,239,l),
(486,166,o),
(444,79,o),
(377,79,c),
(227,79,l,{
name = hr00;
}),
(590,661,l),
(565,698,l),
(76,698,l),
(54,654,o),
(42,567,o),
(42,477,c),
(141,477,l),
(155,576,o),
(187,621,o),
(274,621,cs),
(382,621,l),
(7,38,l),
(32,0,l),
(484,0,l),
(508,-11,o),
(535,-16,o),
(559,-16,c)
);
}
);
width = 616;
}
);
unicode = 90;
userData = {
KernOnName = Z;
};
},
{
glyphname = a;
kernLeft = KO_a;
kernRight = KO_a;
lastChange = "2022-05-19 01:21:39 +0000";
layers = (
{
anchors = (
{
name = bottom;
pos = (269,0);
},
{
name = ogonek;
pos = (521,0);
},
{
name = top;
pos = (274,530);
}
);
layerId = "184835E3-72D9-430C-A639-2454AC4A0BE8";
shapes = (
{
closed = 1;
nodes = (
(250,-7,o),
(294,16,o),
(321,40,c),
(339,10,o),
(372,-7,o),
(417,-7,cs),
(456,-7,o),
(503,6,o),
(521,31,c),
(521,63,l),
(490,70,o),
(475,90,o),
(475,121,cs),
(475,386,ls),
(475,490,o),
(407,545,o),
(274,545,cs),
(120,545,o),
(54,477,o),
(54,410,cs),
(54,364,o),
(87,331,o),
(138,331,cs),
(183,331,o),
(219,359,o),
(219,403,cs),
(219,426,o),
(208,447,o),
(181,456,c),
(194,466,o),
(214,472,o),
(235,472,cs),
(276,472,o),
(309,453,o),
(309,397,cs),
(309,264,l),
(282,278,o),
(235,286,o),
(196,286,cs),
(77,286,o),
(22,227,o),
(22,141,cs,{
name = hr00;
}),
(22,54,o),
(90,-7,o),
(190,-7,cs)
);
},
{
closed = 1;
nodes = (
(215,74,o),
(189,100,o),
(189,136,cs),
(189,182,o),
(218,204,o),
(253,204,cs),
(273,204,o),
(295,196,o),
(309,187,c),
(309,90,l),
(296,80,o),
(274,74,o),
(255,74,cs)
);
}
);
width = 537;
}
);
unicode = 97;
userData = {
KernOnName = a;
};
},
{
glyphname = aogonek;
kernLeft = KO_a;
kernRight = KO_aogonek;
lastChange = "2022-05-19 01:21:39 +0000";
layers = (
{
background = {
shapes = (
{
closed = 1;
nodes = (
(488.403,-41.033,l),
(530.52,-66.559,l),
(497.337,-103.024,o),
(456.496,-110.317,o),
(425.865,-110.317,cs),
(388.853,-110.317,o),
(368.433,-99.377,o),
(368.433,-68.99,cs),
(368.433,-31.309,o),
(423.313,3.941,o),
(488.403,19.742,c),
(438.628,47.699,l),
(387.577,24.604,l),
(298.237,2.725,o),
(265.054,-48.326,o),
(265.054,-92.084,cs),
(265.054,-154.075,o),
(316.105,-199.049,o),
(411.826,-199.049,cs),
(461.601,-199.049,o),
(501.166,-185.678,o),
(511.376,-167.446,c),
(488.403,-233.083,l)
);
}
);
};
layerId = "184835E3-72D9-430C-A639-2454AC4A0BE8";
shapes = (
{
closed = 1;
nodes = (
(443,-238,o),
(484,-223,o),
(501,-206,cs),
(515,-192,o),
(519,-173,o),
(519,-154,cs),
(519,-142,o),
(517,-125,o),
(511,-116,c),
(499,-126,o),
(471,-134,o),
(443,-134,cs),
(412,-134,o),
(380,-124,o),
(380,-95,cs),
(380,-51,o),
(410,-12,o),
(471,3,c),
(459,39,l),
(410,39,o),
(266,-5,o),
(266,-125,cs),
(266,-207,o),
(334,-238,o),
(396,-238,cs)
);
},
{
ref = a;
}
);
width = 522;
}
);
unicode = 261;
},
{
glyphname = aringacute;
lastChange = "2022-05-19 01:21:39 +0000";
layers = (
{
anchors = (
{
name = _top;
pos = (267,822);
},
{
name = top;
pos = (267,1033);
}
);
layerId = "184835E3-72D9-430C-A639-2454AC4A0BE8";
shapes = (
{
closed = 1;
nodes = (
(348,624,o),
(402,677,o),
(402,757,cs,{
name = hr00;
}),
(402,836,o),
(348,890,o),
(265,890,cs),
(182,890,o),
(129,836,o),
(129,757,cs),
(129,677,o),
(182,624,o),
(265,624,cs)
);
},
{
closed = 1;
nodes = (
(233,703,o),
(212,725,o),
(212,756,cs),
(212,788,o),
(233,810,o),
(265,810,cs),
(298,810,o),
(319,788,o),
(319,756,cs),
(319,725,o),
(298,703,o),
(265,703,cs)
);
},
{
closed = 1;
nodes = (
(341,822,o),
(450,887,o),
(450,939,cs),
(450,963,o),
(424,997,o),
(385,997,c,{
name = hr00;
}),
(353,937,o),
(298,887,o),
(251,856,c),
(254,832,o),
(271,822,o),
(290,822,cs)
);
},
{
ref = a;
}
);
width = 535;
}
);
unicode = 507;
},
{
glyphname = ae;
kernLeft = KO_a;
kernRight = KO_ae;
lastChange = "2022-05-19 01:21:39 +0000";
layers = (
{
anchors = (
{
name = bottom;
pos = (386,0);
},
{
name = top;
pos = (408,530);
}
);
layerId = "184835E3-72D9-430C-A639-2454AC4A0BE8";
shapes = (
{
closed = 1;
nodes = (
(263,-15,o),
(324,7,o),
(370,58,c),
(413,11,o),
(473,-15,o),
(546,-15,cs),
(661,-15,o),
(732,51,o),
(732,86,cs),
(732,97,o),
(724,126,o),
(713,136,c,{
name = hr02;
}),
(678,111,o),
(641,96,o),
(596,96,cs),
(524,96,o),
(476,136,o),
(471,248,c),
(681,248,ls),
(734,248,o),
(746,292,o),
(746,343,cs),
(746,470,o),
(672,543,o),
(555,543,cs),
(501,543,o),
(454,528,o),
(415,497,c),
(382,526,o),
(332,543,o),
(264,543,cs),
(127,543,o),
(57,474,o),
(57,408,cs),
(57,363,o),
(90,327,o),
(140,327,cs),
(185,327,o),
(221,357,o),
(221,400,cs),
(221,424,o),
(211,448,o),
(184,456,c),
(197,466,o),
(217,472,o),
(237,472,cs),
(279,472,o),
(306,450,o),
(306,395,cs),
(306,263,l),
(280,277,o),
(234,285,o),
(195,285,cs),
(87,285,o),
(22,222,o),
(22,136,cs,{
name = hr01;
}),
(22,49,o),
(87,-15,o),
(191,-15,cs)
);
},
{
closed = 1;
nodes = (
(217,66,o),
(187,90,o),
(187,135,cs),
(187,180,o),
(216,203,o),
(252,203,cs),
(271,203,o),
(293,195,o),
(306,186,c),
(306,88,l),
(293,74,o),
(275,66,o),
(251,66,cs)
);
},
{
closed = 1;
nodes = (
(474,442,o),
(511,472,o),
(546,472,cs),
(574,472,o),
(600,452,o),
(600,369,cs),
(600,342,o),
(597,324,o),
(574,324,cs),
(471,324,l)
);
}
);
width = 772;
}
);
metricLeft = a;
metricRight = e;
unicode = 230;
userData = {
com.typemytype.robofont.guides = (
{
angle = 90;
isGlobal = 0;
magnetic = 5;
x = 938;
y = 0;
}
);
};
},
{
glyphname = b;
kernLeft = KO_b;
kernRight = KO_b;
lastChange = "2022-05-19 01:21:39 +0000";
layers = (
{
anchors = (
{
name = bottom;
pos = (285,0);
},
{
name = top;
pos = (383,530);
}
);
layerId = "184835E3-72D9-430C-A639-2454AC4A0BE8";
shapes = (
{
closed = 1;
nodes = (
(417,-11,o),
(541,91,o),
(541,283,cs),
(541,458,o),
(440,540,o),
(330,540,cs),
(284,540,o),
(247,529,o),
(220,501,c),
(223,596,l),
(223,738,ls),
(223,771,o),
(211,784,o),
(179,784,cs),
(136,784,o),
(51,758,o),
(6,727,c),
(6,695,l),
(50,695,o),
(67,676,o),
(67,646,cs),
(67,24,l),
(114,1,o),
(209,-11,o),
(268,-11,cs)
);
},
{
closed = 1;
nodes = (
(252,62,o),
(236,68,o),
(223,81,c),
(223,444,l),
(233,451,o),
(246,455,o),
(261,455,cs),
(322,455,o),
(369,395,o),
(369,249,cs),
(369,108,o),
(325,62,o),
(271,62,cs)
);
}
);
width = 569;
}
);
metricRight = "=|d";
unicode = 98;
userData = {
KernOnName = b;
};
},
{
glyphname = c;
kernLeft = KO_c;
kernRight = KO_c;
lastChange = "2022-05-19 01:21:39 +0000";
layers = (
{
anchors = (
{
name = bottom;
pos = (260,0);
},
{
name = top;
pos = (287,530);
}
);
background = {
shapes = (
{
closed = 1;
nodes = (
(400,107,o),
(360,96,o),
(324,96,cs),
(247,96,o),
(202,148,o),
(202,295,cs),
(202,431,o),
(250,472,o),
(288,472,cs),
(296,472,o),
(303,471,o),
(317,463,c),
(300,450,o),
(287,432,o),
(287,402,cs),
(287,359,o),
(318,326,o),
(360,326,cs),
(410,326,o),
(446,360,o),
(446,422,cs),
(446,490,o),
(391,543,o),
(289,543,cs),
(141,543,o),
(29,438,o),
(29,260,cs),
(29,88,o),
(130,-15,o),
(276,-15,cs),
(369,-15,o),
(444,34,o),
(444,77,cs),
(444,91,o),
(436,114,o),
(425,127,c,{
name = hr00;
})
);
}
);
};
layerId = "184835E3-72D9-430C-A639-2454AC4A0BE8";
shapes = (
{
closed = 1;
nodes = (
(369,-15,o),
(444,34,o),
(444,77,cs),
(444,91,o),
(436,114,o),
(425,127,c,{
name = hr00;
}),
(400,107,o),
(360,96,o),
(324,96,cs),
(247,96,o),
(202,148,o),
(202,295,cs),
(202,431,o),
(250,469,o),
(288,469,cs),
(296,469,o),
(303,468,o),
(317,460,c),
(300,446,o),
(287,428,o),
(287,396,cs),
(287,352,o),
(318,317,o),
(360,317,cs),
(410,317,o),
(446,353,o),
(446,417,cs),
(446,488,o),
(391,543,o),
(289,543,cs),
(141,543,o),
(29,438,o),
(29,260,cs),
(29,88,o),
(130,-15,o),
(276,-15,cs)
);
}
);
width = 465;
}
);
metricLeft = o;
unicode = 99;
userData = {
KernOnName = c;
};
},
{
glyphname = d;
kernLeft = KO_d;
kernRight = KO_d;
lastChange = "2022-05-19 01:21:39 +0000";
layers = (
{
anchors = (
{
name = bottom;
pos = (283,0);
},
{
name = center;
pos = (283,265);
},
{
name = top;
pos = (154,530);
},
{
name = topright;
pos = (536,769);
}
);
layerId = "184835E3-72D9-430C-A639-2454AC4A0BE8";
shapes = (
{
closed = 1;
nodes = (
(289,-13,o),
(330,-3,o),
(358,34,c),
(374,2,o),
(419,-13,o),
(454,-13,cs),
(494,-13,o),
(537,0,o),
(556,25,c),
(555,53,l),
(524,59,o),
(507,79,o),
(507,111,cs),
(507,739,ls),
(507,772,o),
(494,785,o),
(463,785,cs),
(422,785,o),
(333,763,o),
(284,736,c),
(284,695,l),
(339,695,o),
(351,676,o),
(351,646,cs),
(351,596,l),
(354,536,l),
(332,538,o),
(310,540,o),
(293,540,cs),
(154,540,o),
(28,441,o),
(28,239,cs),
(28,69,o),
(126,-13,o),
(235,-13,cs)
);
},
{
closed = 1;
nodes = (
(244,72,o),
(198,136,o),
(198,274,cs),
(198,420,o),
(241,469,o),
(295,469,cs),
(319,469,o),
(337,459,o),
(351,440,c),
(351,90,l),
(341,79,o),
(325,72,o),
(304,72,cs)
);
}
);
width = 566;
}
);
unicode = 100;
userData = {
KernOnName = d;
};
},
{
glyphname = eth;
kernLeft = KO_eth;
kernRight = KO_eth;
lastChange = "2022-05-19 01:21:39 +0000";
layers = (
{
anchors = (
{
name = top;
pos = (279,970);
}
);
layerId = "184835E3-72D9-430C-A639-2454AC4A0BE8";
shapes = (
{
closed = 1;
nodes = (
(432,-9,o),
(532,90,o),
(532,296,cs),
(532,478,o),
(465,622,o),
(380,709,c),
(456,760,l,{
name = hr00;
}),
(450,789,o),
(434,800,o),
(414,811,c),
(328,755,l),
(284,786,o),
(238,803,o),
(196,803,cs),
(162,803,o),
(147,792,o),
(135,758,c),
(174,740,o),
(207,718,o),
(235,693,c),
(163,646,l),
(163,632,o),
(185,599,o),
(209,595,c),
(281,643,l),
(319,593,o),
(341,537,o),
(354,478,c),
(329,498,o),
(295,510,o),
(254,510,cs),
(141,510,o),
(29,419,o),
(29,240,cs),
(29,80,o),
(135,-9,o),
(282,-9,cs)
);
},
{
closed = 1;
nodes = (
(244,63,o),
(209,92,o),
(209,248,cs),
(209,405,o),
(236,438,o),
(284,438,cs),
(321,438,o),
(367,420,o),
(367,339,cs),
(367,92,o),
(343,63,o),
(287,63,cs)
);
}
);
width = 561;
}
);
metricLeft = o;
metricRight = o;
unicode = 240;
},
{
glyphname = dcroat;
kernLeft = KO_d;
kernRight = KO_dcroat;
lastChange = "2022-05-19 01:21:39 +0000";
layers = (
{
background = {
shapes = (
{
closed = 1;
nodes = (
(240,631,o),
(238,620,o),
(238,601,cs),
(238,585,o),
(240,573,o),
(244,562,c),
(559,562,l),
(562,571,o),
(564,584,o),
(564,601,cs),
(564,618,o),
(562,629,o),
(558,640,c),
(245,640,l,{
name = hr00;
})
);
},
{
closed = 1;
nodes = (
(240,630,o),
(238,618,o),
(238,606,cs),
(238,594,o),
(240,582,o),
(245,572,c),
(557,572,l),
(562,582,o),
(564,594,o),
(564,606,cs),
(564,618,o),
(562,630,o),
(557,640,c),
(245,640,l,{
name = hr00;
})
);
},
{
closed = 1;
nodes = (
(240,631,o),
(238,620,o),
(238,601,cs),
(238,585,o),
(240,573,o),
(244,562,c),
(559,562,l),
(562,571,o),
(564,584,o),
(564,601,cs),
(564,618,o),
(562,629,o),
(558,640,c),
(245,640,l,{
name = hr00;
})
);
}
);
};
layerId = "184835E3-72D9-430C-A639-2454AC4A0BE8";
shapes = (
{
closed = 1;
nodes = (
(557,580,l),
(562,590,o),
(564,599,o),
(564,611,cs),
(564,623,o),
(562,632,o),
(557,642,c),
(240,642,l,{
name = hr00;
}),
(235,632,o),
(233,623,o),
(233,611,cs),
(233,599,o),
(235,590,o),
(240,580,c)
);
},
{
ref = d;
}
);
width = 568;
}
);
unicode = 273;
},
{
glyphname = e;
kernLeft = KO_e;
kernRight = KO_e;
lastChange = "2022-05-19 01:21:39 +0000";
layers = (
{
anchors = (
{
name = bottom;
pos = (264,0);
},
{
name = ogonek;
pos = (435,10);
},
{
name = top;
pos = (282,530);
}
);
layerId = "184835E3-72D9-430C-A639-2454AC4A0BE8";
shapes = (
{
closed = 1;
nodes = (
(389,-9,o),
(460,57,o),
(460,90,cs),
(460,104,o),
(452,131,o),
(440,142,c,{
name = hr00;
}),
(406,117,o),
(368,102,o),
(323,102,cs),
(251,102,o),
(203,142,o),
(199,247,c),
(415,247,ls),
(467,247,o),
(479,291,o),
(479,342,cs),
(479,469,o),
(400,542,o),
(280,542,cs),
(136,542,o),
(29,434,o),
(29,260,cs),
(29,91,o),
(125,-9,o),
(274,-9,cs)
);
},
{
closed = 1;
nodes = (
(202,441,o),
(239,473,o),
(274,473,cs),
(302,473,o),
(326,453,o),
(326,368,cs),
(326,342,o),
(323,323,o),
(300,323,cs),
(199,323,l)
);
}
);
width = 505;
}
);
metricLeft = o;
unicode = 101;
userData = {
KernOnName = e;
};
},
{
glyphname = eogonek;
kernLeft = KO_e;
lastChange = "2022-05-19 01:21:39 +0000";
layers = (
{
layerId = "184835E3-72D9-430C-A639-2454AC4A0BE8";
shapes = (
{
closed = 1;
nodes = (
(347,-228,o),
(388,-213,o),
(405,-196,cs),
(419,-182,o),
(423,-163,o),
(423,-144,cs),
(423,-132,o),
(421,-115,o),
(415,-106,c),
(403,-116,o),
(375,-124,o),
(347,-124,cs),
(316,-124,o),
(284,-114,o),
(284,-85,cs),
(284,-41,o),
(314,-2,o),
(375,13,c),
(363,49,l),
(314,49,o),
(170,5,o),
(170,-115,cs),
(170,-197,o),
(238,-228,o),
(300,-228,cs)
);
},
{
ref = e;
}
);
width = 494;
}
);
unicode = 281;
},
{
glyphname = schwa;
kernLeft = KO_schwa;
kernRight = KO_oacute;
lastChange = "2022-05-19 01:21:39 +0000";
layers = (
{
layerId = "184835E3-72D9-430C-A639-2454AC4A0BE8";
shapes = (
{
closed = 1;
nodes = (
(370,-15,o),
(475,93,o),
(475,266,cs),
(475,436,o),
(381,543,o),
(232,543,cs),
(117,543,o),
(46,476,o),
(46,444,cs),
(46,430,o),
(54,403,o),
(66,391,c,{
name = hr00;
}),
(100,417,o),
(138,432,o),
(183,432,cs),
(255,432,o),
(303,392,o),
(307,280,c),
(93,280,ls),
(41,280,o),
(29,236,o),
(29,185,cs),
(29,58,o),
(106,-15,o),
(226,-15,cs)
);
},
{
closed = 1;
nodes = (
(204,54,o),
(180,74,o),
(180,159,cs),
(180,185,o),
(183,204,o),
(206,204,cs),
(307,204,l),
(304,86,o),
(267,54,o),
(232,54,cs)
);
}
);
width = 504;
}
);
metricLeft = o;
metricRight = o;
unicode = 601;
},
{
glyphname = f;
kernLeft = KO_f;
kernRight = KO_f;
lastChange = "2022-05-19 01:21:39 +0000";
layers = (
{
anchors = (
{
name = bottom;
pos = (180,0);
},
{
name = top;
pos = (55,707);
}
);
layerId = "184835E3-72D9-430C-A639-2454AC4A0BE8";
shapes = (
{
closed = 1;
nodes = (
(319,0,l),
(334,15,o),
(342,33,o),
(342,54,c),
(259,54,o),
(245,73,o),
(245,118,cs),
(245,440,l),
(330,440,l),
(345,463,o),
(347,500,o),
(347,530,c),
(251,530,ls),
(238,530,o),
(218,586,o),
(218,647,cs),
(218,703,o),
(246,756,o),
(279,756,cs,{
name = hr02;
}),
(287,756,o),
(299,751,o),
(303,744,c),
(276,724,o),
(273,702,o),
(273,686,cs),
(273,648,o),
(309,615,o),
(349,615,cs),
(393,615,o),
(421,653,o),
(421,702,cs),
(421,752,o),
(371,822,o),
(275,822,cs),
(155,822,o),
(77,754,o),
(77,615,cs),
(77,581,o),
(80,559,o),
(85,529,c),
(70,518,o),
(55,509,o),
(26,502,c),
(26,440,l,{
name = hr03;
}),
(87,440,l),
(87,109,ls),
(87,70,o),
(72,54,o),
(32,54,c),
(32,33,o),
(40,15,o),
(55,0,c)
);
}
);
width = 360;
}
);
unicode = 102;
userData = {
KernOnName = f;
};
},
{
glyphname = g;
kernLeft = KO_g;
kernRight = KO_g;
lastChange = "2022-05-19 01:21:39 +0000";
layers = (
{
anchors = (
{
name = bottom;
pos = (265,-276);
},
{
name = top;
pos = (265,530);
}
);
layerId = "184835E3-72D9-430C-A639-2454AC4A0BE8";
shapes = (
{
closed = 1;
nodes = (
(396,-223,o),
(526,-143,o),
(526,-38,cs),
(526,61,o),
(439,107,o),
(270,119,cs),
(205,124,o),
(182,135,o),
(182,168,cs),
(182,183,o),
(189,197,o),
(201,206,c),
(174,197,l),
(109,197,o),
(79,154,o),
(79,126,cs),
(79,71,o),
(91,31,o),
(226,8,cs),
(309,-6,o),
(377,-19,o),
(377,-64,cs),
(377,-103,o),
(353,-141,o),
(287,-141,cs),
(198,-141,o),
(168,-97,o),
(168,-41,cs),
(168,-9,o),
(177,34,o),
(218,46,c),
(189,60,l),
(77,54,o),
(17,-1,o),
(17,-67,cs),
(17,-156,o),
(89,-223,o),
(254,-223,cs)
);
},
{
closed = 1;
nodes = (
(221,230,o),
(203,270,o),
(203,343,cs,{
name = hr00;
}),
(203,423,o),
(218,472,o),
(262,472,cs),
(300,472,o),
(322,443,o),
(322,368,cs),
(322,277,o),
(306,230,o),
(262,230,cs)
);
},
{
closed = 1;
nodes = (
(396,164,o),
(486,231,o),
(486,356,cs),
(486,413,o),
(442,487,o),
(354,519,c),
(391,493,l),
(418,486,o),
(480,456,o),
(496,456,cs),
(524,456,o),
(535,475,o),
(535,501,cs),
(535,518,o),
(528,543,o),
(514,543,c),
(478,537,o),
(454,533,o),
(316,533,c),
(295,537,o),
(266,538,o),
(254,538,cs),
(253,538,ls),
(107,538,o),
(32,455,o),
(32,354,cs),
(32,252,o),
(114,164,o),
(245,164,cs)
);
}
);
width = 529;
}
);
unicode = 103;
userData = {
KernOnName = g;
};
},
{
glyphname = h;
kernLeft = KO_h;
kernRight = KO_h;
lastChange = "2022-10-14 14:14:56 +0000";
layers = (
{
anchors = (
{
name = bottom;
pos = (311,0);
},
{
name = center;
pos = (301,411);
},
{
name = top;
pos = (146,788);
}
);
background = {
shapes = (
{
closed = 1;
nodes = (
(534,500,o),
(486,543,o),
(393,543,cs),
(317,543,o),
(260,507,o),
(229,458,c),
(232,400,l),
(249,428,o),
(277,446,o),
(310,446,cs),
(344,446,o),
(372,428,o),
(372,373,cs),
(372,61,ls),
(372,14,o),
(408,-6,o),
(465,-6,cs),
(508,-6,o),
(562,6,o),
(583,27,c),
(582,56,l),
(551,62,o),
(534,81,o),
(534,114,cs),
(534,387,ls,{
name = hr00;
})
);
},
{
closed = 1;
nodes = (
(288,15,o),
(296,32,o),
(296,53,c),
(256,53,o),
(241,69,o),
(241,108,cs),
(241,455,ls),
(241,528,o),
(221,543,o),
(190,543,cs),
(154,543,o),
(57,521,o),
(11,495,c),
(11,450,l),
(62,450,o),
(78,435,o),
(78,400,cs),
(78,108,ls),
(78,69,o),
(62,53,o),
(22,53,c),
(22,32,o),
(31,15,o),
(46,0,c),
(273,0,l)
);
}
);
};
layerId = "184835E3-72D9-430C-A639-2454AC4A0BE8";
shapes = (
{
closed = 1;
nodes = (
(521,-6,o),
(559,5,o),
(583,27,c),
(582,56,l),
(551,62,o),
(534,83,o),
(534,116,cs),
(534,396,ls,{
name = hr00;
}),
(534,493,o),
(486,544,o),
(392,544,cs),
(322,544,o),
(266,509,o),
(232,465,c),
(234,545,l),
(234,742,ls),
(234,775,o),
(221,788,o),
(191,788,cs),
(146,788,o),
(59,766,o),
(10,740,c),
(10,699,l),
(65,699,o),
(77,680,o),
(77,650,cs),
(77,108,ls),
(77,69,o),
(62,54,o),
(22,54,c),
(22,32,o),
(30,15,o),
(45,0,c),
(266,0,l),
(281,15,o),
(289,32,o),
(289,54,c),
(249,54,o),
(234,69,o),
(234,108,cs),
(234,400,l),
(248,428,o),
(282,446,o),
(307,446,cs),
(346,446,o),
(372,422,o),
(372,379,cs),
(372,57,ls),
(372,13,o),
(408,-6,o),
(473,-6,cs)
);
}
);
width = 602;
}
);
metricRight = n;
unicode = 104;
userData = {
KernOnName = h;
};
},
{
glyphname = hbar;
kernLeft = KO_h;
kernRight = KO_hbar;
lastChange = "2022-05-19 01:21:39 +0000";
layers = (
{
anchors = (
{
name = _top;
pos = (179,744);
},
{
name = top;
pos = (179,955);
}
);
layerId = "184835E3-72D9-430C-A639-2454AC4A0BE8";
shapes = (
{
closed = 1;
nodes = (
(337,562,l),
(340,571,o),
(342,584,o),
(342,601,cs),
(342,618,o),
(340,629,o),
(336,640,c),
(23,640,l,{
name = hr00;
}),
(18,631,o),
(16,620,o),
(16,601,cs),
(16,585,o),
(18,573,o),
(22,562,c)
);
},
{
ref = h;
}
);
width = 611;
}
);
unicode = 295;
},
{
glyphname = i;
kernLeft = KO_i;
kernRight = KO_i;
lastChange = "2022-05-19 01:21:39 +0000";
layers = (
{
anchors = (
{
name = bottom;
pos = (156,0);
},
{
name = top;
pos = (155,975);
}
);
background = {
shapes = (
{
closed = 1;
nodes = (
(164,-195,o),
(238,-136,o),
(238,-10,cs),
(238,498,ls),
(238,531,o),
(227,543,o),
(195,543,cs),
(153,543,o),
(62,521,o),
(13,496,c),
(13,451,l),
(67,451,o),
(79,433,o),
(79,402,cs),
(79,-3,ls),
(79,-86,o),
(49,-112,o),
(-3,-112,c),
(-7,-118,o),
(-12,-132,o),
(-12,-141,cs),
(-12,-166,o),
(15,-195,o),
(77,-195,cs)
);
}
);
};
layerId = "184835E3-72D9-430C-A639-2454AC4A0BE8";
shapes = (
{
closed = 1;
nodes = (
(273,0,l),
(288,15,o),
(296,31,o),
(296,54,c),
(257,54,o),
(237,68,o),
(237,108,cs),
(237,497,ls,{
name = hr00;
}),
(237,530,o),
(225,543,o),
(194,543,cs),
(136,543,o),
(44,513,o),
(15,495,c),
(15,451,l),
(69,451,o),
(81,434,o),
(81,399,cs),
(81,109,ls),
(81,69,o),
(63,54,o),
(24,54,c),
(24,31,o),
(32,15,o),
(47,0,c)
);
},
{
closed = 1;
nodes = (
(217,613,o),
(256,650,o),
(256,707,cs),
(256,763,o),
(219,801,o),
(161,801,cs),
(103,801,o),
(65,763,o),
(65,707,cs),
(65,650,o),
(101,613,o),
(159,613,cs)
);
}
);
width = 312;
}
);
unicode = 105;
userData = {
KernOnName = i;
};
},
{
glyphname = idotless;
kernLeft = KO_r;
kernRight = KO_i;
lastChange = "2022-05-19 01:21:39 +0000";
layers = (
{
anchors = (
{
name = bottom;
pos = (156,0);
},
{
name = ogonek;
pos = (281,10);
},
{
name = top;
pos = (156,530);
}
);
layerId = "184835E3-72D9-430C-A639-2454AC4A0BE8";
shapes = (
{
closed = 1;
nodes = (
(273,0,l),
(288,15,o),
(296,31,o),
(296,54,c),
(257,54,o),
(237,68,o),
(237,108,cs),
(237,497,ls,{
name = hr00;
}),
(237,530,o),
(225,543,o),
(194,543,cs),
(137,543,o),
(44,513,o),
(15,495,c),
(15,451,l),
(69,451,o),
(81,434,o),
(81,399,cs),
(81,109,ls),
(81,69,o),
(63,54,o),
(24,54,c),
(24,31,o),
(32,15,o),
(47,0,c)
);
}
);
width = 312;
}
);
metricLeft = i;
metricWidth = i;
unicode = 305;
},
{
glyphname = iogonek;
kernLeft = KO_i;
kernRight = KO_i;
lastChange = "2022-05-19 01:21:39 +0000";
layers = (
{
layerId = "184835E3-72D9-430C-A639-2454AC4A0BE8";
shapes = (
{
closed = 1;
nodes = (
(201,-237,o),
(242,-222,o),
(259,-205,cs),
(273,-191,o),
(277,-172,o),
(277,-153,cs),
(277,-141,o),
(275,-124,o),
(269,-115,c),
(257,-125,o),
(229,-133,o),
(201,-133,cs),
(170,-133,o),
(138,-123,o),
(138,-94,cs),
(138,-50,o),
(168,-11,o),
(229,4,c),
(217,40,l),
(168,40,o),
(24,-4,o),
(24,-124,cs),
(24,-206,o),
(92,-237,o),
(154,-237,cs)
);
},
{
ref = idotless;
},
{
pos = (145,0);
ref = dotaccentcomb;
}
);
width = 312;
}
);
unicode = 303;
},
{
glyphname = j;
kernLeft = KO_j;
kernRight = KO_j;
lastChange = "2022-05-19 01:21:39 +0000";
layers = (
{
anchors = (
{
name = top;
pos = (159,878);
}
);
background = {
shapes = (
{
closed = 1;
nodes = (
(247,530,o),
(233,543,o),
(202,543,cs),
(158,543,o),
(76,522,o),
(27,495,c),
(27,450,l),
(82,450,o),
(85,432,o),
(85,401,cs),
(85,109,ls),
(85,69,o),
(70,54,o),
(31,54,c),
(31,31,o),
(39,15,o),
(54,0,c),
(278,0,l),
(293,15,o),
(301,31,o),
(301,54,c),
(262,54,o),
(247,68,o),
(247,108,cs),
(247,497,ls,{
name = hr00;
})
);
}
);
};
layerId = "184835E3-72D9-430C-A639-2454AC4A0BE8";
shapes = (
{
closed = 1;
nodes = (
(171,-195,o),
(244,-136,o),
(244,-10,cs),
(244,498,ls),
(244,531,o),
(233,543,o),
(201,543,cs),
(159,543,o),
(70,521,o),
(21,496,c),
(21,451,l),
(75,451,o),
(87,433,o),
(87,402,cs),
(87,-3,ls),
(87,-86,o),
(56,-112,o),
(4,-112,c),
(0,-118,o),
(-5,-132,o),
(-5,-141,cs),
(-5,-166,o),
(22,-195,o),
(84,-195,cs)
);
},
{
closed = 1;
nodes = (
(217,613,o),
(256,650,o),
(256,707,cs),
(256,763,o),
(219,801,o),
(161,801,cs),
(103,801,o),
(65,763,o),
(65,707,cs),
(65,650,o),
(101,613,o),
(159,613,cs)
);
}
);
width = 300;
}
);
unicode = 106;
userData = {
KernOnName = j;
};
},
{
glyphname = jdotless;
lastChange = "2022-05-19 01:21:39 +0000";
layers = (
{
anchors = (
{
name = bottom;
pos = (150,-276);
},
{
name = top;
pos = (150,530);
}
);
layerId = "184835E3-72D9-430C-A639-2454AC4A0BE8";
shapes = (
{
closed = 1;
nodes = (
(171,-195,o),
(244,-136,o),
(244,-10,cs),
(244,498,ls),
(244,531,o),
(233,543,o),
(201,543,cs),
(159,543,o),
(70,521,o),
(21,496,c),
(21,451,l),
(75,451,o),
(87,433,o),
(87,402,cs),
(87,-3,ls),
(87,-86,o),
(56,-112,o),
(4,-112,c),
(0,-118,o),
(-5,-132,o),
(-5,-141,cs),
(-5,-166,o),
(22,-195,o),
(84,-195,cs)
);
}
);
width = 300;
}
);
metricLeft = j;
metricWidth = j;
unicode = 567;
},
{
glyphname = k;
kernLeft = KO_k;
kernRight = KO_k;
lastChange = "2022-05-19 01:21:39 +0000";
layers = (
{
anchors = (
{
name = bottom;
pos = (293,0);
},
{
name = top;
pos = (295,972);
}
);
layerId = "184835E3-72D9-430C-A639-2454AC4A0BE8";
shapes = (
{
closed = 1;
nodes = (
(542,-10,o),
(579,6,o),
(583,34,c),
(582,58,l),
(530,76,o),
(521,107,o),
(459,217,cs),
(419,288,o),
(375,302,o),
(288,303,c),
(293,242,l),
(502,448,ls),
(516,461,o),
(531,475,o),
(567,475,c),
(567,497,o),
(564,520,o),
(548,536,c),
(323,536,l),
(308,520,o),
(300,497,o),
(300,475,c),
(326,475,o),
(363,456,o),
(363,437,cs),
(363,428,o),
(352,415,o),
(344,407,cs),
(234,293,l),
(234,738,ls),
(234,772,o),
(221,785,o),
(189,785,cs),
(147,785,o),
(59,762,o),
(10,736,c),
(10,696,l),
(65,696,o),
(77,677,o),
(77,646,cs),
(77,104,ls),
(77,65,o),
(62,50,o),
(22,50,c),
(22,28,o),
(30,11,o),
(46,-3,c),
(266,-3,l),
(281,11,o),
(290,28,o),
(290,50,c),
(249,50,o),
(234,65,o),
(234,104,cs),
(234,257,l),
(273,242,o),
(293,196,o),
(315,146,cs),
(347,72,o),
(383,-10,o),
(493,-10,cs)
);
}
);
width = 585;
}
);
metricLeft = h;
unicode = 107;
userData = {
KernOnName = k;
};
},
{
glyphname = kgreenlandic;
kernLeft = KO_n;
kernRight = KO_eacute;
lastChange = "2022-05-19 01:21:39 +0000";
layers = (
{
layerId = "184835E3-72D9-430C-A639-2454AC4A0BE8";
shapes = (
{
closed = 1;
nodes = (
(282,0,l),
(297,15,o),
(305,36,o),
(305,58,c),
(265,58,o),
(250,73,o),
(250,112,cs),
(250,494,ls),
(250,527,o),
(237,540,o),
(205,540,cs),
(163,540,o),
(68,518,o),
(20,492,c),
(20,451,l),
(75,451,o),
(87,432,o),
(87,401,cs),
(87,113,ls),
(87,73,o),
(72,58,o),
(31,58,c),
(31,36,o),
(40,15,o),
(55,0,c)
);
},
{
closed = 1;
nodes = (
(556,-13,o),
(602,2,o),
(606,31,c),
(606,59,l),
(554,78,o),
(541,98,o),
(472,204,cs),
(428,272,o),
(389,289,o),
(304,289,c),
(243,254,l,{
name = hr00;
}),
(350,219,o),
(319,-13,o),
(507,-13,cs)
);
},
{
closed = 1;
nodes = (
(350,278,l),
(518,441,ls),
(531,453,o),
(544,469,o),
(577,469,c),
(577,490,o),
(573,514,o),
(558,529,c),
(355,529,l),
(339,514,o),
(332,490,o),
(332,469,c),
(358,469,o),
(376,450,o),
(376,430,cs),
(376,420,o),
(371,410,o),
(362,401,cs),
(247,288,l),
(247,255,l)
);
}
);
width = 608;
}
);
metricLeft = n;
unicode = 312;
},
{
glyphname = l;
kernLeft = KO_l;
kernRight = KO_l;
lastChange = "2022-05-19 01:21:39 +0000";
layers = (
{
anchors = (
{
name = bottom;
pos = (160,0);
},
{
name = car;
pos = (323,712);
},
{
name = center;
pos = (160,411);
},
{
name = top;
pos = (159,1003);
},
{
name = topright;
pos = (299,822);
}
);
layerId = "184835E3-72D9-430C-A639-2454AC4A0BE8";
shapes = (
{
closed = 1;
nodes = (
(271,0,l),
(286,16,o),
(295,32,o),
(295,54,c),
(255,54,o),
(240,68,o),
(240,109,cs),
(240,733,ls),
(240,766,o),
(227,778,o),
(196,778,cs),
(152,778,o),
(66,757,o),
(16,730,c),
(16,690,l),
(72,690,o),
(84,670,o),
(84,640,cs),
(84,109,ls,{
name = hr00;
}),
(84,69,o),
(68,54,o),
(29,54,c),
(29,32,o),
(37,16,o),
(52,0,c)
);
}
);
width = 319;
}
);
unicode = 108;
userData = {
KernOnName = l;
};
},
{
glyphname = lslash;
kernLeft = KO_lslash;
kernRight = KO_lslash;
lastChange = "2022-05-19 01:21:39 +0000";
layers = (
{
background = {
shapes = (
{
closed = 1;
nodes = (
(427,247,o),
(435,234,o),
(444,224,cs),
(452,215,o),
(463,205,o),
(473,201,c),
(807,481,l),
(805,492,o),
(797,505,o),
(789,514,cs),
(781,523,o),
(769,534,o),
(759,538,c),
(425,258,l)
);
},
{
closed = 1;
nodes = (
(56,200,l),
(396,486,l),
(344,540,l),
(3,255,l)
);
},
{
closed = 1;
nodes = (
(11,248,o),
(19,235,o),
(28,225,cs),
(36,216,o),
(47,206,o),
(57,202,c),
(391,482,l),
(389,493,o),
(381,506,o),
(373,515,cs),
(365,524,o),
(353,535,o),
(343,539,c),
(9,259,l)
);
},
{
closed = 1;
nodes = (
(11,246,o),
(19,233,o),
(29,223,cs),
(38,214,o),
(49,207,o),
(59,204,c),
(391,482,l),
(388,493,o),
(379,505,o),
(371,514,cs),
(363,523,o),
(349,532,o),
(339,535,c),
(8,258,l)
);
}
);
};
layerId = "184835E3-72D9-430C-A639-2454AC4A0BE8";
shapes = (
{
closed = 1;
nodes = (
(391,482,l),
(388,493,o),
(379,505,o),
(371,514,cs),
(363,523,o),
(349,532,o),
(339,535,c),
(8,258,l),
(11,246,o),
(19,233,o),
(29,223,cs),
(38,214,o),
(49,207,o),
(59,204,c)
);
},
{
pos = (30,0);
ref = l;
}
);
width = 399;
}
);
unicode = 322;
},
{
glyphname = m;
kernLeft = KO_n;
kernRight = KO_m;
lastChange = "2022-05-19 01:21:39 +0000";
layers = (
{
anchors = (
{
name = bottom;
pos = (453,0);
},
{
name = top;
pos = (453,530);
}
);
hints = (
{
origin = (0,29);
target = (0,44);
type = Stem;
},
{
origin = (0,51);
target = (0,64);
type = Stem;
},
{
origin = (0,74);
target = (0,7);
type = Stem;
}
);
layerId = "184835E3-72D9-430C-A639-2454AC4A0BE8";
shapes = (
{
closed = 1;
nodes = (
(826,-6,o),
(863,6,o),
(887,27,c),
(887,56,l),
(856,62,o),
(838,77,o),
(838,108,cs),
(838,407,ls,{
name = hr01;
}),
(838,496,o),
(791,544,o),
(695,544,cs),
(627,544,o),
(569,519,o),
(535,477,c),
(515,521,o),
(471,544,o),
(405,544,cs),
(338,544,o),
(284,519,o),
(250,480,c),
(245,532,o),
(226,544,o),
(199,544,cs),
(163,544,o),
(66,522,o),
(20,495,c),
(20,451,l),
(71,451,o),
(87,436,o),
(87,401,cs),
(87,108,ls),
(87,69,o),
(71,54,o),
(31,54,c),
(31,32,o),
(40,15,o),
(55,0,c),
(272,0,l),
(288,15,o),
(296,32,o),
(296,54,c),
(263,54,o),
(250,69,o),
(250,108,cs),
(250,411,l),
(268,433,o),
(297,446,o),
(323,446,cs),
(358,446,o),
(386,422,o),
(386,379,cs),
(386,108,ls),
(386,69,o),
(373,54,o),
(339,54,c,{
name = hr03;
}),
(339,32,o),
(348,15,o),
(362,0,c),
(575,0,l),
(590,15,o),
(599,32,o),
(599,54,c),
(564,54,o),
(549,69,o),
(549,108,cs),
(549,407,ls),
(549,412,o),
(549,417,o),
(548,422,c),
(565,438,o),
(588,446,o),
(610,446,cs,{
name = hr02;
}),
(648,446,o),
(674,422,o),
(674,379,cs),
(674,46,ls),
(674,4,o),
(715,-6,o),
(764,-6,cs)
);
}
);
width = 906;
}
);
metricLeft = n;
metricRight = n;
unicode = 109;
},
{
glyphname = n;
kernLeft = KO_n;
kernRight = KO_n;
lastChange = "2022-10-14 14:04:50 +0000";
layers = (
{
anchors = (
{
name = bottom;
pos = (306,0);
},
{
name = top;
pos = (316,543);
}
);
layerId = "184835E3-72D9-430C-A639-2454AC4A0BE8";
shapes = (
{
closed = 1;
nodes = (
(508,-6,o),
(571,6,o),
(592,27,c),
(591,56,l),
(560,62,o),
(543,81,o),
(543,114,cs),
(543,387,ls,{
name = hr00;
}),
(543,500,o),
(495,543,o),
(402,543,cs),
(326,543,o),
(269,507,o),
(238,458,c),
(241,400,l),
(258,428,o),
(286,446,o),
(319,446,cs),
(353,446,o),
(381,428,o),
(381,373,cs),
(381,61,ls),
(381,14,o),
(408,-6,o),
(465,-6,cs)
);
},
{
closed = 1;
nodes = (
(282,0,l),
(297,15,o),
(305,32,o),
(305,53,c),
(265,53,o),
(250,69,o),
(250,108,cs),
(250,455,ls),
(250,528,o),
(230,543,o),
(199,543,cs),
(163,543,o),
(66,521,o),
(20,495,c),
(20,450,l),
(71,450,o),
(87,435,o),
(87,400,cs),
(87,108,ls),
(87,69,o),
(71,53,o),
(31,53,c),
(31,32,o),
(40,15,o),
(55,0,c)
);
}
);
width = 611;
}
);
unicode = 110;
userData = {
KernOnName = n;
};
},
{
glyphname = eng;
kernLeft = KO_n;
kernRight = KO_eng;
lastChange = "2022-05-19 01:21:39 +0000";
layers = (
{
layerId = "184835E3-72D9-430C-A639-2454AC4A0BE8";
shapes = (
{
closed = 1;
nodes = (
(467,-196,o),
(544,-137,o),
(544,-9,cs),
(543,408,ls),
(543,496,o),
(496,544,o),
(402,544,cs),
(327,544,o),
(270,514,o),
(238,464,c),
(240,401,l),
(257,427,o),
(286,446,o),
(320,446,cs),
(353,446,o),
(379,422,o),
(379,379,cs),
(380,-2,ls),
(380,-85,o),
(351,-112,o),
(299,-112,c),
(293,-119,o),
(290,-133,o),
(290,-142,cs),
(290,-166,o),
(317,-196,o),
(379,-196,cs)
);
},
{
closed = 1;
nodes = (
(282,0,l,{
name = hr00;
}),
(297,15,o),
(305,37,o),
(305,58,c),
(266,58,o),
(250,73,o),
(250,113,cs),
(250,455,ls),
(250,528,o),
(231,544,o),
(199,544,cs),
(163,544,o),
(67,522,o),
(20,496,c),
(20,451,l),
(71,451,o),
(87,436,o),
(87,401,cs),
(87,113,ls),
(87,74,o),
(71,58,o),
(32,58,c),
(32,37,o),
(40,15,o),
(55,0,c)
);
}
);
width = 561;
}
);
metricLeft = n;
unicode = 331;
},
{
glyphname = o;
kernLeft = KO_o;
kernRight = KO_o;
lastChange = "2022-05-19 01:21:39 +0000";
layers = (
{
anchors = (
{
name = bottom;
pos = (276,0);
},
{
name = center;
pos = (276,265);
},
{
name = ogonek;
pos = (438,10);
},
{
name = top;
pos = (276,530);
},
{
name = topright;
pos = (343,530);
}
);
layerId = "184835E3-72D9-430C-A639-2454AC4A0BE8";
shapes = (
{
closed = 1;
nodes = (
(419,-13,o),
(523,84,o),
(523,271,cs),
(523,448,o),
(424,543,o),
(281,543,cs),
(132,543,o),
(29,443,o),
(29,255,cs),
(29,79,o),
(128,-13,o),
(271,-13,cs)
);
},
{
closed = 1;
nodes = (
(233,59,o),
(203,96,o),
(203,282,cs,{
name = hr00;
}),
(203,438,o),
(230,472,o),
(273,472,cs),
(319,472,o),
(348,435,o),
(348,247,cs),
(348,93,o),
(321,59,o),
(279,59,cs)
);
}
);
width = 552;
}
);
unicode = 111;
userData = {
KernOnName = o;
};
},
{
glyphname = ohorn;
kernLeft = KO_o;
kernRight = KO_ohorn;
lastChange = "2022-05-19 01:21:39 +0000";
layers = (
{
layerId = "184835E3-72D9-430C-A639-2454AC4A0BE8";
shapes = (
{
closed = 1;
nodes = (
(455,470,ls,{
name = hr01;
}),
(497,470,o),
(558,494,o),
(558,563,cs),
(558,597,o),
(550,620,o),
(522,642,c),
(461,642,l),
(475,553,o),
(438,539,o),
(391,539,c),
(310,540,l),
(398,470,l)
);
},
{
ref = o;
}
);
width = 548;
}
);
unicode = 417;
},
{
glyphname = oogonek;
kernLeft = KO_o;
lastChange = "2022-05-19 01:21:39 +0000";
layers = (
{
layerId = "184835E3-72D9-430C-A639-2454AC4A0BE8";
shapes = (
{
closed = 1;
nodes = (
(343,-235,o),
(384,-220,o),
(401,-203,cs),
(415,-189,o),
(419,-170,o),
(419,-151,cs),
(419,-139,o),
(417,-122,o),
(411,-113,c),
(399,-123,o),
(371,-131,o),
(343,-131,cs),
(312,-131,o),
(280,-121,o),
(280,-92,cs),
(280,-48,o),
(310,-9,o),
(371,6,c),
(359,42,l),
(310,42,o),
(166,-2,o),
(166,-122,cs),
(166,-204,o),
(234,-235,o),
(296,-235,cs)
);
},
{
ref = o;
}
);
width = 548;
}
);
unicode = 491;
},
{
glyphname = oslash;
kernLeft = KO_oe;
kernRight = KO_oslash;
lastChange = "2022-05-19 01:21:39 +0000";
layers = (
{
anchors = (
{
name = _vslash;
pos = (30,224);
},
{
name = bottom;
pos = (276,0);
},
{
name = center;
pos = (276,265);
},
{
name = ogonek;
pos = (438,10);
},
{
name = top;
pos = (276,530);
},
{
name = topright;
pos = (343,530);
}
);
background = {
shapes = (
{
closed = 1;
nodes = (
(108,-16,l),
(183,85,l),
(204,113,l),
(374,376,l),
(408,407,l),
(513,546,l),
(438,546,l),
(374,458,l),
(346,426,l),
(170,153,l),
(135,120,l),
(34,-16,l)
);
}
);
};
layerId = "184835E3-72D9-430C-A639-2454AC4A0BE8";
shapes = (
{
closed = 1;
nodes = (
(419,-13,o),
(523,84,o),
(523,271,cs),
(523,448,o),
(424,543,o),
(281,543,cs),
(132,543,o),
(29,443,o),
(29,255,cs),
(29,79,o),
(128,-13,o),
(271,-13,cs)
);
},
{
closed = 1;
nodes = (
(183,85,l),
(204,113,l),
(374,376,l),
(408,407,l),
(496,524,l),
(492,532,o),
(486,541,o),
(475,549,cs),
(467,555,o),
(456,559,o),
(448,561,c),
(374,458,l),
(346,426,l),
(170,153,l),
(135,120,l),
(50,7,l),
(53,-1,o),
(56,-7,o),
(64,-14,cs),
(75,-23,o),
(86,-28,o),
(96,-29,c)
);
},
{
closed = 1;
nodes = (
(233,59,o),
(203,96,o),
(203,282,cs,{
name = hr00;
}),
(203,438,o),
(230,472,o),
(273,472,cs),
(319,472,o),
(348,435,o),
(348,247,cs),
(348,93,o),
(321,59,o),
(279,59,cs)
);
}
);
width = 552;
}
);
metricLeft = o;
metricRight = o;
unicode = 248;
},
{
glyphname = oe;
kernLeft = KO_oe;
kernRight = KO_ae;
lastChange = "2022-05-19 01:21:39 +0000";
layers = (
{
anchors = (
{
name = top;
pos = (412,970);
}
);
layerId = "184835E3-72D9-430C-A639-2454AC4A0BE8";
shapes = (
{
closed = 1;
nodes = (
(410,-15,o),
(495,84,o),
(495,271,cs),
(495,448,o),
(425,543,o),
(282,543,cs),
(132,543,o),
(29,443,o),
(29,255,cs),
(29,79,o),
(128,-15,o),
(271,-15,cs)
);
},
{
closed = 1;
nodes = (
(234,57,o),
(205,94,o),
(205,282,cs,{
name = hr00;
}),
(205,438,o),
(231,472,o),
(273,472,cs),
(319,472,o),
(348,435,o),
(348,247,cs),
(348,91,o),
(322,57,o),
(280,57,cs)
);
},
{
closed = 1;
nodes = (
(714,-15,o),
(784,51,o),
(784,84,cs),
(784,98,o),
(776,125,o),
(765,136,c,{
name = hr00;
}),
(730,111,o),
(693,96,o),
(648,96,cs),
(573,96,o),
(522,140,o),
(522,265,cs),
(522,307,ls),
(522,439,o),
(559,474,o),
(596,474,cs),
(625,474,o),
(650,454,o),
(650,369,cs),
(650,343,o),
(647,324,o),
(624,324,cs),
(469,324,l),
(466,248,l),
(733,248,ls),
(786,248,o),
(798,292,o),
(798,343,cs),
(798,470,o),
(725,543,o),
(606,543,cs),
(461,543,o),
(355,436,o),
(355,261,cs),
(355,92,o),
(450,-15,o),
(599,-15,cs)
);
}
);
width = 824;
}
);
metricLeft = o;
metricRight = e;
unicode = 339;
},
{
glyphname = p;
kernLeft = KO_p;
kernRight = KO_p;
lastChange = "2022-05-19 01:21:39 +0000";
layers = (
{
anchors = (
{
name = bottom;
pos = (284,0);
},
{
name = top;
pos = (284,530);
}
);
layerId = "184835E3-72D9-430C-A639-2454AC4A0BE8";
shapes = (
{
closed = 1;
nodes = (
(271,-190,l),
(286,-175,o),
(294,-159,o),
(294,-137,c),
(264,-137,o),
(230,-121,o),
(230,-82,cs),
(230,-9,l),
(245,-10,o),
(258,-11,o),
(269,-11,cs),
(418,-11,o),
(540,99,o),
(540,290,cs),
(540,459,o),
(444,540,o),
(338,540,cs),
(291,540,o),
(247,529,o),
(217,500,c),
(209,532,o),
(190,540,o),
(164,540,cs),
(129,540,o),
(50,518,o),
(6,492,c),
(6,447,l),
(57,447,o),
(73,432,o),
(73,397,cs),
(73,-82,ls),
(73,-121,o),
(66,-137,o),
(26,-137,c),
(26,-159,o),
(35,-175,o),
(50,-190,c)
);
},
{
closed = 1;
nodes = (
(254,62,o),
(242,65,o),
(230,72,c),
(230,445,l),
(238,449,o),
(248,451,o),
(258,451,cs),
(318,451,o),
(367,404,o),
(367,266,cs),
(367,122,o),
(322,62,o),
(268,62,cs)
);
}
);
width = 568;
}
);
metricLeft = b;
metricRight = b;
unicode = 112;
userData = {
KernOnName = p;
};
},
{
glyphname = thorn;
kernLeft = KO_b;
kernRight = KO_b;
lastChange = "2022-05-19 01:21:39 +0000";
layers = (
{
anchors = (
{
name = top;
pos = (462,664);
}
);
layerId = "184835E3-72D9-430C-A639-2454AC4A0BE8";
shapes = (
{
closed = 1;
nodes = (
(267,-190,l),
(282,-175,o),
(290,-159,o),
(290,-137,c),
(260,-137,o),
(220,-121,o),
(220,-82,cs),
(220,-4,l),
(233,-7,o),
(253,-8,o),
(268,-8,cs),
(417,-8,o),
(541,91,o),
(541,283,cs),
(541,458,o),
(440,540,o),
(330,540,cs),
(284,540,o),
(244,529,o),
(217,501,c),
(220,596,l),
(220,738,ls),
(220,771,o),
(208,784,o),
(176,784,cs),
(133,784,o),
(51,758,o),
(6,727,c),
(6,695,l),
(50,695,o),
(67,676,o),
(67,646,cs),
(67,-82,l),
(67,-121,o),
(62,-137,o),
(22,-137,c),
(22,-159,o),
(31,-175,o),
(46,-190,c)
);
},
{
closed = 1;
nodes = (
(252,65,o),
(233,71,o),
(220,84,c),
(220,444,l),
(230,451,o),
(246,455,o),
(261,455,cs),
(322,455,o),
(369,395,o),
(369,249,cs),
(369,106,o),
(325,65,o),
(271,65,cs)
);
}
);
width = 569;
}
);
metricLeft = b;
metricRight = b;
unicode = 254;
},
{
glyphname = q;
kernLeft = KO_d;
kernRight = KO_q;
lastChange = "2022-05-19 01:21:39 +0000";
layers = (
{
anchors = (
{
name = bottom;
pos = (281,0);
},
{
name = top;
pos = (289,863);
}
);
layerId = "184835E3-72D9-430C-A639-2454AC4A0BE8";
shapes = (
{
closed = 1;
nodes = (
(492,-218,o),
(527,-206,o),
(551,-184,c),
(551,-157,l),
(520,-150,o),
(502,-135,o),
(502,-103,cs),
(502,409,ls,{
name = hr00;
}),
(502,449,o),
(504,465,o),
(544,465,c),
(544,487,o),
(536,510,o),
(520,525,c),
(457,525,ls),
(441,525,o),
(428,523,o),
(414,520,c),
(377,532,o),
(336,540,o),
(296,540,cs),
(147,540,o),
(28,430,o),
(28,239,cs),
(28,68,o),
(128,-13,o),
(238,-13,cs),
(281,-13,o),
(317,-2,o),
(343,24,c),
(343,-166,ls),
(343,-208,o),
(381,-218,o),
(430,-218,cs)
);
},
{
closed = 1;
nodes = (
(247,74,o),
(200,135,o),
(200,273,cs),
(200,420,o),
(243,468,o),
(297,468,cs),
(314,468,o),
(330,464,o),
(343,455,c),
(343,83,l),
(334,78,o),
(322,74,o),
(307,74,cs)
);
}
);
width = 561;
}
);
metricLeft = d;
metricRight = d;
unicode = 113;
userData = {
KernOnName = q;
};
},
{
glyphname = r;
kernLeft = KO_r;
kernRight = KO_r;
lastChange = "2022-05-19 01:21:39 +0000";
layers = (
{
anchors = (
{
name = bottom;
pos = (165,0);
},
{
name = top;
pos = (225,530);
}
);
layerId = "184835E3-72D9-430C-A639-2454AC4A0BE8";
shapes = (
{
closed = 1;
nodes = (
(317,0,l),
(332,15,o),
(336,31,o),
(336,54,c),
(254,54,o),
(240,72,o),
(240,118,cs),
(240,418,l),
(260,436,o),
(280,444,o),
(301,449,c),
(299,443,o),
(298,435,o),
(298,424,cs),
(298,391,o),
(326,360,o),
(372,360,cs),
(424,360,o),
(455,400,o),
(455,457,cs),
(455,508,o),
(430,543,o),
(368,543,cs),
(310,543,o),
(253,497,o),
(231,455,c),
(231,525,o),
(218,540,o),
(187,540,cs),
(150,540,o),
(62,519,o),
(15,492,c),
(15,447,l),
(66,447,o),
(81,433,o),
(81,398,cs),
(81,109,ls),
(81,69,o),
(66,54,o),
(27,54,c),
(27,31,o),
(35,15,o),
(50,0,c)
);
}
);
width = 450;
}
);
unicode = 114;
userData = {
KernOnName = r;
};
},
{
glyphname = s;
kernLeft = KO_s;
kernRight = KO_s;
lastChange = "2022-05-19 01:21:39 +0000";
layers = (
{
anchors = (
{
name = bottom;
pos = (238,0);
},
{
name = top;
pos = (242,530);
}
);
layerId = "184835E3-72D9-430C-A639-2454AC4A0BE8";
shapes = (
{
closed = 1;
nodes = (
(343,-10,o),
(452,31,o),
(452,143,cs),
(452,246,o),
(369,286,o),
(296,324,cs),
(242,352,o),
(191,377,o),
(191,423,cs),
(191,452,o),
(215,476,o),
(259,476,cs),
(285,476,o),
(304,472,o),
(319,460,c),
(309,448,o),
(304,427,o),
(304,411,cs),
(304,377,o),
(333,355,o),
(367,355,cs),
(404,355,o),
(434,382,o),
(434,423,cs),
(434,480,o),
(382,540,o),
(242,540,cs),
(107,540,o),
(31,476,o),
(31,388,cs),
(31,283,o),
(116,243,o),
(190,203,cs),
(244,174,o),
(295,148,o),
(295,108,cs),
(295,82,o),
(268,63,o),
(222,63,cs),
(192,63,o),
(157,68,o),
(145,80,c),
(156,94,o),
(161,105,o),
(161,123,cs),
(161,162,o),
(131,188,o),
(94,188,cs),
(53,188,o),
(23,157,o),
(23,110,cs),
(23,33,o),
(136,-10,o),
(231,-10,cs,{
name = hr00;
})
);
}
);
width = 475;
}
);
unicode = 115;
userData = {
KernOnName = s;
};
},
{
glyphname = saltillo;
kernLeft = KO_F;
kernRight = KO_l;
lastChange = "2022-05-19 01:21:39 +0000";
layers = (
{
anchors = (
{
name = bottom;
pos = (160,0);
}
);
layerId = "184835E3-72D9-430C-A639-2454AC4A0BE8";
shapes = (
{
closed = 1;
nodes = (
(240,224,l),
(240,733,ls),
(240,766,o),
(227,778,o),
(196,778,cs),
(152,778,o),
(66,757,o),
(16,730,c),
(16,690,l),
(72,690,o),
(84,670,o),
(84,640,cs),
(84,224,l)
);
}
);
width = 319;
}
);
unicode = 42892;
},
{
glyphname = germandbls;
kernLeft = KO_r;
kernRight = KO_germandbls;
lastChange = "2022-05-19 01:21:39 +0000";
layers = (
{
anchors = (
{
name = top;
pos = (327,970);
}
);
layerId = "184835E3-72D9-430C-A639-2454AC4A0BE8";
shapes = (
{
closed = 1;
nodes = (
(543,-15,o),
(639,26,o),
(639,151,cs),
(639,253,o),
(593,301,o),
(551,344,cs),
(517,379,o),
(486,412,o),
(486,469,cs),
(486,495,o),
(497,514,o),
(511,535,cs),
(528,561,o),
(545,595,o),
(545,636,cs,{
name = hr04;
}),
(545,738,o),
(471,782,o),
(355,782,cs),
(221,782,o),
(110,695,o),
(93,532,c),
(74,518,o),
(52,505,o),
(20,496,c),
(20,434,l),
(81,434,l),
(81,108,ls),
(81,68,o),
(65,53,o),
(26,53,c),
(26,31,o),
(34,10,o),
(50,-5,c),
(243,-5,l),
(243,592,ls),
(243,682,o),
(300,711,o),
(338,711,cs),
(380,711,o),
(407,684,o),
(407,645,cs,{
name = hr02;
}),
(407,603,o),
(393,571,o),
(377,549,cs),
(351,514,o),
(328,482,o),
(328,426,cs),
(328,332,o),
(376,282,o),
(421,237,cs),
(459,199,o),
(494,162,o),
(494,103,cs,{
name = hr03;
}),
(494,72,o),
(478,54,o),
(444,54,cs),
(422,54,o),
(407,62,o),
(397,73,c),
(407,84,o),
(414,101,o),
(414,119,cs),
(414,155,o),
(390,181,o),
(358,181,cs),
(315,181,o),
(288,146,o),
(288,103,cs),
(288,42,o),
(341,-15,o),
(447,-15,cs)
);
}
);
width = 657;
}
);
metricLeft = n;
unicode = 223;
},
{
glyphname = t;
kernLeft = KO_t;
kernRight = KO_t;
lastChange = "2022-05-19 01:22:31 +0000";
layers = (
{
anchors = (
{
name = bottom;
pos = (208,0);
},
{
name = center;
pos = (158,301);
},
{
name = top;
pos = (158,668);
},
{
name = topright;
pos = (263,822);
}
);
layerId = "184835E3-72D9-430C-A639-2454AC4A0BE8";
shapes = (
{
closed = 1;
nodes = (
(324,-7,o),
(369,44,o),
(369,88,cs),
(369,100,o),
(365,129,o),
(350,141,c),
(334,122,o),
(303,106,o),
(277,106,cs),
(250,106,o),
(231,116,o),
(231,159,cs),
(231,441,l),
(329,441,l,{
name = hr00;
}),
(344,465,o),
(345,498,o),
(345,530,c),
(229,530,l),
(229,635,ls),
(229,662,o),
(211,701,o),
(158,701,cs),
(148,701,o),
(137,700,o),
(125,698,c),
(115,609,o),
(63,510,o),
(10,502,c),
(10,441,l),
(73,441,l),
(73,166,ls),
(73,33,o),
(144,-7,o),
(228,-7,cs)
);
}
);
width = 377;
}
);
unicode = 116;
userData = {
KernOnName = t;
com.typemytype.robofont.guides = (
{
angle = 0;
isGlobal = 0;
magnetic = 5;
x = 0;
y = -31;
}
);
};
},
{
glyphname = tbar;
kernLeft = KO_a;
kernRight = KO_t;
lastChange = "2022-05-19 01:21:39 +0000";
layers = (
{
guides = (
{
angle = 270;
pos = (350,389);
}
);
layerId = "184835E3-72D9-430C-A639-2454AC4A0BE8";
shapes = (
{
closed = 1;
nodes = (
(336,254,l),
(348,273,o),
(350,318,o),
(350,344,c),
(17,344,l,{
name = hr00;
}),
(12,335,o),
(10,317,o),
(10,298,cs),
(10,282,o),
(12,265,o),
(17,254,c)
);
},
{
ref = t;
}
);
width = 377;
}
);
metricLeft = t;
metricRight = t;
unicode = 359;
},
{
glyphname = u;
kernLeft = KO_u;
kernRight = KO_u;
lastChange = "2022-05-19 01:21:39 +0000";
layers = (
{
anchors = (
{
name = bottom;
pos = (286,0);
},
{
name = ogonek;
pos = (562,10);
},
{
name = top;
pos = (286,530);
},
{
name = topright;
pos = (401,530);
}
);
layerId = "184835E3-72D9-430C-A639-2454AC4A0BE8";
shapes = (
{
closed = 1;
nodes = (
(278,-7,o),
(328,20,o),
(360,72,c),
(358,144,l),
(342,115,o),
(310,87,o),
(276,87,cs,{
name = hr02;
}),
(243,87,o),
(231,109,o),
(231,149,cs),
(231,485,ls),
(231,532,o),
(219,538,o),
(167,538,cs),
(97,538,o),
(36,516,o),
(19,502,c),
(19,458,l),
(50,458,o),
(68,450,o),
(68,427,c),
(68,152,l),
(68,55,o),
(122,-7,o),
(216,-7,cs)
);
},
{
closed = 1;
nodes = (
(486,-7,o),
(538,6,o),
(560,31,c),
(560,59,l),
(529,62,o),
(512,85,o),
(512,117,cs),
(512,485,ls),
(512,532,o),
(497,538,o),
(445,538,cs),
(370,538,o),
(311,516,o),
(293,502,c),
(293,458,l),
(328,458,o),
(349,450,o),
(349,427,c),
(349,94,ls,{
name = hr01;
}),
(349,29,o),
(389,-7,o),
(443,-7,cs)
);
}
);
width = 572;
}
);
unicode = 117;
userData = {
KernOnName = u;
};
},
{
glyphname = uhorn;
kernLeft = KO_u;
kernRight = KO_uhorn;
lastChange = "2022-05-19 01:21:39 +0000";
layers = (
{
layerId = "184835E3-72D9-430C-A639-2454AC4A0BE8";
shapes = (
{
closed = 1;
nodes = (
(491,470,ls,{
name = hr01;
}),
(533,471,o),
(594,494,o),
(594,563,cs),
(594,597,o),
(586,620,o),
(558,642,c),
(497,642,l),
(511,553,o),
(481,538,o),
(434,538,c),
(434,469,l)
);
},
{
ref = u;
}
);
width = 574;
}
);
unicode = 432;
},
{
glyphname = uogonek;
kernLeft = KO_u;
lastChange = "2022-05-19 01:21:39 +0000";
layers = (
{
layerId = "184835E3-72D9-430C-A639-2454AC4A0BE8";
shapes = (
{
closed = 1;
nodes = (
(481,-239,o),
(522,-224,o),
(539,-207,cs),
(553,-193,o),
(557,-174,o),
(557,-155,cs),
(557,-143,o),
(555,-126,o),
(549,-117,c),
(537,-127,o),
(509,-135,o),
(481,-135,cs),
(450,-135,o),
(418,-125,o),
(418,-96,cs),
(418,-52,o),
(448,-13,o),
(509,2,c),
(497,38,l),
(448,38,o),
(304,-6,o),
(304,-126,cs),
(304,-208,o),
(372,-239,o),
(434,-239,cs)
);
},
{
ref = u;
}
);
width = 574;
}
);
unicode = 371;
},
{
glyphname = v;
kernLeft = KO_v;
kernRight = KO_v;
lastChange = "2022-05-19 01:21:39 +0000";
layers = (
{
anchors = (
{
name = bottom;
pos = (264,0);
},
{
name = top;
pos = (261,973);
}
);
layerId = "184835E3-72D9-430C-A639-2454AC4A0BE8";
shapes = (
{
closed = 1;
nodes = (
(291,-7,ls),
(351,-7,o),
(372,26,o),
(393,100,c),
(497,419,ls),
(509,455,o),
(522,471,o),
(557,471,c),
(557,492,o),
(552,516,o),
(537,531,c),
(343,531,l),
(328,516,o),
(324,492,o),
(324,471,c),
(356,471,o),
(376,457,o),
(376,429,cs),
(376,422,o),
(374,413,o),
(372,405,cs),
(333,269,l),
(287,94,l),
(241,269,l),
(200,405,ls,{
name = hr00;
}),
(198,412,o),
(196,420,o),
(196,426,cs),
(196,457,o),
(216,471,o),
(243,471,c),
(243,492,o),
(235,516,o),
(220,531,c),
(-8,531,l),
(-23,516,o),
(-29,492,o),
(-29,471,c),
(6,471,o),
(16,455,o),
(29,419,cs),
(187,-7,l)
);
}
);
width = 528;
}
);
unicode = 118;
userData = {
KernOnName = v;
};
},
{
glyphname = vturned;
kernLeft = KO_Delta;
lastChange = "2022-05-19 01:21:39 +0000";
layers = (
{
layerId = "184835E3-72D9-430C-A639-2454AC4A0BE8";
shapes = (
{
closed = 1;
nodes = (
(185,-1,l),
(200,14,o),
(204,38,o),
(204,59,c),
(172,59,o),
(152,73,o),
(152,101,cs),
(152,108,o),
(154,117,o),
(156,125,cs),
(195,261,l),
(241,436,l),
(287,261,l),
(328,125,ls,{
name = hr00;
}),
(330,118,o),
(332,110,o),
(332,104,cs),
(332,73,o),
(312,59,o),
(285,59,c),
(285,38,o),
(293,14,o),
(308,-1,c),
(536,-1,l),
(551,14,o),
(557,38,o),
(557,59,c),
(522,59,o),
(512,75,o),
(499,111,cs),
(341,537,l),
(237,537,ls),
(177,537,o),
(156,504,o),
(135,430,c),
(31,111,ls),
(19,75,o),
(6,59,o),
(-29,59,c),
(-29,38,o),
(-24,14,o),
(-9,-1,c)
);
}
);
width = 528;
}
);
unicode = 652;
},
{
glyphname = w;
kernLeft = KO_w;
kernRight = KO_w;
lastChange = "2022-05-19 01:21:39 +0000";
layers = (
{
anchors = (
{
name = bottom;
pos = (398,0);
},
{
name = top;
pos = (415,530);
}
);
background = {
shapes = (
{
closed = 1;
nodes = (
(262,-7,ls),
(325,-7,o),
(339,24,o),
(357,100,cs),
(440,455,l),
(346,455,l),
(248,60,l),
(271,61,l),
(178,411,ls),
(175,422,o),
(175,430,o),
(175,438,cs),
(175,462,o),
(188,471,o),
(214,471,c),
(214,492,o),
(210,516,o),
(194,531,c),
(-25,531,l),
(-40,516,o),
(-44,492,o),
(-44,471,c),
(-7,471,o),
(12,461,o),
(23,425,cs),
(159,-7,l,{
name = hr00;
})
);
},
{
closed = 1;
nodes = (
(494,439,o),
(493,448,o),
(493,455,c),
(346,455,l),
(481,-7,l),
(576,-7,ls),
(641,-7,o),
(654,26,o),
(676,102,cs),
(768,425,ls),
(778,461,o),
(798,471,o),
(835,471,c),
(835,492,o),
(831,516,o),
(815,531,c),
(634,531,l),
(619,516,o),
(615,492,o),
(615,471,c),
(641,471,o),
(655,462,o),
(655,438,cs),
(655,430,o),
(653,422,o),
(651,411,cs),
(576,60,l),
(597,60,l),
(497,429,ls)
);
}
);
};
layerId = "184835E3-72D9-430C-A639-2454AC4A0BE8";
shapes = (
{
closed = 1;
nodes = (
(267,-7,l),
(267,-6,l),
(312,2,o),
(324,34,o),
(342,100,cs),
(396,293,l),
(490,-7,l),
(569,-7,ls),
(634,-7,o),
(648,25,o),
(669,102,cs),
(758,425,ls),
(768,461,o),
(788,471,o),
(825,471,c),
(825,492,o),
(821,516,o),
(805,531,c),
(614,531,l),
(599,516,o),
(595,492,o),
(595,471,c),
(621,471,o),
(635,462,o),
(635,438,cs),
(635,430,o),
(634,422,o),
(631,411,cs),
(598,270,l),
(565,66,l),
(596,67,l),
(532,270,l),
(480,484,l),
(403,485,l),
(355,485,o),
(342,435,o),
(326,373,c),
(297,269,l),
(230,54,l),
(269,52,l),
(223,269,l),
(197,405,l,{
name = hr00;
}),
(196,412,o),
(193,420,o),
(193,426,cs),
(193,457,o),
(213,471,o),
(240,471,c),
(240,492,o),
(232,516,o),
(217,531,c),
(-8,531,l),
(-23,516,o),
(-29,492,o),
(-29,471,c),
(6,471,o),
(17,455,o),
(29,419,cs),
(165,-7,l)
);
},
{
closed = 0;
nodes = (
(393,348,l,{
name = hr00;
})
);
}
);
width = 796;
}
);
unicode = 119;
userData = {
KernOnName = w;
};
},
{
glyphname = x;
kernLeft = KO_x;
kernRight = KO_x;
lastChange = "2022-05-19 01:21:39 +0000";
layers = (
{
anchors = (
{
name = bottom;
pos = (271,0);
},
{
name = top;
pos = (291,530);
}
);
layerId = "184835E3-72D9-430C-A639-2454AC4A0BE8";
shapes = (
{
closed = 1;
nodes = (
(523,0,l),
(538,15,o),
(543,36,o),
(543,58,c),
(514,58,o),
(489,85,o),
(462,122,c),
(334,299,l),
(310,330,l),
(249,414,l,{
name = hr00;
}),
(238,429,o),
(235,441,o),
(235,450,cs),
(235,464,o),
(247,471,o),
(268,471,c),
(268,493,o),
(265,517,o),
(248,531,c),
(25,531,l),
(8,517,o),
(4,493,o),
(4,471,c),
(41,471,o),
(56,432,o),
(78,410,c),
(198,254,l),
(212,224,l),
(292,118,l),
(300,106,o),
(303,96,o),
(303,86,cs),
(303,70,o),
(290,58,o),
(263,58,c),
(263,36,o),
(268,15,o),
(284,0,c)
);
},
{
closed = 1;
nodes = (
(197,0,l),
(212,15,o),
(217,36,o),
(217,58,c),
(188,58,o),
(171,73,o),
(171,94,cs),
(171,103,o),
(174,112,o),
(182,123,cs),
(297,277,l),
(237,314,l),
(72,112,l),
(53,86,o),
(19,62,o),
(-10,58,c),
(-10,36,o),
(0,15,o),
(15,0,c)
);
},
{
closed = 1;
nodes = (
(452,420,l),
(481,457,o),
(505,471,o),
(539,471,c),
(539,493,o),
(535,517,o),
(518,531,c),
(345,531,l),
(329,517,o),
(325,493,o),
(325,471,c),
(339,471,o),
(356,463,o),
(356,444,cs),
(356,435,o),
(352,424,o),
(342,397,c),
(262,298,l),
(302,239,l)
);
}
);
width = 541;
}
);
unicode = 120;
},
{
glyphname = y;
kernLeft = KO_y;
kernRight = KO_y;
lastChange = "2022-05-19 01:21:39 +0000";
layers = (
{
anchors = (
{
name = bottom;
pos = (463,70);
},
{
name = top;
pos = (291,530);
}
);
layerId = "184835E3-72D9-430C-A639-2454AC4A0BE8";
shapes = (
{
closed = 1;
nodes = (
(266,-211,o),
(326,-126,o),
(385,63,c),
(499,418,l),
(511,455,o),
(527,470,o),
(560,470,c),
(560,493,o),
(555,515,o),
(540,531,c),
(347,531,l),
(332,515,o),
(328,493,o),
(328,470,c),
(361,470,o),
(377,456,o),
(377,428,cs),
(377,422,o),
(376,413,o),
(374,404,c),
(295,65,l),
(277,55,l),
(250,-42,o),
(201,-85,o),
(158,-85,cs),
(123,-85,o),
(96,-74,o),
(78,-53,c),
(54,-64,o),
(37,-91,o),
(37,-123,cs),
(37,-171,o),
(78,-211,o),
(161,-211,cs)
);
},
{
closed = 1;
nodes = (
(336,37,l),
(215,391,l,{
name = hr00;
}),
(211,403,o),
(210,415,o),
(210,424,cs),
(210,451,o),
(223,470,o),
(256,470,c),
(256,493,o),
(247,515,o),
(232,531,c),
(-4,531,l),
(-19,515,o),
(-25,493,o),
(-25,470,c),
(16,470,o),
(20,449,o),
(36,411,cs),
(190,37,l)
);
}
);
width = 530;
}
);
unicode = 121;
userData = {
KernOnName = y;
};
},
{
glyphname = z;
kernLeft = KO_z;
kernRight = KO_z;
lastChange = "2022-05-19 01:21:39 +0000";
layers = (
{
anchors = (
{
name = bottom;
pos = (254,0);
},
{
name = center;
pos = (254,265);
},
{
name = top;
pos = (264,530);
}
);
layerId = "184835E3-72D9-430C-A639-2454AC4A0BE8";
shapes = (
{
closed = 1;
nodes = (
(460,0,l),
(484,47,o),
(486,109,o),
(486,161,cs),
(486,196,l),
(411,196,l),
(391,118,o),
(368,68,o),
(266,68,cs),
(148,68,l),
(165,32,l),
(260,131,l),
(489,489,l,{
name = hr02;
}),
(459,530,l,{
name = hr03;
}),
(34,530,l),
(35,465,o),
(34,399,o),
(51,351,c),
(131,351,l),
(131,431,o),
(157,463,o),
(220,463,cs),
(345,463,l),
(336,498,l),
(256,410,l),
(8,38,l),
(36,0,l,{
name = hr01;
})
);
}
);
width = 507;
}
);
unicode = 122;
userData = {
KernOnName = z;
};
},
{
glyphname = f_f;
kernLeft = KO_f_f;
kernRight = KO_f_f;
lastChange = "2022-05-19 01:21:39 +0000";
layers = (
{
anchors = (
{
name = caret_1;
pos = (367,0);
},
{
name = top;
pos = (197,975);
}
);
background = {
shapes = (
{
closed = 1;
nodes = (
(330,450,l),
(345,473,o),
(347,510,o),
(347,540,c),
(251,540,ls),
(238,540,o),
(218,586,o),
(218,647,cs),
(218,703,o),
(246,750,o),
(282,750,cs,{
name = hr02;
}),
(291,750,o),
(304,745,o),
(308,737,c),
(279,716,o),
(276,692,o),
(276,674,cs),
(276,633,o),
(315,603,o),
(358,603,cs),
(406,603,o),
(436,644,o),
(436,697,cs),
(436,752,o),
(382,822,o),
(278,822,cs),
(158,822,o),
(77,754,o),
(77,615,cs),
(77,580,o),
(87,555,o),
(87,506,c),
(98,549,l),
(76,532,o),
(63,521,o),
(26,512,c),
(26,450,l,{
name = hr03;
}),
(138,450,l),
(87,501,l),
(87,109,ls),
(87,70,o),
(72,54,o),
(32,54,c),
(32,33,o),
(40,15,o),
(55,0,c),
(319,0,l),
(334,15,o),
(342,33,o),
(342,54,c),
(262,54,o),
(248,73,o),
(248,118,cs),
(248,501,l,{
name = hr01;
}),
(197,450,l,{
name = hr01;
})
);
}
);
};
layerId = "184835E3-72D9-430C-A639-2454AC4A0BE8";
shapes = (
{
closed = 1;
nodes = (
(319,0,l),
(335,16,o),
(343,33,o),
(343,54,c),
(263,54,o),
(248,73,o),
(248,118,cs),
(248,450,l,{
name = hr00;
}),
(448,450,l),
(448,109,ls),
(448,70,o),
(433,54,o),
(393,54,c),
(393,33,o),
(402,16,o),
(416,0,c),
(690,0,l),
(704,16,o),
(714,33,o),
(714,54,c),
(634,54,o),
(611,73,o),
(611,118,cs),
(611,450,l),
(714,450,l),
(730,473,o),
(731,510,o),
(731,540,c),
(617,540,ls),
(571,540,o),
(570,591,o),
(570,651,cs),
(570,708,o),
(602,751,o),
(629,751,cs),
(636,751,o),
(640,749,o),
(647,745,c),
(632,734,o),
(626,713,o),
(626,696,cs),
(626,655,o),
(668,633,o),
(706,633,cs),
(753,633,o),
(785,673,o),
(785,724,cs),
(785,777,o),
(736,822,o),
(649,822,cs),
(530,822,o),
(437,729,o),
(437,602,cs),
(437,585,o),
(439,557,o),
(442,540,c),
(257,540,ls),
(211,540,o),
(201,578,o),
(201,641,cs),
(201,700,o),
(239,744,o),
(269,744,cs),
(277,744,o),
(280,742,o),
(287,737,c),
(273,727,o),
(267,706,o),
(267,688,cs),
(267,648,o),
(307,622,o),
(346,622,cs),
(394,622,o),
(422,660,o),
(422,712,cs),
(422,764,o),
(377,811,o),
(290,811,cs),
(165,811,o),
(77,749,o),
(77,595,cs),
(77,587,o),
(78,555,o),
(82,537,c),
(68,526,o),
(54,518,o),
(26,512,c),
(26,450,l),
(87,450,l),
(87,109,ls),
(87,70,o),
(72,54,o),
(33,54,c),
(33,33,o),
(41,16,o),
(56,0,c)
);
}
);
width = 724;
}
);
metricLeft = f;
metricRight = f;
unicode = 64256;
},
{
glyphname = ordfeminine;
kernLeft = KO_ordfeminine;
lastChange = "2022-05-19 01:21:39 +0000";
layers = (
{
layerId = "184835E3-72D9-430C-A639-2454AC4A0BE8";
shapes = (
{
closed = 1;
nodes = (
(210,387,o),
(239,402,o),
(261,422,c),
(275,399,o),
(301,387,o),
(336,387,cs),
(368,387,o),
(404,397,o),
(419,415,c),
(418,439,l),
(395,444,o),
(383,459,o),
(383,482,cs),
(383,682,ls),
(383,760,o),
(332,800,o),
(230,800,cs),
(117,800,o),
(66,750,o),
(66,702,cs),
(66,667,o),
(92,640,o),
(132,640,cs),
(167,640,o),
(193,660,o),
(193,691,cs),
(193,708,o),
(184,723,o),
(165,731,c),
(175,740,o),
(190,743,o),
(205,743,cs),
(233,743,o),
(251,729,o),
(251,691,cs),
(251,593,l),
(232,603,o),
(201,609,o),
(172,609,cs),
(91,609,o),
(40,562,o),
(40,499,cs,{
name = hr00;
}),
(40,435,o),
(92,387,o),
(167,387,cs)
);
},
{
closed = 1;
nodes = (
(190,452,o),
(172,469,o),
(172,499,cs),
(172,529,o),
(192,544,o),
(214,544,cs),
(229,544,o),
(242,537,o),
(251,531,c),
(251,464,l),
(243,456,o),
(229,452,o),
(216,452,cs)
);
}
);
width = 459;
}
);
unicode = 170;
userData = {
KernOnSpecialSpacing = {
L = superiors;
R = NoKerning;
};
};
},
{
glyphname = ordmasculine;
kernLeft = KO_ordmasculine;
lastChange = "2022-05-19 01:21:39 +0000";
layers = (
{
layerId = "184835E3-72D9-430C-A639-2454AC4A0BE8";
shapes = (
{
closed = 1;
nodes = (
(331,384,o),
(407,474,o),
(407,606,cs),
(407,731,o),
(334,800,o),
(227,800,cs),
(116,800,o),
(40,715,o),
(40,582,cs),
(40,457,o),
(113,384,o),
(220,384,cs)
);
},
{
closed = 1;
nodes = (
(193,439,o),
(175,472,o),
(175,600,cs,{
name = hr00;
}),
(175,707,o),
(191,746,o),
(221,746,cs),
(254,746,o),
(272,718,o),
(272,589,cs),
(272,481,o),
(256,439,o),
(226,439,cs)
);
}
);
width = 447;
}
);
unicode = 186;
userData = {
KernOnSpecialSpacing = {
L = superiors;
R = NoKerning;
};
};
},
{
glyphname = Delta;
kernLeft = KO_Delta;
kernRight = KO_Delta;
lastChange = "2022-05-19 01:21:39 +0000";
layers = (
{
layerId = "184835E3-72D9-430C-A639-2454AC4A0BE8";
shapes = (
{
closed = 1;
nodes = (
(768,0,l),
(783,16,o),
(791,40,o),
(791,64,c),
(757,64,o),
(721,85,o),
(706,129,cs),
(515,698,l),
(349,698,l),
(148,129,ls),
(132,85,o),
(100,64,o),
(64,64,c),
(64,40,o),
(72,16,o),
(87,0,c)
);
},
{
closed = 1;
nodes = (
(293,79,o),
(269,79,o),
(269,115,cs),
(269,127,o),
(272,142,o),
(277,159,cs),
(395,552,l),
(404,539,o),
(412,523,o),
(417,506,cs),
(520,159,ls),
(526,140,o),
(531,124,o),
(531,112,cs),
(531,78,o),
(509,79,o),
(474,79,c),
(332,79,l)
);
}
);
width = 855;
}
);
unicode = 916;
},
{
glyphname = Omega;
kernLeft = KO_Omega;
kernRight = KO_Omega;
lastChange = "2022-05-19 01:21:39 +0000";
layers = (
{
layerId = "184835E3-72D9-430C-A639-2454AC4A0BE8";
shapes = (
{
closed = 1;
nodes = (
(382,0,l),
(410,73,l),
(386,100,o),
(317,188,o),
(317,395,cs),
(317,559,o),
(357,632,o),
(450,632,cs),
(512,632,o),
(579,598,o),
(579,395,cs),
(579,188,o),
(509,100,o),
(486,73,c),
(514,0,l),
(720,0,ls,{
name = hr01;
}),
(804,0,o),
(826,53,o),
(826,109,cs),
(826,151,o),
(820,185,o),
(798,203,c),
(750,203,l),
(750,129,o),
(722,85,o),
(618,85,cs),
(608,85,o),
(597,85,o),
(585,86,c),
(585,96,o),
(601,112,o),
(625,135,cs),
(679,187,o),
(767,274,o),
(767,399,cs),
(767,592,o),
(652,706,o),
(448,706,cs),
(244,706,o),
(129,592,o),
(129,399,cs),
(129,273,o),
(216,189,o),
(270,137,cs),
(294,114,o),
(311,97,o),
(311,86,c),
(296,85,o),
(281,84,o),
(268,84,cs),
(147,84,o),
(146,130,o),
(146,203,c),
(98,203,l),
(76,185,o),
(70,151,o),
(70,109,cs),
(70,53,o),
(92,0,o),
(176,0,cs,{
name = hr01;
})
);
}
);
width = 896;
}
);
unicode = 937;
},
{
glyphname = mu;
kernLeft = KO_mu;
kernRight = KO_mu;
lastChange = "2022-05-19 01:21:39 +0000";
layers = (
{
layerId = "184835E3-72D9-430C-A639-2454AC4A0BE8";
shapes = (
{
closed = 1;
nodes = (
(109,-192,ls),
(149,-192,o),
(173,-169,o),
(173,-132,cs),
(173,-128,o),
(173,-125,o),
(173,-120,cs),
(159,109,l),
(149,45,l),
(170,19,o),
(203,-13,o),
(264,-13,cs),
(309,-13,o),
(359,4,o),
(376,79,c),
(350,143,l),
(339,104,o),
(318,82,o),
(283,82,cs),
(251,82,o),
(219,104,o),
(219,143,cs),
(219,502,ls),
(219,533,o),
(178,548,o),
(138,548,cs),
(97,548,o),
(57,533,o),
(57,504,cs),
(57,154,l),
(54,-192,l)
);
},
{
closed = 1;
nodes = (
(492,-13,o),
(559,0,o),
(580,54,c),
(555,97,l,{
name = hr02;
}),
(546,83,o),
(538,80,o),
(532,80,cs),
(517,80,o),
(512,92,o),
(512,115,cs),
(512,502,ls),
(512,533,o),
(471,548,o),
(430,548,cs),
(390,548,o),
(350,533,o),
(350,504,cs),
(350,88,ls,{
name = hr01;
}),
(350,23,o),
(396,-13,o),
(456,-13,cs)
);
}
);
width = 595;
}
);
unicode = 956;
},
{
glyphname = pi;
kernLeft = KO_pi;
kernRight = KO_k;
lastChange = "2022-05-19 01:21:39 +0000";
layers = (
{
layerId = "184835E3-72D9-430C-A639-2454AC4A0BE8";
shapes = (
{
closed = 1;
nodes = (
(301,-13,o),
(281,186,o),
(309,418,c),
(417,418,l),
(403,85,ls,{
name = hr01;
}),
(400,20,o),
(440,-13,o),
(502,-13,cs),
(557,-13,o),
(617,8,o),
(641,62,c),
(608,129,l,{
name = hr02;
}),
(598,107,o),
(581,101,o),
(564,101,cs),
(549,101,o),
(540,113,o),
(540,136,cs),
(540,418,l),
(651,418,l),
(676,443,o),
(678,494,o),
(678,530,c),
(67,530,l),
(67,418,l),
(202,418,l),
(189,285,o),
(169,186,o),
(145,100,c),
(134,126,o),
(111,139,o),
(85,139,cs),
(44,139,o),
(22,112,o),
(22,74,cs),
(22,28,o),
(58,-13,o),
(111,-13,cs)
);
}
);
width = 700;
}
);
unicode = 960;
},
{
glyphname = zero;
kernLeft = KO_zero;
kernRight = KO_zero;
lastChange = "2022-05-19 01:21:39 +0000";
layers = (
{
layerId = "184835E3-72D9-430C-A639-2454AC4A0BE8";
shapes = (
{
closed = 1;
nodes = (
(503,-10,o),
(618,84,o),
(618,341,cs),
(618,610,o),
(506,708,o),
(332,708,cs),
(160,708,o),
(45,612,o),
(45,342,cs),
(45,87,o),
(157,-10,o),
(330,-10,cs)
);
},
{
closed = 1;
nodes = (
(273,60,o),
(223,103,o),
(223,340,cs),
(223,600,o),
(274,638,o),
(332,638,cs),
(390,638,o),
(439,600,o),
(439,343,cs),
(439,103,o),
(389,60,o),
(330,60,cs,{
name = hr00;
})
);
}
);
width = 663;
}
);
unicode = 48;
userData = {
com.typemytype.robofont.guides = (
{
angle = 0;
isGlobal = 0;
magnetic = 5;
x = 0;
y = -27;
}
);
};
},
{
glyphname = one;
kernLeft = KO_one;
kernRight = KO_one;
lastChange = "2022-05-19 01:21:39 +0000";
layers = (
{
layerId = "184835E3-72D9-430C-A639-2454AC4A0BE8";
shapes = (
{
closed = 1;
nodes = (
(419,0,l),
(434,14,o),
(442,48,o),
(442,68,c),
(373,68,o),
(331,86,o),
(331,157,cs),
(331,656,ls,{
name = hr00;
}),
(331,679,o),
(321,710,o),
(284,710,cs),
(266,710,o),
(244,705,o),
(199,679,cs),
(43,588,l),
(70,538,l),
(88,546,o),
(114,551,o),
(133,551,cs),
(163,551,o),
(178,540,o),
(178,519,cs),
(178,157,ls),
(178,87,o),
(133,68,o),
(68,68,c),
(68,48,o),
(77,14,o),
(92,0,c)
);
}
);
width = 480;
}
);
unicode = 49;
},
{
glyphname = two;
kernLeft = KO_two;
kernRight = KO_two;
lastChange = "2022-05-19 01:21:39 +0000";
layers = (
{
layerId = "184835E3-72D9-430C-A639-2454AC4A0BE8";
shapes = (
{
closed = 1;
nodes = (
(123,33,l),
(152,235,o),
(530,257,o),
(530,508,cs),
(530,644,o),
(419,709,o),
(282,709,cs),
(130,709,o),
(30,629,o),
(30,538,cs),
(30,473,o),
(75,436,o),
(125,436,cs),
(173,436,o),
(219,469,o),
(219,518,cs),
(219,550,o),
(196,585,o),
(161,595,c),
(183,625,o),
(212,639,o),
(251,639,cs),
(307,639,o),
(350,605,o),
(350,525,cs),
(350,327,o),
(78,249,o),
(34,14,c),
(66,-11,l,{
name = hr01;
})
);
},
{
closed = 1;
nodes = (
(103,4,o),
(147,10,o),
(190,10,cs),
(269,10,o),
(313,-6,o),
(383,-6,cs,{
name = hr02;
}),
(516,-6,o),
(555,66,o),
(555,129,cs),
(555,168,o),
(540,205,o),
(519,224,c),
(491,224,l),
(476,170,o),
(420,139,o),
(356,139,cs,{
name = hr03;
}),
(303,139,ls),
(241,139,o),
(156,115,o),
(126,92,c),
(67,-11,l)
);
}
);
width = 585;
}
);
unicode = 50;
},
{
glyphname = three;
kernLeft = KO_three;
kernRight = KO_three;
lastChange = "2022-05-19 01:21:39 +0000";
layers = (
{
background = {
shapes = (
{
closed = 1;
nodes = (
(529,667,o),
(429,726,o),
(291,726,cs),
(162,726,o),
(57,673,o),
(57,582,cs),
(57,535,o),
(85,502,o),
(135,502,cs),
(184,502,o),
(209,535,o),
(209,564,cs),
(209,590,o),
(190,612,o),
(173,619,c),
(193,644,o),
(223,656,o),
(255,656,cs),
(318,656,o),
(352,615,o),
(352,549,cs),
(352,488,o),
(322,429,o),
(196,396,c),
(329,372,l),
(462,407,o),
(529,479,o),
(529,566,cs,{
name = hr00;
})
);
}
);
};
layerId = "184835E3-72D9-430C-A639-2454AC4A0BE8";
shapes = (
{
closed = 1;
nodes = (
(455,-8,o),
(579,73,o),
(579,196,cs),
(579,327,o),
(481,382,o),
(357,367,c),
(196,382,l),
(221,336,l),
(273,336,ls),
(362,336,o),
(394,266,o),
(394,197,cs),
(394,128,o),
(350,83,o),
(267,83,cs),
(228,83,o),
(189,83,o),
(172,97,c),
(193,115,o),
(200,142,o),
(200,161,cs),
(200,198,o),
(170,230,o),
(123,230,cs),
(76,230,o),
(40,199,o),
(40,142,cs),
(40,48,o),
(144,-8,o),
(283,-8,cs)
);
},
{
closed = 1;
nodes = (
(468,376,o),
(529,460,o),
(529,547,cs,{
name = hr00;
}),
(529,648,o),
(429,707,o),
(291,707,cs),
(162,707,o),
(54,655,o),
(54,564,cs),
(54,515,o),
(82,478,o),
(134,478,cs),
(185,478,o),
(212,515,o),
(212,545,cs),
(212,572,o),
(194,592,o),
(177,599,c),
(197,624,o),
(219,631,o),
(251,631,cs),
(311,631,o),
(351,586,o),
(351,523,cs),
(351,462,o),
(322,415,o),
(196,382,c),
(216,322,l)
);
}
);
width = 624;
}
);
unicode = 51;
},
{
glyphname = four;
kernLeft = KO_four;
kernRight = KO_four;
lastChange = "2022-05-19 01:21:39 +0000";
layers = (
{
layerId = "184835E3-72D9-430C-A639-2454AC4A0BE8";
shapes = (
{
closed = 1;
nodes = (
(559,0,l),
(574,14,o),
(583,47,o),
(583,67,c),
(514,67,o),
(479,80,o),
(479,121,cs),
(479,192,l),
(629,192,o),
(653,224,o),
(653,280,cs),
(653,309,o),
(635,334,o),
(613,341,c),
(590,341,l,{
name = hr00;
}),
(572,294,o),
(548,274,o),
(495,274,cs),
(479,274,l),
(479,698,l),
(276,698,l),
(10,254,l),
(28,192,l),
(325,192,l),
(325,122,ls),
(325,80,o),
(279,67,o),
(216,67,c),
(216,47,o),
(223,14,o),
(238,0,c)
);
},
{
closed = 1;
nodes = (
(325,608,l),
(325,274,l),
(150,274,l)
);
}
);
width = 663;
}
);
unicode = 52;
},
{
glyphname = five;
kernLeft = KO_five;
kernRight = KO_five;
lastChange = "2022-05-19 01:21:39 +0000";
layers = (
{
layerId = "184835E3-72D9-430C-A639-2454AC4A0BE8";
shapes = (
{
closed = 1;
nodes = (
(462,-8,o),
(563,105,o),
(563,227,cs),
(563,350,o),
(475,440,o),
(329,440,cs),
(259,440,o),
(199,412,o),
(164,393,c),
(187,367,l),
(218,645,l),
(111,645,l),
(107,590,l),
(127,590,o),
(180,621,o),
(192,621,cs),
(275,621,o),
(336,560,o),
(431,560,cs),
(492,560,o),
(542,591,o),
(542,652,cs),
(542,683,o),
(531,715,o),
(513,728,c),
(490,728,l),
(458,707,o),
(410,698,o),
(336,698,cs),
(116,698,l),
(82,374,l),
(121,329,l),
(151,343,o),
(197,351,o),
(234,351,cs),
(323,351,o),
(380,307,o),
(380,214,cs),
(380,138,o),
(329,76,o),
(238,76,cs),
(198,76,o),
(164,87,o),
(154,96,c),
(142,79,l,{
name = hr00;
}),
(189,99,o),
(206,121,o),
(206,151,cs),
(206,194,o),
(172,225,o),
(126,225,cs),
(79,225,o),
(40,192,o),
(40,136,cs),
(40,52,o),
(133,-8,o),
(274,-8,cs)
);
}
);
width = 603;
}
);
unicode = 53;
},
{
glyphname = six;
kernLeft = KO_six;
kernRight = KO_six;
lastChange = "2022-05-19 01:21:39 +0000";
layers = (
{
layerId = "184835E3-72D9-430C-A639-2454AC4A0BE8";
shapes = (
{
closed = 1;
nodes = (
(484,-8,o),
(595,97,o),
(595,229,cs),
(595,356,o),
(501,434,o),
(377,434,cs),
(316,434,o),
(255,415,o),
(220,382,c),
(219,385,o),
(219,389,o),
(219,393,cs),
(219,576,o),
(280,637,o),
(353,637,cs,{
name = hr00;
}),
(386,637,o),
(419,627,o),
(436,607,c),
(413,595,o),
(398,571,o),
(398,550,cs),
(398,507,o),
(434,476,o),
(482,476,cs),
(535,476,o),
(566,515,o),
(566,566,cs),
(566,660,o),
(470,707,o),
(353,707,cs),
(185,707,o),
(45,591,o),
(45,335,cs),
(45,107,o),
(157,-8,o),
(322,-8,cs)
);
},
{
closed = 1;
nodes = (
(270,67,o),
(218,112,o),
(218,259,cs),
(218,272,o),
(218,286,o),
(219,300,c),
(237,335,o),
(273,352,o),
(319,352,cs),
(377,352,o),
(428,311,o),
(428,205,cs),
(428,99,o),
(376,67,o),
(325,67,cs)
);
}
);
width = 635;
}
);
unicode = 54;
},
{
glyphname = seven;
kernLeft = KO_seven;
kernRight = KO_seven;
lastChange = "2022-05-19 01:21:39 +0000";
layers = (
{
layerId = "184835E3-72D9-430C-A639-2454AC4A0BE8";
shapes = (
{
closed = 1;
nodes = (
(333,-10,o),
(347,29,o),
(347,63,cs),
(347,119,ls),
(347,258,o),
(370,444,o),
(542,662,c),
(506,711,l,{
name = hr01;
}),
(469,684,o),
(460,679,o),
(414,679,cs),
(326,679,o),
(200,708,o),
(147,708,cs),
(56,708,o),
(20,661,o),
(20,594,cs),
(20,543,o),
(40,508,o),
(62,488,c),
(118,488,l),
(132,548,o),
(160,567,o),
(238,567,cs),
(305,567,o),
(364,578,o),
(411,592,c),
(235,377,o),
(160,204,o),
(147,5,c),
(171,-6,o),
(203,-10,o),
(230,-10,cs)
);
}
);
width = 542;
}
);
unicode = 55;
userData = {
com.typemytype.robofont.guides = (
{
angle = 0;
isGlobal = 0;
magnetic = 5;
x = 0;
y = -32;
}
);
};
},
{
glyphname = eight;
kernLeft = KO_eight;
kernRight = KO_eight;
lastChange = "2022-05-19 01:21:39 +0000";
layers = (
{
layerId = "184835E3-72D9-430C-A639-2454AC4A0BE8";
shapes = (
{
closed = 1;
nodes = (
(491,-8,o),
(600,79,o),
(600,197,cs),
(600,278,o),
(552,347,o),
(441,404,c),
(509,439,o),
(561,491,o),
(561,555,cs),
(561,628,o),
(500,709,o),
(329,709,cs),
(157,709,o),
(67,629,o),
(67,525,cs),
(67,450,o),
(116,398,o),
(177,354,c),
(92,321,o),
(36,252,o),
(36,174,cs),
(36,80,o),
(116,-8,o),
(304,-8,cs)
);
},
{
closed = 1;
nodes = (
(220,66,o),
(169,119,o),
(169,189,cs),
(169,239,o),
(198,286,o),
(249,311,c),
(389,262,o),
(428,216,o),
(428,162,cs),
(428,105,o),
(376,66,o),
(303,66,cs)
);
},
{
closed = 1;
nodes = (
(262,482,o),
(227,524,o),
(227,564,cs),
(227,611,o),
(275,642,o),
(338,642,cs),
(407,642,o),
(439,602,o),
(439,553,cs),
(439,509,o),
(412,468,o),
(364,437,c)
);
}
);
width = 636;
}
);
unicode = 56;
},
{
glyphname = nine;
kernLeft = KO_nine;
kernRight = KO_nine;
lastChange = "2022-05-19 01:21:39 +0000";
layers = (
{
layerId = "184835E3-72D9-430C-A639-2454AC4A0BE8";
shapes = (
{
closed = 1;
nodes = (
(468,-11,o),
(587,126,o),
(587,350,cs),
(587,561,o),
(510,709,o),
(307,709,cs),
(143,709,o),
(40,600,o),
(40,480,cs),
(40,348,o),
(138,266,o),
(265,266,cs),
(377,266,o),
(462,326,o),
(468,412,c),
(425,429,l),
(425,376,o),
(379,348,o),
(324,348,cs),
(259,348,o),
(202,396,o),
(202,499,cs),
(202,611,o),
(258,639,o),
(306,639,cs),
(354,639,o),
(413,601,o),
(413,423,cs),
(413,398,o),
(412,372,o),
(410,343,c),
(410,302,l),
(410,296,o),
(410,291,o),
(410,287,cs),
(410,140,o),
(377,63,o),
(284,63,cs,{
name = hr00;
}),
(248,63,o),
(215,68,o),
(194,94,c),
(227,106,o),
(239,130,o),
(239,157,cs),
(239,204,o),
(200,227,o),
(159,227,cs),
(106,227,o),
(74,192,o),
(74,137,cs),
(74,43,o),
(162,-11,o),
(295,-11,cs)
);
}
);
width = 632;
}
);
unicode = 57;
},
{
glyphname = zero.zero;
kernLeft = KO_zero;
kernRight = KO_zero;
lastChange = "2022-05-19 01:21:39 +0000";
layers = (
{
layerId = "184835E3-72D9-430C-A639-2454AC4A0BE8";
shapes = (
{
closed = 1;
nodes = (
(455,656,l),
(405,688,l),
(210,34,l),
(261,12,l)
);
},
{
ref = zero;
}
);
width = 663;
}
);
metricLeft = zero;
metricWidth = zero;
},
{
glyphname = zero.osf;
kernLeft = KO_zero.osf;
kernRight = KO_zero.osf;
lastChange = "2022-05-19 01:21:39 +0000";
layers = (
{
layerId = "184835E3-72D9-430C-A639-2454AC4A0BE8";
shapes = (
{
closed = 1;
nodes = (
(514,-11,o),
(629,70,o),
(629,298,cs),
(629,523,o),
(517,617,o),
(343,617,cs),
(171,617,o),
(56,525,o),
(56,298,cs),
(56,72,o),
(168,-11,o),
(341,-11,cs)
);
},
{
closed = 1;
nodes = (
(284,51,o),
(232,87,o),
(232,296,cs),
(232,515,o),
(285,556,o),
(343,556,cs),
(401,556,o),
(452,515,o),
(452,299,cs),
(452,87,o),
(400,51,o),
(341,51,cs,{
name = hr00;
})
);
}
);
width = 685;
}
);
},
{
glyphname = one.osf;
kernLeft = KO_one.osf;
kernRight = KO_one.osf;
lastChange = "2022-05-19 01:21:39 +0000";
layers = (
{
layerId = "184835E3-72D9-430C-A639-2454AC4A0BE8";
shapes = (
{
closed = 1;
nodes = (
(419,-8,l),
(434,4,o),
(442,23,o),
(442,41,c),
(373,41,o),
(338,66,o),
(338,129,cs),
(338,569,ls,{
name = hr00;
}),
(338,590,o),
(323,617,o),
(279,617,cs),
(261,617,o),
(239,613,o),
(194,590,cs),
(38,511,l),
(72,456,l),
(90,464,o),
(190,492,o),
(209,492,cs),
(239,492,o),
(173,533,o),
(173,515,cs),
(173,129,ls),
(173,67,o),
(128,41,o),
(63,41,c),
(63,23,o),
(72,4,o),
(87,-8,c)
);
}
);
width = 480;
}
);
},
{
glyphname = two.osf;
kernLeft = KO_two.osf;
kernRight = KO_two.osf;
lastChange = "2022-05-19 01:21:39 +0000";
layers = (
{
layerId = "184835E3-72D9-430C-A639-2454AC4A0BE8";
shapes = (
{
closed = 1;
nodes = (
(140,35,l),
(169,210,o),
(546,212,o),
(546,429,cs),
(546,546,o),
(436,617,o),
(299,617,cs),
(126,617,o),
(51,533,o),
(51,454,cs),
(51,401,o),
(94,361,o),
(142,361,cs),
(188,361,o),
(232,388,o),
(232,427,cs),
(232,455,o),
(210,493,o),
(177,501,c),
(199,527,o),
(218,557,o),
(268,557,cs),
(324,557,o),
(368,513,o),
(368,444,cs),
(368,271,o),
(95,223,o),
(51,18,c),
(83,-3,l,{
name = hr01;
})
);
},
{
closed = 1;
nodes = (
(120,10,o),
(164,16,o),
(207,16,cs),
(286,16,o),
(330,-2,o),
(400,-2,cs,{
name = hr02;
}),
(533,-2,o),
(572,65,o),
(572,119,cs),
(572,152,o),
(557,184,o),
(536,200,c),
(513,200,l),
(498,153,o),
(442,127,o),
(378,127,cs,{
name = hr03;
}),
(310,127,ls),
(253,127,o),
(202,115,o),
(148,92,c),
(84,-3,l)
);
}
);
width = 623;
}
);
},
{
glyphname = three.osf;
kernLeft = KO_three.osf;
kernRight = KO_three.osf;
lastChange = "2022-05-19 01:21:39 +0000";
layers = (
{
layerId = "184835E3-72D9-430C-A639-2454AC4A0BE8";
shapes = (
{
closed = 1;
nodes = (
(462,-118,o),
(589,-32,o),
(589,91,cs),
(589,195,o),
(501,275,o),
(375,282,c),
(206,268,l),
(225,217,l),
(266,217,ls),
(353,217,o),
(407,154,o),
(407,85,cs),
(407,15,o),
(343,-37,o),
(275,-37,cs),
(246,-37,o),
(196,-25,o),
(180,-10,c),
(200,7,o),
(207,33,o),
(207,51,cs),
(207,87,o),
(178,115,o),
(133,115,cs),
(88,115,o),
(53,88,o),
(53,33,cs),
(53,-61,o),
(171,-118,o),
(300,-118,cs)
);
},
{
closed = 1;
nodes = (
(472,299,o),
(539,355,o),
(539,457,cs,{
name = hr00;
}),
(539,557,o),
(429,617,o),
(301,617,cs),
(182,617,o),
(67,564,o),
(67,473,cs),
(67,426,o),
(95,392,o),
(145,392,cs),
(194,392,o),
(219,425,o),
(219,455,cs),
(219,481,o),
(200,503,o),
(183,510,c),
(203,535,o),
(243,546,o),
(265,546,cs),
(318,546,o),
(362,506,o),
(362,440,cs),
(362,379,o),
(332,301,o),
(206,268,c),
(339,264,l)
);
}
);
width = 640;
}
);
},
{
glyphname = four.osf;
kernLeft = KO_four;
kernRight = KO_four.osf;
lastChange = "2022-05-19 01:21:39 +0000";
layers = (
{
layerId = "184835E3-72D9-430C-A639-2454AC4A0BE8";
shapes = (
{
closed = 1;
nodes = (
(556,0,l),
(571,14,o),
(580,39,o),
(580,59,c),
(511,59,o),
(476,72,o),
(476,113,cs),
(476,192,l),
(604,192,o),
(637,223,o),
(637,293,cs),
(637,322,o),
(614,342,o),
(592,349,c),
(569,349,l,{
name = hr00;
}),
(551,302,o),
(515,274,o),
(476,274,c),
(476,710,l),
(273,710,l),
(5,240,l),
(31,192,l),
(319,192,l),
(319,114,ls),
(319,72,o),
(265,59,o),
(202,59,c),
(202,39,o),
(209,14,o),
(224,0,c)
);
},
{
closed = 1;
nodes = (
(319,645,l),
(319,274,l),
(153,274,l)
);
}
);
width = 657;
}
);
},
{
glyphname = five.osf;
kernLeft = KO_five.osf;
kernRight = KO_five.osf;
lastChange = "2022-05-19 01:21:39 +0000";
layers = (
{
layerId = "184835E3-72D9-430C-A639-2454AC4A0BE8";
shapes = (
{
closed = 1;
nodes = (
(473,-121,o),
(574,-14,o),
(574,108,cs),
(574,231,o),
(475,334,o),
(329,334,cs),
(259,334,o),
(210,315,o),
(175,296,c),
(198,261,l),
(229,551,l),
(112,491,l),
(113,490,o),
(115,489,o),
(118,489,cs),
(138,489,o),
(199,516,o),
(211,516,cs),
(294,516,o),
(314,454,o),
(409,454,cs),
(492,454,o),
(541,502,o),
(541,563,cs),
(541,594,o),
(530,621,o),
(512,635,c),
(489,635,l),
(457,614,o),
(409,604,o),
(335,604,cs),
(107,604,l),
(93,268,l),
(132,224,l),
(162,237,o),
(208,245,o),
(245,245,cs),
(328,245,o),
(391,181,o),
(391,95,cs),
(391,18,o),
(340,-37,o),
(249,-37,cs),
(209,-37,o),
(175,-27,o),
(165,-17,c),
(153,-35,l,{
name = hr00;
}),
(200,-14,o),
(217,8,o),
(217,38,cs),
(217,81,o),
(183,112,o),
(137,112,cs),
(90,112,o),
(51,79,o),
(51,23,cs),
(51,-61,o),
(144,-121,o),
(285,-121,cs)
);
}
);
width = 624;
}
);
},
{
glyphname = six.osf;
kernLeft = KO_six.osf;
kernRight = KO_six.osf;
lastChange = "2022-05-19 01:21:39 +0000";
layers = (
{
layerId = "184835E3-72D9-430C-A639-2454AC4A0BE8";
shapes = (
{
closed = 1;
nodes = (
(495,-13,o),
(597,96,o),
(597,228,cs),
(597,348,o),
(503,427,o),
(379,427,cs),
(262,427,o),
(181,358,o),
(174,254,c),
(217,238,l),
(217,308,o),
(264,345,o),
(327,345,cs),
(385,345,o),
(428,312,o),
(428,213,cs),
(428,107,o),
(387,62,o),
(336,62,cs),
(281,62,o),
(229,105,o),
(229,252,cs),
(229,274,o),
(229,298,o),
(232,324,c),
(231,365,l),
(231,372,o),
(230,379,o),
(230,386,cs),
(230,568,o),
(293,632,o),
(366,632,cs,{
name = hr00;
}),
(398,632,o),
(426,620,o),
(443,601,c),
(420,588,o),
(406,564,o),
(406,538,cs),
(406,496,o),
(441,464,o),
(489,464,cs),
(541,464,o),
(572,503,o),
(572,554,cs),
(572,644,o),
(478,707,o),
(361,707,cs),
(193,707,o),
(53,590,o),
(53,334,cs),
(53,97,o),
(168,-13,o),
(333,-13,cs)
);
}
);
width = 650;
}
);
},
{
glyphname = seven.osf;
kernLeft = KO_seven.osf;
kernRight = KO_seven.osf;
lastChange = "2022-05-19 01:21:39 +0000";
layers = (
{
layerId = "184835E3-72D9-430C-A639-2454AC4A0BE8";
shapes = (
{
closed = 1;
nodes = (
(390,-118,o),
(394,-74,o),
(398,-40,cs),
(419,136,o),
(410,312,o),
(612,567,c),
(576,617,l,{
name = hr01;
}),
(575,615,l),
(538,589,o),
(489,579,o),
(444,579,cs),
(356,579,o),
(294,617,o),
(201,617,cs,{
name = hr02;
}),
(93,617,o),
(52,566,o),
(52,500,cs),
(52,449,o),
(76,414,o),
(103,394,c),
(131,394,l),
(156,437,o),
(201,463,o),
(271,463,cs),
(312,463,ls),
(377,463,o),
(430,471,o),
(471,485,c),
(301,275,o),
(222,96,o),
(197,-100,c),
(220,-115,o),
(260,-118,o),
(287,-118,cs)
);
}
);
width = 662;
}
);
},
{
glyphname = eight.osf;
kernLeft = KO_eight;
kernRight = KO_eight.osf;
lastChange = "2022-05-19 01:21:39 +0000";
layers = (
{
layerId = "184835E3-72D9-430C-A639-2454AC4A0BE8";
shapes = (
{
closed = 1;
nodes = (
(491,-8,o),
(598,79,o),
(598,197,cs),
(598,278,o),
(550,347,o),
(439,404,c),
(507,439,o),
(559,491,o),
(559,555,cs),
(559,628,o),
(498,709,o),
(329,709,cs),
(157,709,o),
(69,629,o),
(69,525,cs),
(69,450,o),
(118,398,o),
(179,354,c),
(94,321,o),
(38,252,o),
(38,174,cs),
(38,80,o),
(116,-8,o),
(304,-8,cs)
);
},
{
closed = 1;
nodes = (
(220,66,o),
(171,119,o),
(171,189,cs),
(171,239,o),
(198,286,o),
(249,311,c),
(389,262,o),
(432,216,o),
(432,162,cs),
(432,105,o),
(376,66,o),
(303,66,cs)
);
},
{
closed = 1;
nodes = (
(260,482,o),
(225,524,o),
(225,564,cs),
(225,611,o),
(275,642,o),
(338,642,cs),
(405,642,o),
(437,602,o),
(437,553,cs),
(437,509,o),
(410,468,o),
(362,437,c)
);
}
);
width = 636;
}
);
},
{
glyphname = nine.osf;
kernLeft = KO_nine.osf;
kernRight = KO_nine.osf;
lastChange = "2022-05-19 01:21:39 +0000";
layers = (
{
layerId = "184835E3-72D9-430C-A639-2454AC4A0BE8";
shapes = (
{
closed = 1;
nodes = (
(455,-116,o),
(591,1,o),
(591,261,cs),
(591,476,o),
(511,617,o),
(309,617,cs),
(151,617,o),
(54,511,o),
(54,381,cs),
(54,249,o),
(144,172,o),
(271,172,cs),
(385,172,o),
(468,232,o),
(474,318,c),
(431,334,l),
(431,282,o),
(385,254,o),
(330,254,cs),
(265,254,o),
(215,295,o),
(215,399,cs),
(215,511,o),
(273,544,o),
(318,544,cs),
(366,544,o),
(419,506,o),
(419,328,cs),
(419,305,o),
(418,278,o),
(416,248,c),
(418,208,l),
(418,203,o),
(418,197,o),
(418,192,cs),
(418,19,o),
(366,-39,o),
(286,-39,cs,{
name = hr00;
}),
(252,-39,o),
(223,-29,o),
(203,-4,c),
(235,8,o),
(247,32,o),
(247,58,cs),
(247,105,o),
(209,131,o),
(168,131,cs),
(115,131,o),
(82,91,o),
(82,37,cs),
(82,-53,o),
(184,-116,o),
(303,-116,cs)
);
}
);
width = 646;
}
);
},
{
glyphname = zero.osf.zero;
kernLeft = KO_zero.osf;
kernRight = KO_zero.osf;
lastChange = "2022-05-19 01:21:39 +0000";
layers = (
{
layerId = "184835E3-72D9-430C-A639-2454AC4A0BE8";
shapes = (
{
closed = 1;
nodes = (
(461,530,l),
(411,562,l),
(210,54,l),
(261,32,l)
);
},
{
ref = zero.osf;
}
);
width = 685;
}
);
metricLeft = zero.osf;
metricWidth = zero.osf;
},
{
glyphname = zero.tf;
lastChange = "2022-05-19 01:21:39 +0000";
layers = (
{
layerId = "184835E3-72D9-430C-A639-2454AC4A0BE8";
shapes = (
{
closed = 1;
nodes = (
(487,-10,o),
(592,82,o),
(592,339,cs),
(592,595,o),
(490,701,o),
(316,701,cs),
(144,701,o),
(37,597,o),
(37,340,cs),
(37,85,o),
(141,-10,o),
(315,-10,cs)
);
},
{
closed = 1;
nodes = (
(257,60,o),
(216,101,o),
(216,338,cs),
(216,585,o),
(258,631,o),
(316,631,cs),
(374,631,o),
(414,585,o),
(414,341,cs),
(414,101,o),
(373,60,o),
(315,60,cs,{
name = hr00;
})
);
}
);
width = 630;
}
);
userData = {
KernOnSpecialSpacing = {
L = NoKerning;
R = NoKerning;
};
};
},
{
glyphname = one.tf;
lastChange = "2022-05-19 01:21:39 +0000";
layers = (
{
layerId = "184835E3-72D9-430C-A639-2454AC4A0BE8";
shapes = (
{
closed = 1;
nodes = (
(572,0,l),
(587,14,o),
(595,47,o),
(595,67,c),
(466,67,o),
(427,79,o),
(427,150,cs),
(427,640,ls,{
name = hr00;
}),
(427,684,o),
(414,707,o),
(371,707,cs),
(360,707,o),
(339,697,o),
(312,682,cs),
(269,658,o),
(162,601,o),
(64,579,c),
(86,500,l),
(132,500,o),
(238,519,o),
(300,545,c),
(269,580,l),
(269,151,ls),
(269,80,o),
(215,67,o),
(77,67,c),
(77,47,o),
(86,14,o),
(101,0,c)
);
}
);
width = 630;
}
);
userData = {
KernOnSpecialSpacing = {
L = NoKerning;
R = NoKerning;
};
};
},
{
glyphname = two.tf;
lastChange = "2022-05-19 01:21:39 +0000";
layers = (
{
layerId = "184835E3-72D9-430C-A639-2454AC4A0BE8";
shapes = (
{
closed = 1;
nodes = (
(75,-13,l),
(75,-14,l),
(111,1,o),
(155,7,o),
(208,7,cs),
(249,7,o),
(280,2,o),
(310,-3,cs),
(339,-8,o),
(366,-13,o),
(401,-13,cs),
(534,-13,o),
(574,63,o),
(574,126,cs),
(574,165,o),
(558,202,o),
(538,221,c),
(514,221,l),
(499,167,o),
(444,136,o),
(379,136,cs),
(311,136,ls),
(262,136,o),
(208,126,o),
(162,106,c),
(198,157,o),
(259,196,o),
(321,235,cs),
(428,303,o),
(548,372,o),
(548,508,cs),
(548,644,o),
(437,709,o),
(301,709,cs),
(148,709,o),
(52,628,o),
(52,537,cs),
(52,475,o),
(95,440,o),
(144,440,cs),
(189,440,o),
(233,471,o),
(233,518,cs),
(233,549,o),
(212,582,o),
(179,592,c),
(200,622,o),
(230,639,o),
(269,639,cs),
(325,639,o),
(369,605,o),
(369,525,cs),
(369,424,o),
(291,355,o),
(215,279,cs),
(142,206,o),
(64,127,o),
(42,11,c),
(74,-14,l)
);
}
);
width = 630;
}
);
userData = {
KernOnSpecialSpacing = {
L = NoKerning;
R = NoKerning;
};
};
},
{
glyphname = three.tf;
lastChange = "2022-05-19 01:21:39 +0000";
layers = (
{
layerId = "184835E3-72D9-430C-A639-2454AC4A0BE8";
shapes = (
{
closed = 1;
nodes = (
(456,-13,o),
(580,73,o),
(580,196,cs),
(580,309,o),
(506,362,o),
(396,379,c),
(486,415,o),
(548,468,o),
(548,552,cs),
(548,653,o),
(447,712,o),
(293,712,cs),
(163,712,o),
(58,659,o),
(58,568,cs),
(58,521,o),
(86,488,o),
(136,488,cs),
(185,488,o),
(210,521,o),
(210,550,cs),
(210,576,o),
(192,598,o),
(174,605,c),
(195,630,o),
(224,642,o),
(257,642,cs),
(319,642,o),
(370,601,o),
(370,535,cs),
(370,474,o),
(324,402,o),
(198,369,c),
(216,318,l),
(258,318,ls),
(345,318,o),
(398,276,o),
(398,190,cs),
(398,121,o),
(344,76,o),
(267,76,cs),
(227,76,o),
(187,88,o),
(172,102,c),
(191,119,o),
(198,138,o),
(198,156,cs),
(198,192,o),
(169,220,o),
(124,220,cs),
(79,220,o),
(44,193,o),
(44,138,cs),
(44,44,o),
(146,-13,o),
(285,-13,cs)
);
}
);
width = 630;
}
);
userData = {
KernOnSpecialSpacing = {
L = NoKerning;
R = NoKerning;
};
};
},
{
glyphname = four.tf;
lastChange = "2022-05-19 01:21:39 +0000";
layers = (
{
layerId = "184835E3-72D9-430C-A639-2454AC4A0BE8";
shapes = (
{
closed = 1;
nodes = (
(552,0,l),
(567,14,o),
(576,39,o),
(576,59,c),
(507,59,o),
(472,72,o),
(472,113,cs),
(472,193,l),
(586,198,o),
(606,229,o),
(606,280,cs),
(606,309,o),
(588,334,o),
(566,341,c),
(543,341,l),
(528,302,o),
(509,281,o),
(472,276,c),
(472,698,l),
(261,698,l),
(5,225,l),
(28,192,l),
(318,192,l),
(318,114,ls),
(318,72,o),
(272,59,o),
(209,59,c),
(209,39,o),
(216,14,o),
(231,0,c)
);
},
{
closed = 1;
nodes = (
(318,609,l),
(318,274,l),
(138,274,l)
);
}
);
width = 630;
}
);
userData = {
KernOnSpecialSpacing = {
L = NoKerning;
R = NoKerning;
};
};
},
{
glyphname = five.tf;
lastChange = "2022-05-19 01:21:39 +0000";
layers = (
{
layerId = "184835E3-72D9-430C-A639-2454AC4A0BE8";
shapes = (
{
closed = 1;
nodes = (
(476,-7,o),
(576,100,o),
(576,222,cs),
(576,345,o),
(478,428,o),
(331,428,cs),
(278,428,o),
(238,417,o),
(206,404,c),
(228,609,l),
(299,602,o),
(322,548,o),
(411,548,cs),
(494,548,o),
(544,596,o),
(544,657,cs),
(544,688,o),
(532,716,o),
(515,729,c),
(491,729,l),
(459,708,o),
(411,698,o),
(337,698,cs),
(109,698,l),
(95,362,l),
(134,317,l),
(164,331,o),
(210,339,o),
(247,339,cs),
(330,339,o),
(394,295,o),
(394,209,cs),
(394,133,o),
(342,77,o),
(251,77,cs),
(220,77,o),
(193,84,o),
(177,91,c),
(207,108,o),
(219,127,o),
(219,152,cs),
(219,195,o),
(185,226,o),
(139,226,cs),
(92,226,o),
(53,193,o),
(53,137,cs),
(53,53,o),
(146,-7,o),
(287,-7,cs)
);
}
);
width = 630;
}
);
userData = {
KernOnSpecialSpacing = {
L = NoKerning;
R = NoKerning;
};
};
},
{
glyphname = seven.tf;
lastChange = "2022-05-19 01:21:39 +0000";
layers = (
{
layerId = "184835E3-72D9-430C-A639-2454AC4A0BE8";
shapes = (
{
closed = 1;
nodes = (
(398,-13,o),
(403,31,o),
(405,65,cs),
(421,292,o),
(409,431,o),
(611,667,c),
(575,716,l),
(538,689,o),
(489,679,o),
(443,679,cs),
(355,679,o),
(253,711,o),
(160,711,cs),
(72,711,o),
(21,661,o),
(21,594,cs),
(21,543,o),
(45,508,o),
(72,488,c),
(100,488,l),
(125,532,o),
(170,558,o),
(250,558,cs),
(291,558,ls),
(369,558,o),
(426,568,o),
(469,583,c),
(298,394,o),
(230,250,o),
(205,6,c),
(227,-10,o),
(268,-13,o),
(295,-13,cs)
);
}
);
width = 630;
}
);
userData = {
KernOnSpecialSpacing = {
L = NoKerning;
R = NoKerning;
};
};
},
{
glyphname = eight.tf;
lastChange = "2022-05-19 01:21:39 +0000";
layers = (
{
layerId = "184835E3-72D9-430C-A639-2454AC4A0BE8";
shapes = (
{
closed = 1;
nodes = (
(480,-14,o),
(588,78,o),
(588,196,cs),
(588,277,o),
(533,344,o),
(427,401,c),
(493,436,o),
(541,490,o),
(541,554,cs),
(541,627,o),
(483,711,o),
(319,711,cs),
(155,711,o),
(67,626,o),
(67,522,cs),
(67,447,o),
(118,394,o),
(181,350,c),
(100,317,o),
(41,251,o),
(41,173,cs),
(41,79,o),
(122,-14,o),
(301,-14,cs)
);
},
{
closed = 1;
nodes = (
(226,60,o),
(179,118,o),
(179,188,cs),
(179,238,o),
(208,282,o),
(256,307,c),
(382,261,o),
(416,215,o),
(416,161,cs),
(416,104,o),
(376,60,o),
(305,60,cs)
);
},
{
closed = 1;
nodes = (
(252,481,o),
(232,520,o),
(232,560,cs),
(232,607,o),
(268,641,o),
(328,641,cs),
(394,641,o),
(424,598,o),
(424,549,cs),
(424,505,o),
(396,467,o),
(350,436,c)
);
}
);
width = 630;
}
);
userData = {
KernOnSpecialSpacing = {
L = NoKerning;
R = NoKerning;
};
};
},
{
glyphname = zero.tf.zero;
lastChange = "2022-05-19 01:21:39 +0000";
layers = (
{
layerId = "184835E3-72D9-430C-A639-2454AC4A0BE8";
shapes = (
{
closed = 1;
nodes = (
(446,649,l),
(396,681,l),
(199,34,l),
(250,12,l)
);
},
{
ref = zero.tf;
}
);
width = 630;
}
);
metricLeft = zero.tf;
metricWidth = zero.tf;
},
{
glyphname = zero.tosf;
lastChange = "2022-05-19 01:21:39 +0000";
layers = (
{
layerId = "184835E3-72D9-430C-A639-2454AC4A0BE8";
shapes = (
{
closed = 1;
nodes = (
(486,-11,o),
(601,70,o),
(601,298,cs),
(601,523,o),
(490,617,o),
(315,617,cs),
(143,617,o),
(29,525,o),
(29,298,cs),
(29,72,o),
(140,-11,o),
(314,-11,cs)
);
},
{
closed = 1;
nodes = (
(256,51,o),
(207,87,o),
(207,296,cs),
(207,515,o),
(258,556,o),
(315,556,cs),
(373,556,o),
(423,515,o),
(423,299,cs),
(423,87,o),
(373,51,o),
(315,51,cs,{
name = hr00;
})
);
}
);
width = 630;
}
);
metricWidth = zero.tf;
userData = {
KernOnSpecialSpacing = {
L = NoKerning;
R = NoKerning;
};
};
},
{
glyphname = one.tosf;
lastChange = "2022-05-19 01:21:39 +0000";
layers = (
{
background = {
shapes = (
{
closed = 1;
nodes = (
(418,594,o),
(397,622,o),
(354,622,c),
(50,496,l),
(77,416,l),
(94,424,o),
(163,446,o),
(210,446,cs),
(247,446,o),
(260,434,o),
(260,414,cs),
(260,151,ls),
(260,80,o),
(177,67,o),
(59,67,c),
(59,47,o),
(67,14,o),
(82,0,c),
(572,0,l),
(588,14,o),
(596,47,o),
(596,67,c),
(466,67,o),
(418,79,o),
(418,150,cs),
(418,571,ls,{
name = hr00;
})
);
}
);
};
layerId = "184835E3-72D9-430C-A639-2454AC4A0BE8";
shapes = (
{
closed = 1;
nodes = (
(572,0,l),
(587,14,o),
(595,47,o),
(595,67,c),
(466,67,o),
(427,79,o),
(427,150,cs),
(427,551,ls,{
name = hr00;
}),
(427,595,o),
(414,618,o),
(371,618,cs),
(360,618,o),
(339,608,o),
(312,593,cs),
(269,569,o),
(162,512,o),
(64,490,c),
(86,411,l),
(132,411,o),
(238,430,o),
(300,456,c),
(269,491,l),
(269,151,ls),
(269,80,o),
(215,67,o),
(77,67,c),
(77,47,o),
(86,14,o),
(101,0,c)
);
}
);
width = 630;
}
);
metricWidth = one.tf;
userData = {
KernOnSpecialSpacing = {
L = NoKerning;
R = NoKerning;
};
};
},
{
glyphname = two.tosf;
lastChange = "2022-05-19 01:21:39 +0000";
layers = (
{
layerId = "184835E3-72D9-430C-A639-2454AC4A0BE8";
shapes = (
{
closed = 1;
nodes = (
(147,35,l),
(178,210,o),
(554,212,o),
(554,429,cs),
(554,546,o),
(444,617,o),
(307,617,cs),
(134,617,o),
(59,533,o),
(59,454,cs),
(59,401,o),
(103,361,o),
(151,361,cs),
(196,361,o),
(240,388,o),
(240,427,cs),
(240,455,o),
(219,493,o),
(186,501,c),
(207,527,o),
(225,557,o),
(276,557,cs),
(331,557,o),
(376,513,o),
(376,444,cs),
(376,271,o),
(104,223,o),
(60,18,c),
(91,-3,l,{
name = hr01;
})
);
},
{
closed = 1;
nodes = (
(128,10,o),
(171,16,o),
(216,16,cs),
(295,16,o),
(338,-2,o),
(407,-2,cs,{
name = hr02;
}),
(541,-2,o),
(580,65,o),
(580,119,cs),
(580,152,o),
(565,184,o),
(545,200,c),
(520,200,l),
(506,153,o),
(451,127,o),
(386,127,cs,{
name = hr03;
}),
(318,127,ls),
(260,127,o),
(210,115,o),
(156,92,c),
(91,-3,l)
);
}
);
width = 630;
}
);
metricWidth = two.tf;
userData = {
KernOnSpecialSpacing = {
L = NoKerning;
R = NoKerning;
};
};
},
{
glyphname = four.tosf;
lastChange = "2022-05-19 01:21:39 +0000";
layers = (
{
layerId = "184835E3-72D9-430C-A639-2454AC4A0BE8";
shapes = (
{
closed = 1;
nodes = (
(552,0,l),
(567,14,o),
(576,39,o),
(576,59,c),
(507,59,o),
(472,72,o),
(472,113,cs),
(472,193,l),
(586,198,o),
(606,229,o),
(606,280,cs),
(606,309,o),
(588,334,o),
(566,341,c),
(543,341,l),
(528,302,o),
(509,281,o),
(472,276,c),
(472,698,l),
(273,698,l),
(5,225,l),
(28,192,l),
(318,192,l),
(318,114,ls),
(318,72,o),
(272,59,o),
(209,59,c),
(209,39,o),
(216,14,o),
(231,0,c)
);
},
{
closed = 1;
nodes = (
(318,609,l),
(318,274,l),
(138,274,l)
);
}
);
width = 630;
}
);
metricLeft = four.tf;
metricWidth = four.tf;
userData = {
KernOnSpecialSpacing = {
L = NoKerning;
R = NoKerning;
};
};
},
{
glyphname = five.tosf;
lastChange = "2022-10-20 09:04:17 +0000";
layers = (
{
background = {
shapes = (
{
closed = 1;
nodes = (
(215,-122,o),
(232,-100,o),
(232,-70,cs),
(232,-27,o),
(198,4,o),
(152,4,cs),
(105,4,o),
(66,-29,o),
(66,-85,cs),
(66,-169,o),
(159,-229,o),
(300,-229,cs),
(488,-229,o),
(589,-122,o),
(589,0,cs),
(589,123,o),
(490,226,o),
(344,226,cs),
(274,226,o),
(225,207,o),
(190,188,c),
(213,153,l),
(244,443,l),
(127,383,l),
(128,382,o),
(130,381,o),
(133,381,cs),
(153,381,o),
(214,408,o),
(226,408,cs),
(309,408,o),
(329,346,o),
(424,346,cs),
(507,346,o),
(556,394,o),
(556,455,cs),
(556,486,o),
(545,513,o),
(527,527,c),
(504,527,l),
(472,506,o),
(424,496,o),
(350,496,cs),
(122,496,l),
(108,160,l),
(147,116,l),
(177,129,o),
(223,137,o),
(260,137,cs),
(343,137,o),
(406,73,o),
(406,-13,cs),
(406,-90,o),
(355,-145,o),
(264,-145,cs),
(224,-145,o),
(190,-135,o),
(180,-125,c),
(168,-143,l,{
name = hr00;
})
);
}
);
};
layerId = "184835E3-72D9-430C-A639-2454AC4A0BE8";
shapes = (
{
alignment = -1;
pos = (-9,-168);
ref = five.tf;
}
);
width = 630;
}
);
metricWidth = five.tf;
userData = {
KernOnSpecialSpacing = {
L = NoKerning;
R = NoKerning;
};
};
},
{
glyphname = seven.tosf;
lastChange = "2022-05-19 01:21:39 +0000";
layers = (
{
background = {
shapes = (
{
closed = 1;
nodes = (
(531,478,o),
(481,468,o),
(436,468,cs),
(348,468,o),
(286,506,o),
(193,506,cs,{
name = hr02;
}),
(85,506,o),
(44,455,o),
(44,389,cs),
(44,338,o),
(69,303,o),
(95,283,c),
(123,283,l),
(148,326,o),
(193,352,o),
(262,352,cs),
(304,352,ls),
(397,352,o),
(466,369,o),
(512,396,c),
(568,505,l,{
name = hr01;
})
);
},
{
closed = 1;
nodes = (
(212,-226,o),
(252,-229,o),
(279,-229,cs),
(382,-229,o),
(386,-185,o),
(389,-151,cs),
(405,26,o),
(402,201,o),
(603,456,c),
(568,506,l),
(540,464,l),
(316,213,o),
(217,12,o),
(189,-211,c)
);
}
);
};
layerId = "184835E3-72D9-430C-A639-2454AC4A0BE8";
shapes = (
{
closed = 1;
nodes = (
(382,-179,o),
(386,-135,o),
(389,-101,cs),
(405,76,o),
(409,242,o),
(611,498,c),
(575,547,l),
(547,506,l),
(323,254,o),
(217,62,o),
(189,-160,c),
(211,-176,o),
(252,-179,o),
(279,-179,cs)
);
},
{
closed = 1;
nodes = (
(100,322,l),
(125,366,o),
(170,392,o),
(250,392,cs),
(291,392,ls),
(405,392,o),
(473,411,o),
(519,437,c),
(575,547,l,{
name = hr01;
}),
(538,520,o),
(489,513,o),
(443,513,cs),
(355,513,o),
(263,545,o),
(170,545,cs,{
name = hr02;
}),
(62,545,o),
(21,495,o),
(21,428,cs),
(21,377,o),
(45,342,o),
(72,322,c)
);
}
);
width = 630;
}
);
metricLeft = seven.tf;
metricWidth = seven.tf;
userData = {
KernOnSpecialSpacing = {
L = NoKerning;
R = NoKerning;
};
};
},
{
glyphname = nine.tosf;
lastChange = "2022-05-19 01:21:39 +0000";
layers = (
{
layerId = "184835E3-72D9-430C-A639-2454AC4A0BE8";
shapes = (
{
closed = 1;
nodes = (
(476,-13,o),
(586,139,o),
(586,358,cs),
(586,569,o),
(515,707,o),
(312,707,cs),
(148,707,o),
(51,598,o),
(51,478,cs),
(51,346,o),
(143,264,o),
(270,264,cs),
(382,264,o),
(467,324,o),
(473,410,c),
(430,427,l),
(430,374,o),
(384,346,o),
(329,346,cs),
(264,346,o),
(213,394,o),
(213,497,cs),
(213,609,o),
(263,637,o),
(311,637,cs),
(359,637,o),
(418,599,o),
(418,421,cs),
(418,396,o),
(417,370,o),
(415,341,c),
(415,300,l),
(415,294,o),
(415,260,o),
(415,256,cs),
(415,166,o),
(385,61,o),
(292,61,cs,{
name = hr00;
}),
(256,61,o),
(220,66,o),
(199,92,c),
(232,104,o),
(244,128,o),
(244,155,cs),
(244,202,o),
(205,225,o),
(164,225,cs),
(111,225,o),
(79,194,o),
(79,139,cs),
(79,45,o),
(170,-13,o),
(303,-13,cs)
);
}
);
width = 630;
}
);
userData = {
KernOnSpecialSpacing = {
L = NoKerning;
R = NoKerning;
};
};
},
{
glyphname = zero.tosf.zero;
lastChange = "2022-05-19 01:21:39 +0000";
layers = (
{
layerId = "184835E3-72D9-430C-A639-2454AC4A0BE8";
shapes = (
{
closed = 1;
nodes = (
(440,530,l),
(390,562,l),
(182,54,l),
(233,32,l)
);
},
{
ref = zero.tosf;
}
);
width = 630;
}
);
metricLeft = zero.tosf;
metricWidth = zero.tosf;
},
{
glyphname = zero.dnom;
lastChange = "2022-05-19 01:21:39 +0000";
layers = (
{
layerId = "184835E3-72D9-430C-A639-2454AC4A0BE8";
shapes = (
{
closed = 1;
nodes = (
(351,-12,o),
(430,59,o),
(430,209,cs),
(430,360,o),
(352,420,o),
(234,420,cs),
(116,420,o),
(35,359,o),
(35,208,cs),
(35,58,o),
(113,-12,o),
(233,-12,cs)
);
},
{
closed = 1;
nodes = (
(194,29,o),
(161,69,o),
(161,208,cs),
(161,355,o),
(194,379,o),
(234,379,cs),
(274,379,o),
(305,352,o),
(305,208,cs),
(305,66,o),
(273,29,o),
(233,29,cs,{
name = hr00;
})
);
}
);
width = 465;
}
);
userData = {
KernOnSpecialSpacing = {
L = NoKerning;
R = NoKerning;
};
com.typemytype.robofont.guides = (
{
angle = 0;
isGlobal = 0;
magnetic = 5;
x = 0;
y = -27;
}
);
};
},
{
glyphname = one.dnom;
lastChange = "2022-05-19 01:21:39 +0000";
layers = (
{
layerId = "184835E3-72D9-430C-A639-2454AC4A0BE8";
shapes = (
{
closed = 1;
nodes = (
(305,0,l),
(315,7,o),
(320,41,o),
(320,51,c),
(274,51,o),
(238,59,o),
(238,101,cs),
(238,387,ls,{
name = hr00;
}),
(238,401,o),
(229,420,o),
(199,420,cs),
(186,420,o),
(119,404,o),
(89,396,cs),
(38,383,l),
(55,333,l),
(68,337,o),
(89,341,o),
(102,341,cs),
(126,341,o),
(136,312,o),
(136,301,cs),
(136,101,ls),
(136,59,o),
(98,51,o),
(46,51,c),
(46,41,o),
(52,7,o),
(63,0,c)
);
}
);
width = 350;
}
);
userData = {
KernOnSpecialSpacing = {
L = NoKerning;
R = NoKerning;
};
};
},
{
glyphname = two.dnom;
lastChange = "2022-05-19 01:21:39 +0000";
layers = (
{
layerId = "184835E3-72D9-430C-A639-2454AC4A0BE8";
shapes = (
{
closed = 1;
nodes = (
(54,-5,l),
(53,-6,l),
(77,2,o),
(106,5,o),
(136,5,cs),
(165,5,o),
(193,3,o),
(213,0,cs),
(233,-3,o),
(252,-5,o),
(275,-5,cs,{
name = hr02;
}),
(365,-5,o),
(387,40,o),
(387,76,cs),
(387,100,o),
(376,122,o),
(361,132,c),
(346,132,l),
(337,101,o),
(298,82,o),
(254,82,cs,{
name = hr03;
}),
(207,82,ls),
(175,82,o),
(144,77,o),
(112,66,c),
(137,95,o),
(179,118,o),
(219,141,cs),
(292,183,o),
(370,216,o),
(370,297,cs),
(370,377,o),
(293,421,o),
(200,421,cs),
(97,421,o),
(32,374,o),
(32,310,cs),
(32,275,o),
(59,254,o),
(94,254,cs),
(124,254,o),
(150,273,o),
(150,300,cs),
(150,319,o),
(138,338,o),
(116,345,c),
(128,367,o),
(152,379,o),
(178,379,cs),
(216,379,o),
(246,351,o),
(246,304,cs),
(246,244,o),
(200,210,o),
(148,168,cs),
(97,127,o),
(45,77,o),
(30,8,c),
(53,-6,l,{
name = hr01;
})
);
}
);
width = 427;
}
);
userData = {
KernOnSpecialSpacing = {
L = NoKerning;
R = NoKerning;
};
};
},
{
glyphname = three.dnom;
lastChange = "2022-05-19 01:21:39 +0000";
layers = (
{
layerId = "184835E3-72D9-430C-A639-2454AC4A0BE8";
shapes = (
{
closed = 1;
nodes = (
(299,-11,o),
(378,40,o),
(378,112,cs),
(378,169,o),
(335,209,o),
(263,220,c),
(321,242,o),
(349,273,o),
(349,323,cs,{
name = hr00;
}),
(349,381,o),
(283,421,o),
(193,421,cs),
(110,421,o),
(42,385,o),
(42,332,cs),
(42,304,o),
(60,284,o),
(93,284,cs),
(125,284,o),
(141,304,o),
(141,321,cs),
(141,336,o),
(129,349,o),
(119,353,c),
(131,368,o),
(151,379,o),
(172,379,cs),
(211,379,o),
(233,351,o),
(233,311,cs),
(233,276,o),
(223,240,o),
(141,219,c),
(154,182,l),
(172,182,ls),
(229,182,o),
(259,149,o),
(259,109,cs),
(259,67,o),
(226,40,o),
(175,40,cs),
(149,40,o),
(123,48,o),
(112,58,c),
(126,67,o),
(129,79,o),
(129,89,cs),
(129,109,o),
(110,126,o),
(81,126,cs),
(52,126,o),
(30,111,o),
(30,77,cs),
(30,22,o),
(96,-11,o),
(187,-11,cs)
);
}
);
width = 418;
}
);
userData = {
KernOnSpecialSpacing = {
L = NoKerning;
R = NoKerning;
};
};
},
{
glyphname = four.dnom;
lastChange = "2022-05-19 01:21:39 +0000";
layers = (
{
layerId = "184835E3-72D9-430C-A639-2454AC4A0BE8";
shapes = (
{
closed = 1;
nodes = (
(376,0,l),
(387,8,o),
(393,24,o),
(393,34,c),
(346,34,o),
(321,43,o),
(321,68,cs),
(321,112,l),
(410,115,o),
(438,138,o),
(438,170,cs),
(438,186,o),
(427,202,o),
(411,206,c),
(395,206,l,{
name = hr00;
}),
(384,177,o),
(358,162,o),
(321,162,c),
(321,413,l),
(199,413,l),
(0,141,l),
(16,112,l),
(209,112,l),
(209,68,ls),
(209,43,o),
(177,34,o),
(135,34,c),
(135,24,o),
(140,8,o),
(149,0,c)
);
},
{
closed = 1;
nodes = (
(209,346,l),
(209,162,l),
(85,162,l)
);
}
);
width = 438;
}
);
userData = {
KernOnSpecialSpacing = {
L = NoKerning;
R = NoKerning;
};
};
},
{
glyphname = five.dnom;
lastChange = "2022-05-19 01:21:39 +0000";
layers = (
{
layerId = "184835E3-72D9-430C-A639-2454AC4A0BE8";
shapes = (
{
closed = 1;
nodes = (
(333,-10,o),
(398,61,o),
(398,133,cs),
(398,205,o),
(348,261,o),
(235,261,cs),
(200,261,o),
(167,252,o),
(145,245,c),
(160,359,l),
(209,355,o),
(224,327,o),
(286,327,cs),
(341,327,o),
(375,352,o),
(375,388,cs),
(375,406,o),
(368,424,o),
(355,430,c),
(339,430,l),
(318,420,o),
(286,413,o),
(235,413,cs),
(79,413,l),
(69,222,l),
(95,195,l),
(116,203,o),
(147,207,o),
(173,207,cs),
(229,207,o),
(272,170,o),
(272,120,cs),
(272,74,o),
(238,40,o),
(175,40,cs),
(153,40,o),
(136,44,o),
(125,50,c),
(146,61,o),
(153,70,o),
(153,86,cs),
(153,110,o),
(129,129,o),
(99,129,cs),
(67,129,o),
(40,108,o),
(40,76,cs),
(40,26,o),
(108,-10,o),
(203,-10,cs)
);
}
);
width = 430;
}
);
userData = {
KernOnSpecialSpacing = {
L = NoKerning;
R = NoKerning;
};
};
},
{
glyphname = six.dnom;
lastChange = "2022-05-19 01:21:39 +0000";
layers = (
{
layerId = "184835E3-72D9-430C-A639-2454AC4A0BE8";
shapes = (
{
closed = 1;
nodes = (
(336,-11,o),
(407,53,o),
(407,131,cs),
(407,205,o),
(343,252,o),
(258,252,cs),
(216,252,o),
(181,242,o),
(155,223,c),
(155,224,o),
(155,226,o),
(155,228,cs),
(155,341,o),
(199,379,o),
(250,379,cs,{
name = hr00;
}),
(271,379,o),
(291,372,o),
(301,360,c),
(287,353,o),
(277,338,o),
(277,324,cs),
(277,299,o),
(300,279,o),
(333,279,cs),
(370,279,o),
(391,304,o),
(391,333,cs),
(391,386,o),
(326,421,o),
(247,421,cs),
(129,421,o),
(35,349,o),
(35,195,cs),
(35,57,o),
(114,-11,o),
(227,-11,cs)
);
},
{
closed = 1;
nodes = (
(191,34,o),
(155,63,o),
(155,148,cs),
(155,157,o),
(155,165,o),
(155,174,c),
(170,195,o),
(193,203,o),
(223,203,cs),
(263,203,o),
(293,183,o),
(293,122,cs),
(293,61,o),
(264,34,o),
(229,34,cs)
);
}
);
width = 437;
}
);
userData = {
KernOnSpecialSpacing = {
L = NoKerning;
R = NoKerning;
};
};
},
{
glyphname = seven.dnom;
lastChange = "2022-05-19 01:21:39 +0000";
layers = (
{
layerId = "184835E3-72D9-430C-A639-2454AC4A0BE8";
shapes = (
{
closed = 1;
nodes = (
(237,-14,o),
(240,13,o),
(242,32,cs),
(251,136,o),
(242,236,o),
(367,386,c),
(344,416,l,{
name = hr01;
}),
(344,414,l),
(321,401,o),
(291,394,o),
(263,394,cs),
(208,394,o),
(170,415,o),
(113,415,cs,{
name = hr02;
}),
(46,415,o),
(20,386,o),
(20,347,cs),
(20,317,o),
(32,297,o),
(48,283,c),
(74,283,l),
(89,310,o),
(106,326,o),
(149,326,cs),
(174,326,ls),
(216,326,o),
(243,333,o),
(269,341,c),
(165,217,o),
(122,113,o),
(108,-4,c),
(121,-13,o),
(157,-14,o),
(173,-14,cs)
);
}
);
width = 377;
}
);
userData = {
KernOnSpecialSpacing = {
L = NoKerning;
R = NoKerning;
};
com.typemytype.robofont.guides = (
{
angle = 0;
isGlobal = 0;
magnetic = 5;
x = 0;
y = -32;
}
);
};
},
{
glyphname = eight.dnom;
lastChange = "2022-05-19 01:21:39 +0000";
layers = (
{
layerId = "184835E3-72D9-430C-A639-2454AC4A0BE8";
shapes = (
{
closed = 1;
nodes = (
(341,-9,o),
(413,40,o),
(413,111,cs),
(413,159,o),
(385,195,o),
(312,229,c),
(358,249,o),
(388,280,o),
(388,319,cs),
(388,363,o),
(346,421,o),
(233,421,cs),
(120,421,o),
(60,362,o),
(60,300,cs),
(60,254,o),
(93,225,o),
(132,198,c),
(77,178,o),
(40,142,o),
(40,98,cs),
(40,42,o),
(94,-9,o),
(219,-9,cs)
);
},
{
closed = 1;
nodes = (
(167,35,o),
(130,65,o),
(130,105,cs),
(130,136,o),
(151,159,o),
(183,173,c),
(270,145,o),
(301,122,o),
(301,90,cs),
(301,57,o),
(269,35,o),
(221,35,cs)
);
},
{
closed = 1;
nodes = (
(187,275,o),
(167,298,o),
(167,322,cs),
(167,350,o),
(195,379,o),
(235,379,cs),
(282,379,o),
(307,345,o),
(307,316,cs),
(307,290,o),
(289,268,o),
(257,249,c)
);
}
);
width = 456;
}
);
userData = {
KernOnSpecialSpacing = {
L = NoKerning;
R = NoKerning;
};
};
},
{
glyphname = nine.dnom;
lastChange = "2022-05-19 01:21:39 +0000";
layers = (
{
layerId = "184835E3-72D9-430C-A639-2454AC4A0BE8";
shapes = (
{
closed = 1;
nodes = (
(309,-9,o),
(400,59,o),
(400,205,cs),
(400,216,ls),
(400,354,o),
(323,421,o),
(208,421,cs),
(99,421,o),
(30,357,o),
(30,280,cs),
(30,203,o),
(92,151,o),
(180,151,cs),
(219,151,o),
(253,161,o),
(278,177,c),
(278,163,ls),
(278,66,o),
(241,36,o),
(185,36,cs,{
name = hr00;
}),
(164,36,o),
(146,38,o),
(133,54,c),
(155,60,o),
(164,73,o),
(164,90,cs),
(164,117,o),
(138,131,o),
(109,131,cs),
(74,131,o),
(50,109,o),
(50,77,cs),
(50,23,o),
(117,-9,o),
(198,-9,cs)
);
},
{
closed = 1;
nodes = (
(175,200,o),
(142,230,o),
(142,291,cs),
(142,357,o),
(182,377,o),
(212,377,cs),
(245,377,o),
(279,354,o),
(279,243,cs),
(279,237,o),
(279,230,o),
(279,222,c),
(266,206,o),
(245,200,o),
(220,200,cs)
);
}
);
width = 435;
}
);
userData = {
KernOnSpecialSpacing = {
L = NoKerning;
R = NoKerning;
};
};
},
{
glyphname = fraction;
lastChange = "2022-05-19 01:21:39 +0000";
layers = (
{
layerId = "184835E3-72D9-430C-A639-2454AC4A0BE8";
shapes = (
{
closed = 1;
nodes = (
(-135,-10,l),
(299,731,l),
(233,731,l),
(-200,-11,l)
);
}
);
width = 99;
}
);
unicode = 8260;
userData = {
KernOnSpecialSpacing = {
L = fraction;
R = NoKerning;
};
};
},
{
glyphname = period;
kernLeft = KO_period;
kernRight = KO_period;
lastChange = "2022-05-19 01:21:39 +0000";
layers = (
{
layerId = "184835E3-72D9-430C-A639-2454AC4A0BE8";
shapes = (
{
closed = 1;
nodes = (
(190,-13,o),
(231,27,o),
(231,86,cs,{
name = hr00;
}),
(231,146,o),
(190,185,o),
(130,185,cs),
(69,185,o),
(28,146,o),
(28,86,cs),
(28,27,o),
(69,-13,o),
(130,-13,cs)
);
}
);
width = 259;
}
);
unicode = 46;
userData = {
KernOnName = period;
KernOnSpecialSpacing = {
L = period;
R = period;
};
};
},
{
glyphname = comma;
kernLeft = KO_comma;
kernRight = KO_comma;
lastChange = "2022-05-19 01:21:39 +0000";
layers = (
{
layerId = "184835E3-72D9-430C-A639-2454AC4A0BE8";
shapes = (
{
closed = 1;
nodes = (
(156,-194,o),
(244,-98,o),
(244,32,cs),
(244,130,o),
(193,179,o),
(127,179,cs),
(69,179,o),
(28,140,o),
(28,80,cs),
(28,32,o),
(60,-13,o),
(121,-13,cs),
(126,-13,o),
(131,-12,o),
(136,-11,c),
(137,-16,o),
(138,-20,o),
(138,-24,cs),
(138,-79,o),
(97,-137,o),
(36,-171,c),
(36,-192,o),
(52,-213,o),
(68,-218,c,{
name = hr00;
})
);
}
);
width = 259;
}
);
metricLeft = period;
metricWidth = period;
unicode = 44;
userData = {
KernOnSpecialSpacing = {
L = period;
R = period;
};
};
},
{
glyphname = exclam;
kernLeft = KO_exclam;
kernRight = KO_exclam;
lastChange = "2022-05-19 01:21:39 +0000";
layers = (
{
layerId = "184835E3-72D9-430C-A639-2454AC4A0BE8";
shapes = (
{
closed = 1;
nodes = (
(176,308,l),
(226,699,ls),
(227,707,o),
(228,714,o),
(228,720,cs),
(228,768,o),
(202,788,o),
(157,788,cs),
(114,788,ls),
(69,788,o),
(44,768,o),
(44,720,cs),
(44,714,o),
(44,707,o),
(45,699,cs),
(94,308,l)
);
},
{
closed = 1;
nodes = (
(197,-13,o),
(237,27,o),
(237,86,cs,{
name = hr00;
}),
(237,146,o),
(197,185,o),
(135,185,cs),
(75,185,o),
(35,146,o),
(35,86,cs),
(35,27,o),
(75,-13,o),
(135,-13,cs)
);
}
);
width = 272;
}
);
unicode = 33;
userData = {
KernOnSpecialSpacing = {
L = "spaced-off";
};
com.typemytype.robofont.guides = (
{
angle = 90;
isGlobal = 0;
magnetic = 5;
x = 429;
y = 0;
}
);
};
},
{
glyphname = exclamdown;
kernLeft = KO_four;
kernRight = KO_exclamdown;
lastChange = "2022-05-19 01:21:39 +0000";
layers = (
{
layerId = "184835E3-72D9-430C-A639-2454AC4A0BE8";
shapes = (
{
closed = 1;
nodes = (
(158,-272,ls),
(202,-272,o),
(228,-252,o),
(228,-204,cs),
(228,-198,o),
(227,-191,o),
(226,-183,cs),
(177,208,l),
(95,208,l),
(45,-183,ls),
(44,-191,o),
(44,-198,o),
(44,-204,cs),
(44,-252,o),
(69,-272,o),
(115,-272,cs)
);
},
{
closed = 1;
nodes = (
(197,331,o),
(237,370,o),
(237,429,cs),
(237,489,o),
(197,529,o),
(136,529,cs),
(75,529,o),
(35,489,o),
(35,429,cs,{
name = hr00;
}),
(35,370,o),
(75,331,o),
(136,331,cs)
);
}
);
width = 272;
}
);
metricLeft = exclam;
metricRight = exclam;
unicode = 161;
userData = {
KernOnSpecialSpacing = {
R = "spaced-off";
};
};
},
{
glyphname = question;
kernLeft = KO_question;
lastChange = "2022-05-19 01:21:39 +0000";
layers = (
{
layerId = "184835E3-72D9-430C-A639-2454AC4A0BE8";
shapes = (
{
closed = 1;
nodes = (
(310,267,l),
(291,371,l),
(414,416,o),
(512,493,o),
(512,603,cs),
(512,709,o),
(418,784,o),
(274,784,cs),
(117,784,o),
(20,696,o),
(20,599,cs),
(20,527,o),
(75,489,o),
(123,489,cs),
(169,489,o),
(212,524,o),
(212,573,cs),
(212,616,o),
(178,644,o),
(145,655,c),
(165,688,o),
(202,707,o),
(243,707,cs),
(294,707,o),
(334,677,o),
(334,604,cs),
(334,512,o),
(270,445,o),
(187,394,c),
(214,267,l)
);
},
{
closed = 1;
nodes = (
(329,-13,o),
(368,27,o),
(368,86,cs,{
name = hr00;
}),
(368,146,o),
(329,185,o),
(267,185,cs),
(206,185,o),
(167,146,o),
(167,86,cs),
(167,27,o),
(206,-13,o),
(267,-13,cs)
);
}
);
width = 532;
}
);
unicode = 63;
userData = {
KernOnSpecialSpacing = {
L = "spaced-off";
R = NoKerning;
};
};
},
{
glyphname = questiondown;
kernLeft = KO_asterisk;
kernRight = KO_questiondown;
lastChange = "2022-05-19 01:21:39 +0000";
layers = (
{
layerId = "184835E3-72D9-430C-A639-2454AC4A0BE8";
shapes = (
{
closed = 1;
nodes = (
(415,-272,o),
(512,-184,o),
(512,-87,cs),
(512,-15,o),
(457,22,o),
(409,22,cs),
(364,22,o),
(320,-12,o),
(320,-61,cs),
(320,-104,o),
(355,-132,o),
(388,-143,c),
(368,-176,o),
(330,-195,o),
(290,-195,cs),
(238,-195,o),
(199,-165,o),
(199,-92,cs),
(199,0,o),
(262,67,o),
(345,118,c),
(318,245,l),
(223,245,l),
(241,141,l),
(119,96,o),
(20,19,o),
(20,-91,cs),
(20,-197,o),
(114,-272,o),
(258,-272,cs)
);
},
{
closed = 1;
nodes = (
(308,331,o),
(349,370,o),
(349,430,cs),
(349,490,o),
(308,529,o),
(248,529,cs),
(187,529,o),
(147,490,o),
(147,430,cs,{
name = hr00;
}),
(147,370,o),
(187,331,o),
(248,331,cs)
);
}
);
width = 532;
}
);
unicode = 191;
userData = {
KernOnSpecialSpacing = {
R = "spaced-off";
};
};
},
{
glyphname = periodcentered;
lastChange = "2022-05-19 01:21:39 +0000";
layers = (
{
layerId = "184835E3-72D9-430C-A639-2454AC4A0BE8";
shapes = (
{
closed = 1;
nodes = (
(188,233,o),
(229,273,o),
(229,332,cs,{
name = hr00;
}),
(229,392,o),
(188,431,o),
(128,431,cs),
(67,431,o),
(26,392,o),
(26,332,cs),
(26,273,o),
(67,233,o),
(128,233,cs)
);
}
);
width = 255;
}
);
unicode = 183;
userData = {
KernOnSpecialSpacing = {
L = NoKerning;
R = NoKerning;
};
};
},
{
glyphname = bullet;
lastChange = "2022-05-19 01:21:39 +0000";
layers = (
{
layerId = "184835E3-72D9-430C-A639-2454AC4A0BE8";
shapes = (
{
closed = 1;
nodes = (
(289,178,o),
(351,240,o),
(351,333,cs,{
name = hr00;
}),
(351,426,o),
(289,487,o),
(194,487,cs),
(98,487,o),
(37,426,o),
(37,333,cs),
(37,240,o),
(98,178,o),
(194,178,cs)
);
}
);
width = 388;
}
);
unicode = 8226;
userData = {
KernOnSpecialSpacing = {
L = NoKerning;
R = NoKerning;
};
};
},
{
glyphname = asterisk;
kernLeft = KO_asterisk;
kernRight = KO_asterisk;
lastChange = "2022-05-19 01:21:39 +0000";
layers = (
{
layerId = "184835E3-72D9-430C-A639-2454AC4A0BE8";
shapes = (
{
closed = 1;
nodes = (
(195,538,o),
(220,564,o),
(228,598,cs),
(256,712,l),
(369,553,l),
(398,573,ls),
(420,588,o),
(429,607,o),
(429,626,cs),
(429,649,o),
(415,673,o),
(390,688,cs),
(291,747,l),
(470,803,l),
(459,837,ls),
(448,871,o),
(426,886,o),
(401,886,cs),
(383,886,o),
(364,879,o),
(347,864,cs),
(271,796,l),
(271,978,l),
(237,978,ls),
(191,978,o),
(169,950,o),
(169,916,cs),
(169,904,o),
(172,892,o),
(177,880,cs),
(218,782,l),
(36,845,l),
(24,810,l),
(21,801,o),
(20,791,o),
(20,784,cs),
(20,743,o),
(54,718,o),
(99,722,cs),
(211,732,l),
(93,576,l),
(122,555,ls),
(138,544,o),
(152,538,o),
(165,538,cs)
);
}
);
width = 490;
}
);
unicode = 42;
userData = {
KernOnSpecialSpacing = {
L = quotes;
R = quotes;
};
};
},
{
glyphname = numbersign;
kernLeft = KO_numbersign;
kernRight = KO_numbersign;
lastChange = "2022-05-19 01:21:39 +0000";
layers = (
{
layerId = "184835E3-72D9-430C-A639-2454AC4A0BE8";
shapes = (
{
closed = 1;
nodes = (
(188,-1,o),
(229,4,o),
(253,14,c),
(362,712,l),
(332,712,o),
(290,707,o),
(268,698,c),
(158,-1,l,{
name = hr00;
})
);
},
{
closed = 1;
nodes = (
(604,205,l),
(617,226,o),
(627,256,o),
(631,285,c),
(89,286,l),
(76,264,o),
(66,234,o),
(62,204,c)
);
},
{
closed = 1;
nodes = (
(390,-1,o),
(431,4,o),
(455,14,c),
(564,712,l),
(535,712,o),
(494,707,o),
(471,698,c),
(361,-1,l)
);
},
{
closed = 1;
nodes = (
(633,423,l),
(646,445,o),
(656,474,o),
(660,503,c),
(118,504,l),
(106,482,o),
(95,451,o),
(91,423,c)
);
}
);
width = 722;
}
);
unicode = 35;
},
{
glyphname = slash;
kernLeft = KO_slash;
lastChange = "2022-05-19 01:21:39 +0000";
layers = (
{
layerId = "184835E3-72D9-430C-A639-2454AC4A0BE8";
shapes = (
{
closed = 1;
nodes = (
(434,716,l),
(414,735,o),
(371,749,o),
(346,750,c),
(46,-175,l,{
name = hr00;
}),
(66,-193,o),
(110,-207,o),
(135,-208,c)
);
}
);
width = 480;
}
);
unicode = 47;
userData = {
KernOnSpecialSpacing = {
L = slash;
R = NoKerning;
};
};
},
{
glyphname = backslash;
kernRight = KO_backslash;
lastChange = "2022-05-19 01:21:39 +0000";
layers = (
{
layerId = "184835E3-72D9-430C-A639-2454AC4A0BE8";
shapes = (
{
closed = 1;
nodes = (
(403,-129,l,{
name = hr00;
}),
(126,724,l),
(45,693,l),
(321,-160,l)
);
}
);
width = 447;
}
);
unicode = 92;
userData = {
KernOnSpecialSpacing = {
L = NoKerning;
R = "spaced-off";
};
};
},
{
glyphname = exclamdown.case;
kernLeft = KO_equal;
kernRight = KO_comma;
lastChange = "2022-05-19 01:21:39 +0000";
layers = (
{
layerId = "184835E3-72D9-430C-A639-2454AC4A0BE8";
shapes = (
{
closed = 1;
nodes = (
(158,-19,ls),
(202,-19,o),
(228,1,o),
(228,49,cs),
(228,55,o),
(227,62,o),
(226,70,cs),
(177,461,l),
(95,461,l),
(45,70,ls),
(44,62,o),
(44,55,o),
(44,49,cs),
(44,1,o),
(69,-19,o),
(115,-19,cs)
);
},
{
closed = 1;
nodes = (
(197,584,o),
(237,623,o),
(237,682,cs),
(237,742,o),
(197,782,o),
(136,782,cs),
(75,782,o),
(35,742,o),
(35,682,cs,{
name = hr00;
}),
(35,623,o),
(75,584,o),
(136,584,cs)
);
}
);
width = 272;
}
);
metricLeft = exclam;
metricRight = exclam;
userData = {
KernOnSpecialSpacing = {
R = "spaced-off";
};
};
},
{
glyphname = questiondown.case;
kernLeft = KO_braceright.case;
lastChange = "2022-05-19 01:21:39 +0000";
layers = (
{
layerId = "184835E3-72D9-430C-A639-2454AC4A0BE8";
shapes = (
{
closed = 1;
nodes = (
(441,-19,o),
(538,69,o),
(538,166,cs),
(538,238,o),
(483,275,o),
(435,275,cs),
(390,275,o),
(346,241,o),
(346,192,cs),
(346,149,o),
(381,121,o),
(414,110,c),
(394,77,o),
(356,58,o),
(316,58,cs),
(264,58,o),
(225,88,o),
(225,161,cs),
(225,253,o),
(288,320,o),
(371,371,c),
(344,498,l),
(249,498,l),
(267,394,l),
(145,349,o),
(46,272,o),
(46,162,cs),
(46,56,o),
(140,-19,o),
(284,-19,cs)
);
},
{
closed = 1;
nodes = (
(334,584,o),
(375,623,o),
(375,683,cs),
(375,743,o),
(334,782,o),
(274,782,cs),
(213,782,o),
(173,743,o),
(173,683,cs,{
name = hr00;
}),
(173,623,o),
(213,584,o),
(274,584,cs)
);
}
);
width = 558;
}
);
userData = {
KernOnSpecialSpacing = {
R = "spaced-off";
};
};
},
{
glyphname = slash.case;
kernLeft = KO_braceright;
lastChange = "2022-05-19 01:21:39 +0000";
layers = (
{
background = {
shapes = (
{
closed = 1;
nodes = (
(66,-193,o),
(110,-207,o),
(135,-208,c),
(434,716,l),
(414,735,o),
(371,749,o),
(346,750,c),
(46,-175,l,{
name = hr00;
})
);
}
);
};
layerId = "184835E3-72D9-430C-A639-2454AC4A0BE8";
shapes = (
{
closed = 1;
nodes = (
(434,716,l),
(414,735,o),
(371,749,o),
(346,750,c),
(46,-175,l,{
name = hr00;
}),
(66,-193,o),
(110,-207,o),
(135,-208,c)
);
}
);
width = 480;
}
);
userData = {
KernOnSpecialSpacing = {
R = NoKerning;
};
};
},
{
glyphname = backslash.case;
kernRight = KO_backslash;
lastChange = "2022-05-19 01:21:39 +0000";
layers = (
{
layerId = "184835E3-72D9-430C-A639-2454AC4A0BE8";
shapes = (
{
closed = 1;
nodes = (
(403,-129,l,{
name = hr00;
}),
(126,724,l),
(45,693,l),
(321,-160,l)
);
}
);
width = 447;
}
);
userData = {
KernOnSpecialSpacing = {
L = NoKerning;
};
};
},
{
glyphname = periodcentered.loclCAT;
lastChange = "2022-05-19 01:21:39 +0000";
layers = (
{
layerId = "184835E3-72D9-430C-A639-2454AC4A0BE8";
shapes = (
{
closed = 1;
nodes = (
(177,301,o),
(218,341,o),
(218,400,cs,{
name = hr00;
}),
(218,460,o),
(177,499,o),
(117,499,cs),
(56,499,o),
(15,460,o),
(15,400,cs),
(15,341,o),
(56,301,o),
(117,301,cs)
);
}
);
width = 233;
}
);
userData = {
KernOnSpecialSpacing = {
L = NoKerning;
R = NoKerning;
};
};
},
{
glyphname = parenleft;
kernRight = KO_parenleft;
lastChange = "2022-05-19 01:21:39 +0000";
layers = (
{
layerId = "184835E3-72D9-430C-A639-2454AC4A0BE8";
shapes = (
{
closed = 1;
nodes = (
(405,-104,l),
(285,-68,o),
(208,144,o),
(208,332,cs,{
name = hr00;
}),
(208,520,o),
(285,732,o),
(405,767,c),
(405,810,l),
(181,801,o),
(42,571,o),
(42,332,cs),
(42,93,o),
(181,-137,o),
(405,-146,c)
);
}
);
width = 442;
}
);
unicode = 40;
userData = {
KernOnName = parenleft;
KernOnSpecialSpacing = {
L = NoKerning;
R = parenthesis;
};
};
},
{
glyphname = parenright;
kernLeft = KO_parenright;
lastChange = "2022-05-19 01:21:39 +0000";
layers = (
{
layerId = "184835E3-72D9-430C-A639-2454AC4A0BE8";
shapes = (
{
closed = 1;
nodes = (
(261,-137,o),
(400,93,o),
(400,332,cs),
(400,571,o),
(261,801,o),
(37,810,c),
(37,767,l),
(157,732,o),
(234,520,o),
(234,332,cs,{
name = hr00;
}),
(234,144,o),
(157,-68,o),
(37,-104,c),
(37,-146,l)
);
}
);
width = 442;
}
);
unicode = 41;
userData = {
KernOnSpecialSpacing = {
L = parenthesis;
R = NoKerning;
};
};
},
{
glyphname = braceleft;
kernRight = KO_braceleft;
lastChange = "2022-05-19 01:21:39 +0000";
layers = (
{
layerId = "184835E3-72D9-430C-A639-2454AC4A0BE8";
shapes = (
{
closed = 1;
nodes = (
(449,-154,l),
(449,-131,o),
(444,-112,o),
(433,-91,c),
(397,-91,ls),
(328,-91,o),
(285,-59,o),
(285,48,cs),
(285,171,ls),
(285,243,o),
(243,292,o),
(161,325,c,{
name = hr00;
}),
(243,357,o),
(285,406,o),
(285,478,cs),
(285,601,ls),
(285,708,o),
(328,741,o),
(397,741,cs),
(433,741,l),
(444,761,o),
(449,780,o),
(449,803,c),
(394,803,ls),
(206,803,o),
(120,703,o),
(120,539,cs),
(120,445,ls),
(120,389,o),
(81,349,o),
(44,349,c),
(44,300,l),
(81,300,o),
(120,260,o),
(120,205,cs),
(120,110,ls),
(120,-54,o),
(206,-154,o),
(394,-154,cs)
);
}
);
width = 490;
}
);
unicode = 123;
userData = {
KernOnSpecialSpacing = {
L = NoKerning;
R = parenthesis;
};
com.typemytype.robofont.guides = (
{
angle = 0;
isGlobal = 0;
magnetic = 5;
x = 0;
y = 934;
}
);
};
},
{
glyphname = braceright;
kernLeft = KO_braceright;
lastChange = "2022-05-19 01:21:39 +0000";
layers = (
{
layerId = "184835E3-72D9-430C-A639-2454AC4A0BE8";
shapes = (
{
closed = 1;
nodes = (
(96,-154,ls),
(284,-154,o),
(370,-54,o),
(370,110,cs),
(370,205,ls),
(370,260,o),
(409,300,o),
(446,300,c),
(446,349,l),
(409,349,o),
(370,389,o),
(370,445,cs),
(370,539,ls),
(370,703,o),
(284,803,o),
(96,803,cs),
(41,803,l),
(41,780,o),
(46,761,o),
(57,741,c),
(93,741,ls),
(162,741,o),
(205,708,o),
(205,601,cs),
(205,478,ls),
(205,406,o),
(247,357,o),
(329,325,c,{
name = hr00;
}),
(247,292,o),
(205,243,o),
(205,171,cs),
(205,48,ls),
(205,-59,o),
(162,-91,o),
(93,-91,cs),
(57,-91,l),
(46,-112,o),
(41,-131,o),
(41,-154,c)
);
}
);
width = 490;
}
);
unicode = 125;
userData = {
KernOnSpecialSpacing = {
L = parenthesis;
R = NoKerning;
};
};
},
{
glyphname = bracketleft;
kernRight = KO_bracketleft;
lastChange = "2022-05-19 01:21:39 +0000";
layers = (
{
layerId = "184835E3-72D9-430C-A639-2454AC4A0BE8";
shapes = (
{
closed = 1;
nodes = (
(336,-154,l),
(336,-127,o),
(331,-108,o),
(320,-85,c),
(221,-85,l),
(221,731,l,{
name = hr00;
}),
(320,731,l),
(331,755,o),
(336,773,o),
(336,800,c),
(70,800,l),
(70,-154,l)
);
}
);
width = 365;
}
);
unicode = 91;
userData = {
KernOnSpecialSpacing = {
L = NoKerning;
R = parenthesis;
};
};
},
{
glyphname = bracketright;
kernLeft = KO_bracketright;
lastChange = "2022-05-19 01:21:39 +0000";
layers = (
{
layerId = "184835E3-72D9-430C-A639-2454AC4A0BE8";
shapes = (
{
closed = 1;
nodes = (
(295,-154,l),
(295,800,l),
(29,800,l),
(29,773,o),
(34,755,o),
(45,731,c),
(144,731,l,{
name = hr00;
}),
(144,-85,l),
(45,-85,l),
(34,-108,o),
(29,-127,o),
(29,-154,c)
);
}
);
width = 365;
}
);
unicode = 93;
userData = {
KernOnSpecialSpacing = {
L = parenthesis;
R = NoKerning;
};
};
},
{
glyphname = parenleft.case;
kernRight = KO_parenleft.case;
lastChange = "2022-05-19 01:21:39 +0000";
layers = (
{
layerId = "184835E3-72D9-430C-A639-2454AC4A0BE8";
shapes = (
{
closed = 1;
nodes = (
(405,-82,l),
(285,-46,o),
(208,166,o),
(208,354,cs,{
name = hr00;
}),
(208,542,o),
(285,754,o),
(405,789,c),
(405,832,l),
(181,823,o),
(42,593,o),
(42,354,cs),
(42,115,o),
(181,-115,o),
(405,-124,c)
);
}
);
width = 442;
}
);
userData = {
KernOnSpecialSpacing = {
L = NoKerning;
R = parenthesis;
};
};
},
{
glyphname = parenright.case;
kernLeft = KO_parenright.case;
lastChange = "2022-05-19 01:21:39 +0000";
layers = (
{
layerId = "184835E3-72D9-430C-A639-2454AC4A0BE8";
shapes = (
{
closed = 1;
nodes = (
(261,-115,o),
(400,115,o),
(400,354,cs),
(400,593,o),
(261,823,o),
(37,832,c),
(37,789,l),
(157,754,o),
(234,542,o),
(234,354,cs,{
name = hr00;
}),
(234,166,o),
(157,-46,o),
(37,-82,c),
(37,-124,l)
);
}
);
width = 442;
}
);
userData = {
KernOnSpecialSpacing = {
R = NoKerning;
};
};
},
{
glyphname = braceleft.case;
kernRight = KO_braceleft.case;
lastChange = "2022-05-19 01:21:39 +0000";
layers = (
{
layerId = "184835E3-72D9-430C-A639-2454AC4A0BE8";
shapes = (
{
closed = 1;
nodes = (
(449,-132,l),
(449,-109,o),
(444,-90,o),
(433,-69,c),
(397,-69,ls),
(328,-69,o),
(285,-37,o),
(285,70,cs),
(285,193,ls),
(285,265,o),
(243,314,o),
(161,347,c,{
name = hr00;
}),
(243,379,o),
(285,428,o),
(285,500,cs),
(285,623,ls),
(285,730,o),
(328,763,o),
(397,763,cs),
(433,763,l),
(444,783,o),
(449,802,o),
(449,825,c),
(394,825,ls),
(206,825,o),
(120,725,o),
(120,561,cs),
(120,467,ls),
(120,411,o),
(81,371,o),
(44,371,c),
(44,322,l),
(81,322,o),
(120,282,o),
(120,227,cs),
(120,132,ls),
(120,-32,o),
(206,-132,o),
(394,-132,cs)
);
}
);
width = 490;
}
);
userData = {
KernOnSpecialSpacing = {
L = NoKerning;
R = parenthesis;
};
com.typemytype.robofont.guides = (
{
angle = 0;
isGlobal = 0;
magnetic = 5;
x = 0;
y = 934;
}
);
};
},
{
glyphname = braceright.case;
kernLeft = KO_braceright.case;
lastChange = "2022-05-19 01:21:39 +0000";
layers = (
{
layerId = "184835E3-72D9-430C-A639-2454AC4A0BE8";
shapes = (
{
closed = 1;
nodes = (
(96,-132,ls),
(284,-132,o),
(370,-32,o),
(370,132,cs),
(370,227,ls),
(370,282,o),
(409,322,o),
(446,322,c),
(446,371,l),
(409,371,o),
(370,411,o),
(370,467,cs),
(370,561,ls),
(370,725,o),
(284,825,o),
(96,825,cs),
(41,825,l),
(41,802,o),
(46,783,o),
(57,763,c),
(93,763,ls),
(162,763,o),
(205,730,o),
(205,623,cs),
(205,500,ls),
(205,428,o),
(247,379,o),
(329,347,c,{
name = hr00;
}),
(247,314,o),
(205,265,o),
(205,193,cs),
(205,70,ls),
(205,-37,o),
(162,-69,o),
(93,-69,cs),
(57,-69,l),
(46,-90,o),
(41,-109,o),
(41,-132,c)
);
}
);
width = 490;
}
);
userData = {
KernOnSpecialSpacing = {
R = NoKerning;
};
};
},
{
glyphname = bracketleft.case;
kernRight = KO_bracketleft.case;
lastChange = "2022-05-19 01:21:39 +0000";
layers = (
{
layerId = "184835E3-72D9-430C-A639-2454AC4A0BE8";
shapes = (
{
closed = 1;
nodes = (
(336,-132,l),
(336,-105,o),
(331,-86,o),
(320,-63,c),
(221,-63,l),
(221,753,l,{
name = hr00;
}),
(320,753,l),
(331,777,o),
(336,795,o),
(336,822,c),
(70,822,l),
(70,-132,l)
);
}
);
width = 365;
}
);
userData = {
KernOnSpecialSpacing = {
L = NoKerning;
R = parenthesis;
};
};
},
{
glyphname = bracketright.case;
kernLeft = KO_bracketright.case;
lastChange = "2022-05-19 01:21:39 +0000";
layers = (
{
layerId = "184835E3-72D9-430C-A639-2454AC4A0BE8";
shapes = (
{
closed = 1;
nodes = (
(295,-132,l),
(295,822,l),
(29,822,l),
(29,795,o),
(34,777,o),
(45,753,c),
(144,753,l,{
name = hr00;
}),
(144,-63,l),
(45,-63,l),
(34,-86,o),
(29,-105,o),
(29,-132,c)
);
}
);
width = 365;
}
);
metricLeft = bracketright;
metricWidth = bracketright;
userData = {
KernOnSpecialSpacing = {
R = NoKerning;
};
};
},
{
glyphname = hyphen;
kernLeft = KO_hyphen;
kernRight = KO_hyphen;
lastChange = "2022-05-19 01:21:39 +0000";
layers = (
{
layerId = "184835E3-72D9-430C-A639-2454AC4A0BE8";
shapes = (
{
closed = 1;
nodes = (
(421,214,l),
(425,223,o),
(427,241,o),
(427,258,cs),
(427,275,o),
(425,303,o),
(420,314,c),
(67,314,l,{
name = hr00;
}),
(62,305,o),
(60,277,o),
(60,258,cs),
(60,242,o),
(62,225,o),
(67,214,c)
);
}
);
width = 487;
}
);
unicode = 45;
userData = {
KernOnName = hyphen;
KernOnSpecialSpacing = {
L = hyphen;
R = hyphen;
};
};
},
{
glyphname = endash;
kernLeft = KO_endash;
kernRight = KO_endash;
lastChange = "2022-05-19 01:21:39 +0000";
layers = (
{
layerId = "184835E3-72D9-430C-A639-2454AC4A0BE8";
shapes = (
{
closed = 1;
nodes = (
(646,214,l),
(650,223,o),
(652,241,o),
(652,258,cs),
(652,275,o),
(650,303,o),
(646,314,c),
(49,314,l,{
name = hr00;
}),
(45,305,o),
(43,277,o),
(43,258,cs),
(43,242,o),
(45,225,o),
(49,214,c)
);
}
);
width = 727;
}
);
unicode = 8211;
userData = {
KernOnSpecialSpacing = {
L = dashes;
R = dashes;
};
};
},
{
glyphname = emdash;
kernLeft = KO_emdash;
kernRight = KO_emdash;
lastChange = "2022-05-19 01:21:39 +0000";
layers = (
{
layerId = "184835E3-72D9-430C-A639-2454AC4A0BE8";
shapes = (
{
closed = 1;
nodes = (
(935,214,l),
(940,223,o),
(942,241,o),
(942,258,cs),
(942,275,o),
(940,303,o),
(935,314,c),
(85,314,l,{
name = hr00;
}),
(80,305,o),
(78,277,o),
(78,258,cs),
(78,242,o),
(79,225,o),
(85,214,c)
);
}
);
width = 1020;
}
);
unicode = 8212;
userData = {
KernOnSpecialSpacing = {
L = dashes;
R = dashes;
};
};
},
{
glyphname = figuredash;
lastChange = "2022-05-19 01:21:39 +0000";
layers = (
{
layerId = "184835E3-72D9-430C-A639-2454AC4A0BE8";
shapes = (
{
closed = 1;
nodes = (
(598,214,l),
(601,223,o),
(603,241,o),
(603,258,cs),
(603,275,o),
(601,303,o),
(598,314,c),
(61,314,l,{
name = hr00;
}),
(57,305,o),
(55,277,o),
(55,258,cs),
(55,242,o),
(56,225,o),
(61,214,c)
);
}
);
width = 659;
}
);
unicode = 8210;
userData = {
KernOnSpecialSpacing = {
L = NoKerning;
R = NoKerning;
};
};
},
{
glyphname = underscore;
kernLeft = KO_underscore;
kernRight = KO_underscore;
lastChange = "2022-05-19 01:21:39 +0000";
layers = (
{
layerId = "184835E3-72D9-430C-A639-2454AC4A0BE8";
shapes = (
{
closed = 1;
nodes = (
(509,-182,l),
(509,-71,l),
(-7,-71,l),
(-7,-182,l,{
name = hr00;
})
);
}
);
width = 500;
}
);
unicode = 95;
userData = {
KernOnSpecialSpacing = {
L = underscore;
R = underscore;
};
};
},
{
glyphname = quoteleft;
kernLeft = KO_quotedblleft;
kernRight = KO_quotedblleft;
lastChange = "2022-05-19 01:21:39 +0000";
layers = (
{
layerId = "184835E3-72D9-430C-A639-2454AC4A0BE8";
shapes = (
{
closed = 1;
nodes = (
(202,430,o),
(238,462,o),
(238,521,cs),
(238,567,o),
(209,610,o),
(156,610,cs),
(152,610,o),
(144,610,o),
(142,609,c),
(142,614,o),
(142,618,o),
(142,622,cs),
(142,674,o),
(176,731,o),
(230,765,c),
(230,785,o),
(217,805,o),
(202,810,c,{
name = hr00;
}),
(127,786,o),
(50,693,o),
(50,569,cs),
(50,473,o),
(94,430,o),
(151,430,cs)
);
}
);
width = 292;
}
);
unicode = 8216;
userData = {
KernOnSpecialSpacing = {
L = quotes;
R = quotes;
};
};
},
{
glyphname = quoteright;
kernLeft = KO_quoteright;
kernRight = KO_quoteright;
lastChange = "2022-05-19 01:21:39 +0000";
layers = (
{
layerId = "184835E3-72D9-430C-A639-2454AC4A0BE8";
shapes = (
{
closed = 1;
nodes = (
(165,449,o),
(242,542,o),
(242,668,cs),
(242,763,o),
(198,805,o),
(140,805,cs),
(90,805,o),
(54,768,o),
(54,714,cs),
(54,668,o),
(82,625,o),
(135,625,cs),
(139,625,o),
(146,625,o),
(149,626,c),
(150,621,o),
(150,617,o),
(150,613,cs),
(150,561,o),
(115,505,o),
(61,471,c),
(61,451,o),
(75,430,o),
(90,425,c,{
name = hr00;
})
);
}
);
width = 292;
}
);
unicode = 8217;
userData = {
KernOnSpecialSpacing = {
L = quotes;
R = quotes;
};
};
},
{
glyphname = quotereversed;
lastChange = "2022-05-19 01:21:39 +0000";
layers = (
{
layerId = "184835E3-72D9-430C-A639-2454AC4A0BE8";
shapes = (
{
closed = 1;
nodes = (
(217,430,o),
(231,451,o),
(231,471,c),
(177,505,o),
(142,561,o),
(142,613,cs),
(142,617,o),
(142,621,o),
(143,626,c),
(145,625,o),
(153,625,o),
(157,625,cs),
(210,625,o),
(238,668,o),
(238,714,cs),
(238,773,o),
(202,805,o),
(152,805,cs),
(94,805,o),
(50,763,o),
(50,668,cs),
(50,542,o),
(127,449,o),
(202,425,c,{
name = hr00;
})
);
}
);
width = 292;
}
);
metricLeft = quoteleft;
metricRight = quoteleft;
unicode = 8219;
userData = {
KernOnSpecialSpacing = {
L = NoKerning;
R = NoKerning;
};
};
},
{
glyphname = guillemetleft;
kernLeft = KO_guillemetleft;
kernRight = KO_guillemetleft;
lastChange = "2022-05-19 01:21:39 +0000";
layers = (
{
layerId = "184835E3-72D9-430C-A639-2454AC4A0BE8";
shapes = (
{
closed = 1;
nodes = (
(232,116,o),
(249,128,o),
(260,150,c),
(154,364,l),
(154,288,l,{
name = hr00;
}),
(260,502,l),
(249,524,o),
(232,536,o),
(212,544,c),
(27,357,l),
(27,296,l),
(212,107,l)
);
},
{
pos = (261,0);
ref = guilsinglleft;
}
);
width = 562;
}
);
metricLeft = guilsinglleft;
metricRight = guilsinglleft;
unicode = 171;
userData = {
KernOnSpecialSpacing = {
L = quotes;
R = quotes;
};
};
},
{
glyphname = guillemetright;
kernLeft = KO_guillemetright;
kernRight = KO_guillemetright;
lastChange = "2022-05-19 01:21:39 +0000";
layers = (
{
layerId = "184835E3-72D9-430C-A639-2454AC4A0BE8";
shapes = (
{
closed = 1;
nodes = (
(537,295,l),
(537,356,l),
(352,543,l),
(332,535,o),
(315,523,o),
(304,501,c),
(410,287,l,{
name = hr00;
}),
(410,363,l),
(304,149,l),
(315,127,o),
(332,115,o),
(352,106,c)
);
},
{
ref = guilsinglright;
}
);
width = 564;
}
);
metricLeft = guilsinglright;
metricRight = guilsinglright;
unicode = 187;
userData = {
KernOnSpecialSpacing = {
L = quotes;
R = quotes;
};
};
},
{
glyphname = guilsinglleft;
kernLeft = KO_guillemetleft;
kernRight = KO_guillemetleft;
lastChange = "2022-05-19 01:21:39 +0000";
layers = (
{
layerId = "184835E3-72D9-430C-A639-2454AC4A0BE8";
shapes = (
{
closed = 1;
nodes = (
(242,116,o),
(259,128,o),
(270,150,c),
(154,364,l),
(154,288,l,{
name = hr00;
}),
(270,502,l),
(259,524,o),
(242,536,o),
(222,544,c),
(27,357,l),
(27,296,l),
(222,107,l)
);
}
);
width = 301;
}
);
unicode = 8249;
userData = {
KernOnSpecialSpacing = {
L = quotes;
R = quotes;
};
};
},
{
glyphname = guilsinglright;
kernLeft = KO_guillemetright;
kernRight = KO_guilsinglright;
lastChange = "2022-05-19 01:21:39 +0000";
layers = (
{
layerId = "184835E3-72D9-430C-A639-2454AC4A0BE8";
shapes = (
{
closed = 1;
nodes = (
(274,295,l),
(274,356,l),
(79,543,l),
(59,535,o),
(42,523,o),
(31,501,c),
(147,287,l,{
name = hr00;
}),
(147,363,l),
(31,149,l),
(42,127,o),
(59,115,o),
(79,106,c)
);
}
);
width = 301;
}
);
unicode = 8250;
userData = {
KernOnSpecialSpacing = {
L = quotes;
R = quotes;
};
};
},
{
glyphname = quotesingle;
kernLeft = KO_quotedbl;
kernRight = KO_quotedbl;
lastChange = "2022-05-19 01:21:39 +0000";
layers = (
{
background = {
shapes = (
{
closed = 1;
nodes = (
(208,820,o),
(181,822,o),
(155,822,cs),
(126,822,o),
(98,819,o),
(86,815,c),
(107,439,l),
(122,433,o),
(145,430,o),
(167,430,cs),
(181,430,o),
(195,431,o),
(205,434,c),
(221,815,l,{
name = hr00;
})
);
}
);
};
layerId = "184835E3-72D9-430C-A639-2454AC4A0BE8";
shapes = (
{
closed = 1;
nodes = (
(118,434,o),
(134,444,o),
(149,458,cs),
(172,481,o),
(237,680,o),
(244,734,cs),
(245,746,o),
(246,757,o),
(246,767,cs),
(246,804,o),
(233,820,o),
(182,820,cs),
(156,820,o),
(123,812,o),
(112,804,c,{
name = hr00;
}),
(104,743,o),
(75,520,o),
(60,450,c),
(73,439,o),
(88,434,o),
(101,434,cs)
);
}
);
width = 301;
}
);
unicode = 39;
userData = {
KernOnSpecialSpacing = {
L = quotes;
R = quotes;
};
};
},
{
glyphname = "leftanglebracket-math";
lastChange = "2022-05-19 01:21:39 +0000";
layers = (
{
layerId = "184835E3-72D9-430C-A639-2454AC4A0BE8";
shapes = (
{
closed = 1;
nodes = (
(368,-159,l),
(135,384,l),
(368,926,l),
(296,957,l),
(50,384,l),
(296,-190,l)
);
}
);
width = 388;
}
);
unicode = 10216;
userData = {
KernOnSpecialSpacing = {
L = NoKerning;
R = NoKerning;
};
};
},
{
glyphname = "rightanglebracket-math";
kernRight = KO_endash;
lastChange = "2022-05-19 01:21:39 +0000";
layers = (
{
layerId = "184835E3-72D9-430C-A639-2454AC4A0BE8";
shapes = (
{
closed = 1;
nodes = (
(338,384,l),
(92,957,l),
(20,926,l),
(253,384,l),
(20,-159,l),
(92,-190,l)
);
}
);
width = 388;
}
);
unicode = 10217;
userData = {
KernOnSpecialSpacing = {
L = NoKerning;
};
};
},
{
glyphname = .notdef;
lastChange = "2022-05-19 01:21:39 +0000";
layers = (
{
layerId = "184835E3-72D9-430C-A639-2454AC4A0BE8";
shapes = (
{
closed = 1;
nodes = (
(1081,25,l),
(1081,1005,l),
(101,1005,l),
(101,25,l)
);
},
{
closed = 1;
nodes = (
(284,293,l),
(521,513,l),
(283,747,l),
(362,827,l),
(592,583,l),
(818,826,l),
(901,746,l),
(660,515,l),
(901,278,l),
(823,199,l),
(590,444,l),
(365,199,l)
);
}
);
width = 1182;
}
);
userData = {
KernOnSpecialSpacing = {
L = NoKerning;
R = NoKerning;
};
};
},
{
glyphname = cedi;
kernLeft = KO_six.osf;
kernRight = KO_cedi;
lastChange = "2022-05-19 01:21:39 +0000";
layers = (
{
layerId = "184835E3-72D9-430C-A639-2454AC4A0BE8";
shapes = (
{
closed = 1;
nodes = (
(391,-91,o),
(401,-90,o),
(408,-87,c,{
name = hr05;
}),
(408,776,l),
(396,782,o),
(379,785,o),
(363,785,cs),
(353,785,o),
(343,784,o),
(335,780,c),
(335,-83,l,{
name = hr04;
}),
(347,-88,o),
(365,-91,o),
(380,-91,cs)
);
},
{
pos = (33,0);
ref = C;
}
);
width = 644;
}
);
unicode = 8373;
userData = {
KernOnSpecialSpacing = {
L = symbols;
R = symbols;
};
};
},
{
glyphname = cent;
kernLeft = KO_seven;
kernRight = KO_cent;
lastChange = "2022-05-19 01:21:39 +0000";
layers = (
{
layerId = "184835E3-72D9-430C-A639-2454AC4A0BE8";
shapes = (
{
closed = 1;
nodes = (
(390,-139,o),
(449,-86,o),
(449,-48,cs),
(449,-34,o),
(442,-11,o),
(431,1,c,{
name = hr01;
}),
(405,-18,o),
(371,-28,o),
(335,-28,cs),
(258,-28,o),
(210,19,o),
(210,171,cs),
(210,307,o),
(257,348,o),
(296,348,cs,{
name = hr02;
}),
(304,348,o),
(312,348,o),
(326,340,c),
(308,328,o),
(293,310,o),
(293,283,cs),
(293,243,o),
(324,211,o),
(369,211,cs),
(419,211,o),
(455,245,o),
(455,307,cs),
(455,374,o),
(404,419,o),
(302,419,cs,{
name = hr03;
}),
(153,419,o),
(41,313,o),
(41,135,cs),
(41,-36,o),
(141,-139,o),
(287,-139,cs)
);
},
{
closed = 1;
nodes = (
(288,-260,o),
(297,-259,o),
(304,-255,c),
(304,-97,l),
(291,-92,o),
(278,-88,o),
(265,-88,cs),
(256,-88,o),
(247,-90,o),
(239,-94,c),
(239,-252,l),
(251,-257,o),
(265,-260,o),
(279,-260,cs)
);
},
{
closed = 1;
nodes = (
(288,382,o),
(297,384,o),
(304,387,c,{
name = hr05;
}),
(304,545,l),
(291,551,o),
(278,554,o),
(265,554,cs),
(256,554,o),
(247,553,o),
(239,549,c),
(239,391,l,{
name = hr04;
}),
(251,385,o),
(265,382,o),
(279,382,cs)
);
}
);
width = 495;
}
);
unicode = 162;
userData = {
KernOnSpecialSpacing = {
L = symbols;
R = symbols;
};
};
},
{
glyphname = colonsign;
kernLeft = KO_five.osf;
kernRight = KO_colonsign;
lastChange = "2022-05-19 01:21:39 +0000";
layers = (
{
anchors = (
{
name = top;
pos = (351,963);
}
);
layerId = "184835E3-72D9-430C-A639-2454AC4A0BE8";
shapes = (
{
closed = 1;
nodes = (
(549,-14,o),
(604,55,o),
(604,102,cs),
(604,121,o),
(593,150,o),
(576,162,c),
(559,136,o),
(494,108,o),
(433,108,cs),
(326,108,o),
(235,180,o),
(235,387,cs),
(235,554,o),
(332,622,o),
(405,622,cs),
(473,622,o),
(521,570,o),
(532,483,c),
(625,483,l,{
name = hr00;
}),
(625,543,o),
(622,645,o),
(596,709,c),
(575,708,o),
(527,696,o),
(507,687,c),
(479,700,o),
(432,709,o),
(403,709,cs),
(218,709,o),
(58,583,o),
(58,348,cs),
(58,102,o),
(203,-14,o),
(374,-14,cs)
);
},
{
closed = 1;
nodes = (
(271,-91,o),
(281,-90,o),
(288,-87,c,{
name = hr05;
}),
(418,776,l),
(406,782,o),
(393,785,o),
(377,785,cs),
(367,785,o),
(357,784,o),
(349,780,c),
(219,-83,l,{
name = hr04;
}),
(231,-88,o),
(245,-91,o),
(260,-91,cs)
);
},
{
closed = 1;
nodes = (
(396,-91,o),
(406,-90,o),
(413,-87,c,{
name = hr05;
}),
(543,776,l),
(531,782,o),
(518,785,o),
(502,785,cs),
(492,785,o),
(482,784,o),
(474,780,c),
(344,-83,l,{
name = hr04;
}),
(356,-88,o),
(370,-91,o),
(385,-91,cs)
);
}
);
width = 681;
}
);
unicode = 8353;
userData = {
KernOnSpecialSpacing = {
L = symbols;
R = symbols;
};
};
},
{
glyphname = currency;
lastChange = "2022-05-19 01:21:39 +0000";
layers = (
{
layerId = "184835E3-72D9-430C-A639-2454AC4A0BE8";
shapes = (
{
closed = 1;
nodes = (
(209,98,l),
(246,71,o),
(291,56,o),
(340,56,cs),
(389,56,o),
(435,72,o),
(472,98,c),
(565,0,l),
(587,14,o),
(611,38,o),
(623,58,c),
(526,152,l),
(552,189,o),
(568,234,o),
(568,283,cs),
(568,332,o),
(552,378,o),
(526,415,c),
(623,508,l),
(609,530,o),
(585,554,o),
(565,566,c),
(471,468,l),
(434,495,o),
(389,510,o),
(340,510,cs),
(291,510,o),
(245,494,o),
(208,468,c),
(114,566,l),
(96,556,o),
(70,530,o),
(58,508,c),
(155,415,l),
(128,378,o),
(112,332,o),
(112,283,cs),
(112,234,o),
(128,188,o),
(155,151,c),
(57,57,l),
(68,39,o),
(94,13,o),
(116,0,c)
);
},
{
closed = 1;
nodes = (
(260,137,o),
(194,203,o),
(194,283,cs),
(194,363,o),
(260,429,o),
(340,429,cs),
(420,429,o),
(486,363,o),
(486,283,cs),
(486,203,o),
(420,137,o),
(340,137,cs)
);
}
);
width = 681;
}
);
unicode = 164;
userData = {
com.typemytype.robofont.guides = (
{
angle = 0;
isGlobal = 0;
magnetic = 5;
x = 0;
y = -38;
}
);
};
},
{
glyphname = dollar;
kernLeft = KO_dollar;
kernRight = KO_dollar;
lastChange = "2022-05-19 01:21:39 +0000";
layers = (
{
layerId = "184835E3-72D9-430C-A639-2454AC4A0BE8";
shapes = (
{
closed = 1;
nodes = (
(315,-117,o),
(325,-116,o),
(333,-112,c),
(333,16,l),
(336,16,ls),
(473,16,o),
(544,93,o),
(544,200,cs),
(544,318,o),
(443,368,o),
(355,409,cs),
(296,436,o),
(221,473,o),
(221,533,cs),
(221,577,o),
(248,604,o),
(310,604,cs,{
name = hr02;
}),
(369,604,o),
(420,562,o),
(448,473,c),
(536,473,l),
(536,489,ls),
(536,548,o),
(535,639,o),
(507,683,c,{
name = hr03;
}),
(402,659,l),
(385,667,o),
(364,673,o),
(342,677,c),
(342,792,l),
(330,798,o),
(313,801,o),
(297,801,cs),
(287,801,o),
(277,800,o),
(269,796,c),
(269,683,l),
(161,680,o),
(80,620,o),
(80,505,cs),
(80,404,o),
(145,355,o),
(257,302,cs),
(325,270,o),
(411,217,o),
(411,157,cs),
(411,127,o),
(395,95,o),
(326,95,cs),
(245,95,o),
(182,154,o),
(153,244,c),
(49,244,l,{
name = hr01;
}),
(49,171,o),
(71,64,o),
(96,16,c),
(172,48,l),
(201,37,o),
(231,29,o),
(259,23,c),
(259,-109,l),
(270,-114,o),
(288,-117,o),
(304,-117,cs)
);
}
);
width = 593;
}
);
unicode = 36;
userData = {
KernOnSpecialSpacing = {
L = symbols;
R = symbols;
};
};
},
{
glyphname = dong;
lastChange = "2022-05-19 01:21:39 +0000";
layers = (
{
anchors = (
{
name = car;
pos = (589,712);
}
);
layerId = "184835E3-72D9-430C-A639-2454AC4A0BE8";
shapes = (
{
closed = 1;
nodes = (
(306,136,o),
(347,146,o),
(375,183,c),
(391,151,o),
(436,136,o),
(473,136,cs),
(513,136,o),
(559,149,o),
(578,174,c),
(577,202,l),
(546,208,o),
(529,228,o),
(529,260,cs),
(529,728,l),
(575,728,l),
(593,746,o),
(594,770,o),
(594,796,c),
(529,796,l),
(529,888,ls),
(529,921,o),
(516,934,o),
(485,934,cs),
(442,934,o),
(350,912,o),
(301,885,c),
(301,844,l),
(355,844,o),
(368,825,o),
(368,796,c),
(271,796,l),
(271,728,l),
(368,728,l),
(368,725,l),
(371,665,l),
(349,667,o),
(327,669,o),
(310,669,cs),
(171,669,o),
(50,590,o),
(50,388,cs),
(50,218,o),
(143,136,o),
(252,136,cs)
);
},
{
closed = 1;
nodes = (
(564,0,l),
(582,18,o),
(583,42,o),
(583,68,c),
(40,68,l),
(40,0,l)
);
},
{
closed = 1;
nodes = (
(261,221,o),
(215,285,o),
(215,423,cs),
(215,549,o),
(258,598,o),
(312,598,cs),
(336,598,o),
(354,588,o),
(368,569,c),
(368,239,l),
(358,228,o),
(342,221,o),
(321,221,cs)
);
}
);
width = 634;
}
);
unicode = 8363;
},
{
glyphname = euro;
kernLeft = KO_euro;
kernRight = KO_euro;
lastChange = "2022-05-19 01:21:39 +0000";
layers = (
{
layerId = "184835E3-72D9-430C-A639-2454AC4A0BE8";
shapes = (
{
closed = 1;
nodes = (
(566,5,o),
(642,74,o),
(642,121,cs),
(642,140,o),
(631,165,o),
(615,176,c),
(599,151,o),
(555,123,o),
(490,123,cs),
(393,123,o),
(302,188,o),
(302,398,cs),
(302,576,o),
(367,657,o),
(458,657,cs,{
name = hr00;
}),
(496,657,o),
(520,643,o),
(544,621,c),
(518,611,o),
(502,589,o),
(502,557,cs),
(502,521,o),
(529,484,o),
(583,484,cs),
(649,484,o),
(664,539,o),
(664,574,cs),
(664,649,o),
(581,728,o),
(440,728,cs),
(271,728,o),
(131,614,o),
(131,369,cs),
(131,135,o),
(260,5,o),
(438,5,cs)
);
},
{
closed = 1;
nodes = (
(443,256,l),
(461,274,o),
(469,298,o),
(469,324,c),
(58,324,l),
(58,256,l)
);
},
{
closed = 1;
nodes = (
(462,402,l),
(480,420,o),
(488,443,o),
(488,470,c),
(66,470,l),
(66,402,l)
);
}
);
width = 723;
}
);
unicode = 8364;
userData = {
KernOnSpecialSpacing = {
L = symbols;
R = symbols;
};
};
},
{
glyphname = florin;
lastChange = "2022-05-19 01:21:39 +0000";
layers = (
{
layerId = "184835E3-72D9-430C-A639-2454AC4A0BE8";
shapes = (
{
closed = 1;
nodes = (
(218,-100,o),
(282,-41,o),
(299,87,cs),
(339,404,l),
(442,404,l),
(460,428,o),
(466,465,o),
(470,494,c),
(364,494,ls),
(330,494,o),
(321,516,o),
(321,551,cs),
(321,563,o),
(322,578,o),
(324,594,cs),
(331,650,o),
(367,686,o),
(393,686,cs),
(403,686,o),
(405,685,o),
(412,679,c),
(393,668,o),
(384,638,o),
(384,620,cs),
(384,584,o),
(412,561,o),
(449,561,cs),
(497,561,o),
(536,602,o),
(544,656,cs),
(544,660,o),
(544,664,o),
(544,669,cs),
(544,717,o),
(508,757,o),
(423,757,cs),
(294,757,o),
(190,656,o),
(190,509,cs),
(190,493,o),
(191,477,o),
(193,461,c),
(208,505,l),
(185,488,o),
(161,476,o),
(122,466,c),
(115,404,l),
(175,404,l),
(135,94,ls,{
name = hr00;
}),
(124,12,o),
(102,-16,o),
(49,-16,c),
(44,-23,o),
(41,-37,o),
(41,-45,cs),
(41,-70,o),
(68,-100,o),
(130,-100,cs)
);
}
);
width = 579;
}
);
unicode = 402;
userData = {
KernOnSpecialSpacing = {
L = NoKerning;
R = NoKerning;
};
};
},
{
glyphname = franc;
lastChange = "2022-05-19 01:21:39 +0000";
layers = (
{
anchors = (
{
name = top;
pos = (311,975);
}
);
layerId = "184835E3-72D9-430C-A639-2454AC4A0BE8";
shapes = (
{
closed = 1;
nodes = (
(397,0,l),
(411,16,o),
(415,44,o),
(415,68,c),
(387,68,o),
(367,68,o),
(355,68,cs),
(299,68,o),
(282,90,o),
(282,127,cs),
(282,356,l),
(247,334,l),
(372,334,ls),
(409,334,o),
(423,318,o),
(423,264,c),
(453,264,o),
(483,272,o),
(504,286,c),
(503,459,l),
(482,473,o),
(452,481,o),
(423,481,c),
(423,427,o),
(409,409,o),
(371,409,cs),
(248,409,l),
(282,379,l),
(282,663,l),
(191,612,l,{
name = hr00;
}),
(377,612,ls),
(444,612,o),
(470,586,o),
(484,542,c),
(510,547,o),
(552,564,o),
(569,580,c),
(569,613,o),
(559,682,o),
(542,714,c),
(517,714,o),
(491,708,o),
(466,697,c),
(84,697,l),
(70,681,o),
(61,658,o),
(61,634,c),
(104,634,o),
(125,621,o),
(125,584,cs),
(125,114,ls),
(125,77,o),
(111,64,o),
(57,64,c),
(57,40,o),
(65,16,o),
(80,0,c)
);
},
{
closed = 1;
nodes = (
(374,159,l),
(392,177,o),
(393,201,o),
(393,227,c),
(40,227,l),
(40,159,l)
);
}
);
width = 604;
}
);
unicode = 8355;
},
{
glyphname = guarani;
kernLeft = KO_six;
kernRight = KO_guarani;
lastChange = "2022-05-19 01:21:39 +0000";
layers = (
{
layerId = "184835E3-72D9-430C-A639-2454AC4A0BE8";
shapes = (
{
closed = 1;
nodes = (
(388,-91,o),
(398,-90,o),
(405,-87,c,{
name = hr05;
}),
(405,776,l),
(393,782,o),
(376,785,o),
(360,785,cs),
(350,785,o),
(340,784,o),
(332,780,c),
(332,-83,l,{
name = hr04;
}),
(344,-88,o),
(362,-91,o),
(377,-91,cs)
);
},
{
pos = (20,0);
ref = G;
}
);
width = 712;
}
);
unicode = 8370;
userData = {
KernOnSpecialSpacing = {
L = symbols;
R = symbols;
};
};
},
{
glyphname = kip;
lastChange = "2022-05-19 01:21:39 +0000";
layers = (
{
anchors = (
{
name = top;
pos = (376,963);
}
);
layerId = "184835E3-72D9-430C-A639-2454AC4A0BE8";
shapes = (
{
closed = 1;
nodes = (
(635,-14,o),
(662,3,o),
(683,31,c),
(683,71,l),
(622,78,o),
(621,145,o),
(556,233,cs),
(537,259,o),
(513,292,o),
(479,319,c),
(643,319,l),
(661,337,o),
(662,361,o),
(662,387,c),
(440,387,l),
(590,587,ls),
(604,606,o),
(633,635,o),
(690,635,c),
(690,657,o),
(681,681,o),
(668,698,c),
(435,698,l),
(421,681,o),
(412,657,o),
(412,635,c),
(438,635,o),
(470,624,o),
(470,607,cs),
(470,596,o),
(465,583,o),
(457,571,cs),
(334,387,l),
(289,387,l),
(289,584,ls),
(289,621,o),
(305,635,o),
(349,635,c),
(349,658,o),
(340,682,o),
(327,698,c),
(82,698,l),
(68,682,o),
(60,658,o),
(60,635,c,{
name = hr03;
}),
(104,635,o),
(120,621,o),
(120,584,cs),
(120,387,l),
(40,387,l),
(40,319,l),
(120,319,l),
(120,114,ls),
(120,77,o),
(104,64,o),
(60,64,c),
(60,40,o),
(68,16,o),
(82,0,c,{
name = hr04;
}),
(327,0,l),
(340,16,o),
(349,40,o),
(349,64,c),
(305,64,o),
(289,77,o),
(289,114,cs),
(289,319,l),
(313,319,l),
(358,273,o),
(403,182,o),
(421,132,cs),
(459,28,o),
(479,-14,o),
(582,-14,cs)
);
}
);
width = 730;
}
);
unicode = 8365;
},
{
glyphname = lira;
kernLeft = KO_endash;
kernRight = KO_lira;
lastChange = "2022-05-19 01:21:39 +0000";
layers = (
{
layerId = "184835E3-72D9-430C-A639-2454AC4A0BE8";
shapes = (
{
closed = 1;
nodes = (
(126,94,l),
(215,142,o),
(260,236,o),
(260,330,cs),
(260,398,o),
(237,487,o),
(237,548,cs),
(237,624,o),
(275,657,o),
(336,657,cs),
(372,657,o),
(406,646,o),
(425,621,c),
(400,610,o),
(379,585,o),
(379,550,cs),
(379,504,o),
(417,475,o),
(462,475,cs),
(518,475,o),
(553,520,o),
(553,573,cs),
(553,647,o),
(487,728,o),
(317,728,cs),
(142,728,o),
(62,643,o),
(62,532,cs),
(62,435,o),
(122,362,o),
(122,256,cs),
(122,180,o),
(91,109,o),
(31,54,c),
(31,31,o),
(46,20,o),
(60,5,c)
);
},
{
closed = 1;
nodes = (
(97,20,o),
(134,34,o),
(183,34,cs),
(254,34,o),
(316,6,o),
(391,6,cs),
(516,6,o),
(563,82,o),
(563,147,cs),
(563,184,o),
(547,221,o),
(526,240,c),
(498,240,l),
(485,170,o),
(429,155,o),
(363,155,cs),
(317,155,ls),
(263,155,o),
(202,142,o),
(150,115,c),
(97,90,l),
(60,5,l,{
name = hr00;
})
);
},
{
closed = 1;
nodes = (
(373,260,l),
(391,278,o),
(392,301,o),
(392,328,c),
(37,328,l),
(37,260,l)
);
},
{
closed = 1;
nodes = (
(373,387,l),
(391,405,o),
(392,429,o),
(392,455,c),
(37,455,l),
(37,387,l)
);
}
);
width = 587;
}
);
metricLeft = sterling;
metricRight = sterling;
unicode = 8356;
userData = {
KernOnSpecialSpacing = {
L = symbols;
R = symbols;
};
};
},
{
glyphname = liraTurkish;
kernLeft = KO_hyphen;
kernRight = KO_liraTurkish;
lastChange = "2022-05-19 01:21:39 +0000";
layers = (
{
anchors = (
{
name = car;
pos = (428,712);
},
{
name = top;
pos = (186,963);
}
);
background = {
shapes = (
{
closed = 1;
nodes = (
(309,0,ls),
(587,0,o),
(663,71,o),
(679,211,cs),
(685,262,l),
(512,284,l),
(504,190,o),
(467,109,o),
(353,108,c),
(353,310,l),
(492,368,l),
(492,451,l),
(353,393,l),
(353,485,l),
(503,548,l),
(503,636,l),
(353,572,l),
(353,698,l),
(157,698,l),
(157,489,l),
(31,436,l),
(31,349,l),
(157,402,l),
(157,311,l),
(36,261,l),
(36,177,l),
(157,228,l),
(157,0,l)
);
}
);
};
layerId = "184835E3-72D9-430C-A639-2454AC4A0BE8";
shapes = (
{
closed = 1;
nodes = (
(260,0,ls,{
name = hr01;
}),
(458,0,o),
(598,73,o),
(598,186,cs),
(598,226,o),
(596,242,o),
(582,266,c),
(458,302,l),
(458,141,o),
(340,85,o),
(271,85,c),
(271,272,l),
(384,319,l),
(384,402,l),
(271,355,l),
(271,447,l),
(395,499,l),
(395,587,l),
(271,534,l),
(271,584,ls),
(271,621,o),
(293,635,o),
(337,635,c),
(337,658,o),
(330,682,o),
(315,698,c),
(68,698,l),
(53,682,o),
(45,658,o),
(45,635,c),
(90,635,o),
(107,621,o),
(107,584,cs),
(107,468,l),
(31,436,l),
(31,349,l),
(107,381,l),
(107,290,l),
(36,261,l),
(36,177,l),
(107,207,l),
(107,0,l)
);
}
);
width = 638;
}
);
unicode = 8378;
userData = {
KernOnSpecialSpacing = {
L = symbols;
R = symbols;
};
};
},
{
glyphname = manat;
lastChange = "2022-05-19 01:21:39 +0000";
layers = (
{
anchors = (
{
name = bottom;
pos = (388,-436);
}
);
layerId = "184835E3-72D9-430C-A639-2454AC4A0BE8";
shapes = (
{
closed = 1;
nodes = (
(253,0,l),
(253,489,ls),
(253,567,o),
(323,622,o),
(403,622,cs),
(479,622,o),
(542,579,o),
(542,464,cs),
(542,0,l),
(727,0,l),
(741,16,o),
(750,40,o),
(750,63,c),
(705,63,o),
(688,77,o),
(688,114,cs),
(688,423,ls),
(688,604,o),
(569,699,o),
(398,699,cs),
(223,699,o),
(110,606,o),
(110,423,cs),
(110,114,ls,{
name = hr00;
}),
(110,77,o),
(91,63,o),
(40,63,c),
(40,40,o),
(48,16,o),
(62,0,c)
);
},
{
closed = 1;
nodes = (
(426,0,o),
(438,1,o),
(446,5,c),
(446,807,l,{
name = hr00;
}),
(433,812,o),
(414,816,o),
(397,816,cs),
(385,816,o),
(361,814,o),
(353,810,c),
(353,8,l),
(366,3,o),
(397,0,o),
(414,0,cs)
);
}
);
width = 790;
}
);
unicode = 8380;
},
{
glyphname = naira;
kernLeft = KO_braceright.case;
kernRight = KO_naira;
lastChange = "2022-05-19 01:21:39 +0000";
layers = (
{
anchors = (
{
name = top;
pos = (396,963);
}
);
layerId = "184835E3-72D9-430C-A639-2454AC4A0BE8";
shapes = (
{
closed = 1;
nodes = (
(273,-13,l),
(287,4,o),
(296,27,o),
(296,50,c),
(251,50,o),
(233,64,o),
(233,101,cs),
(233,329,l),
(213,557,l,{
name = hr00;
}),
(199,546,l,{
name = hr00;
}),
(519,50,l),
(544,13,o),
(566,-12,o),
(635,-13,c),
(669,-13,l),
(669,584,ls),
(669,621,o),
(688,635,o),
(732,635,c),
(732,658,o),
(723,682,o),
(709,698,c),
(510,698,l),
(495,682,o),
(487,658,o),
(487,635,c),
(532,635,o),
(550,621,o),
(550,584,cs),
(550,397,l),
(570,177,l),
(583,187,l),
(325,613,l),
(291,665,o),
(247,698,o),
(204,698,cs),
(82,698,l),
(68,682,o),
(60,658,o),
(60,635,c),
(105,635,o),
(122,621,o),
(122,584,cs),
(122,101,ls),
(122,64,o),
(105,50,o),
(60,50,c),
(60,27,o),
(68,4,o),
(82,-13,c)
);
},
{
closed = 1;
nodes = (
(726,329,l),
(744,347,o),
(745,371,o),
(745,397,c),
(40,397,l),
(40,329,l)
);
}
);
width = 785;
}
);
unicode = 8358;
userData = {
KernOnSpecialSpacing = {
L = symbols;
R = symbols;
};
};
},
{
glyphname = peseta;
lastChange = "2022-05-19 01:21:39 +0000";
layers = (
{
anchors = (
{
name = top;
pos = (333,963);
}
);
layerId = "184835E3-72D9-430C-A639-2454AC4A0BE8";
shapes = (
{
closed = 1;
nodes = (
(354,0,l),
(368,16,o),
(376,40,o),
(376,64,c),
(287,64,o),
(267,81,o),
(267,159,cs),
(267,207,l),
(309,207,ls),
(510,207,o),
(606,328,o),
(606,459,cs),
(606,605,o),
(532,705,o),
(320,705,cs,{
name = hr00;
}),
(264,705,o),
(193,698,o),
(62,698,c),
(49,681,o),
(40,658,o),
(40,635,c),
(85,635,o),
(103,621,o),
(103,584,cs),
(103,114,ls),
(103,77,o),
(85,64,o),
(40,64,c),
(40,40,o),
(49,16,o),
(63,0,c)
);
},
{
closed = 1;
nodes = (
(284,287,o),
(276,287,o),
(267,289,c),
(267,622,l),
(278,625,o),
(290,626,o),
(304,626,cs),
(403,626,o),
(432,538,o),
(432,462,cs),
(432,394,o),
(417,287,o),
(293,287,cs)
);
},
{
closed = 1;
nodes = (
(647,428,l),
(665,446,o),
(666,470,o),
(666,496,c),
(51,496,l),
(51,428,l)
);
}
);
width = 702;
}
);
unicode = 8359;
},
{
glyphname = peso;
kernLeft = KO_slash;
kernRight = KO_peso;
lastChange = "2022-05-19 01:21:39 +0000";
layers = (
{
layerId = "184835E3-72D9-430C-A639-2454AC4A0BE8";
shapes = (
{
closed = 1;
nodes = (
(354,0,l),
(368,16,o),
(376,40,o),
(376,64,c),
(287,64,o),
(267,81,o),
(267,159,cs),
(267,207,l),
(309,207,ls),
(510,207,o),
(606,328,o),
(606,459,cs),
(606,605,o),
(532,705,o),
(320,705,cs,{
name = hr00;
}),
(264,705,o),
(193,698,o),
(62,698,c),
(49,681,o),
(40,658,o),
(40,635,c),
(85,635,o),
(103,621,o),
(103,584,cs),
(103,114,ls),
(103,77,o),
(85,64,o),
(40,64,c),
(40,40,o),
(49,16,o),
(63,0,c)
);
},
{
closed = 1;
nodes = (
(643,358,l),
(661,376,o),
(662,400,o),
(662,426,c),
(457,426,o),
(252,426,o),
(47,426,c),
(47,358,l)
);
},
{
closed = 1;
nodes = (
(284,287,o),
(276,287,o),
(267,289,c),
(267,622,l),
(278,625,o),
(290,626,o),
(304,626,cs),
(403,626,o),
(432,538,o),
(432,462,cs),
(432,394,o),
(417,287,o),
(293,287,cs)
);
},
{
closed = 1;
nodes = (
(647,484,l),
(665,502,o),
(666,526,o),
(666,552,c),
(461,552,o),
(256,552,o),
(51,552,c),
(51,484,l)
);
}
);
width = 702;
}
);
unicode = 8369;
userData = {
KernOnSpecialSpacing = {
L = symbols;
R = symbols;
};
};
},
{
glyphname = ruble;
kernLeft = KO_emdash;
kernRight = KO_ruble;
lastChange = "2022-05-19 01:21:39 +0000";
layers = (
{
layerId = "184835E3-72D9-430C-A639-2454AC4A0BE8";
shapes = (
{
closed = 1;
nodes = (
(380,0,l),
(394,16,o),
(402,40,o),
(402,64,c),
(313,64,o),
(293,81,o),
(293,159,cs),
(293,287,l),
(335,287,ls),
(536,287,o),
(632,368,o),
(632,499,cs),
(632,645,o),
(558,705,o),
(346,705,cs,{
name = hr00;
}),
(290,705,o),
(219,698,o),
(88,698,c),
(75,681,o),
(66,658,o),
(66,635,c),
(111,635,o),
(129,621,o),
(129,584,cs),
(129,114,ls),
(129,77,o),
(111,64,o),
(66,64,c),
(66,40,o),
(75,16,o),
(89,0,c)
);
},
{
closed = 1;
nodes = (
(443,159,l),
(461,177,o),
(462,201,o),
(462,227,c),
(40,227,l),
(40,159,l)
);
},
{
closed = 1;
nodes = (
(310,367,o),
(302,367,o),
(293,369,c),
(293,622,l),
(304,625,o),
(316,626,o),
(330,626,cs),
(429,626,o),
(458,578,o),
(458,502,cs),
(458,434,o),
(443,367,o),
(319,367,cs)
);
}
);
width = 668;
}
);
unicode = 8381;
userData = {
KernOnSpecialSpacing = {
L = symbols;
R = symbols;
};
};
},
{
glyphname = rupeeIndian;
kernLeft = KO_braceright.case;
kernRight = KO_rupeeIndian;
lastChange = "2022-05-19 01:21:39 +0000";
layers = (
{
anchors = (
{
name = top;
pos = (167,494);
}
);
layerId = "184835E3-72D9-430C-A639-2454AC4A0BE8";
shapes = (
{
closed = 1;
nodes = (
(478,-23,o),
(496,-7,o),
(518,18,c),
(518,56,l),
(446,72,o),
(453,148,o),
(380,223,cs),
(353,251,o),
(331,269,o),
(295,275,c),
(390,299,o),
(441,367,o),
(451,449,c),
(539,449,l),
(557,467,o),
(558,491,o),
(558,517,c),
(451,517,l),
(439,611,o),
(377,701,o),
(192,701,cs),
(138,701,o),
(92,698,o),
(40,698,c),
(40,621,l),
(162,621,ls),
(233,621,o),
(273,578,o),
(286,517,c),
(40,517,l),
(40,449,l),
(290,449,l),
(283,379,o),
(244,325,o),
(157,325,c),
(40,325,l),
(40,254,l),
(151,254,l),
(279,206,o),
(209,-23,o),
(425,-23,cs)
);
}
);
width = 594;
}
);
unicode = 8377;
userData = {
KernOnSpecialSpacing = {
L = symbols;
R = symbols;
};
};
},
{
glyphname = sterling;
kernLeft = KO_three.osf;
kernRight = KO_sterling;
lastChange = "2022-05-19 01:21:39 +0000";
layers = (
{
layerId = "184835E3-72D9-430C-A639-2454AC4A0BE8";
shapes = (
{
closed = 1;
nodes = (
(146,74,l),
(235,122,o),
(280,216,o),
(280,310,cs),
(280,378,o),
(257,487,o),
(257,548,cs),
(257,624,o),
(295,657,o),
(356,657,cs),
(392,657,o),
(426,646,o),
(445,621,c),
(420,610,o),
(399,585,o),
(399,550,cs),
(399,504,o),
(437,475,o),
(482,475,cs),
(538,475,o),
(573,520,o),
(573,573,cs),
(573,647,o),
(507,728,o),
(337,728,cs),
(162,728,o),
(82,643,o),
(82,532,cs),
(82,435,o),
(142,362,o),
(142,256,cs),
(142,180,o),
(116,108,o),
(31,54,c),
(31,31,o),
(46,20,o),
(60,5,c)
);
},
{
closed = 1;
nodes = (
(97,20,o),
(154,34,o),
(203,34,cs),
(274,34,o),
(336,6,o),
(411,6,cs),
(536,6,o),
(608,81,o),
(608,175,cs),
(608,212,o),
(581,261,o),
(546,268,c),
(498,268,l),
(488,212,o),
(482,135,o),
(383,135,cs),
(337,135,ls),
(283,135,o),
(222,122,o),
(170,95,c),
(117,70,l),
(60,5,l,{
name = hr00;
})
);
},
{
closed = 1;
nodes = (
(393,322,l),
(411,340,o),
(412,364,o),
(412,390,c),
(57,390,l),
(57,322,l)
);
}
);
width = 632;
}
);
unicode = 163;
userData = {
KernOnSpecialSpacing = {
L = symbols;
R = symbols;
};
com.typemytype.robofont.guides = (
{
angle = 0;
isGlobal = 0;
magnetic = 5;
x = 0;
y = 1579;
},
{
angle = 90;
isGlobal = 0;
magnetic = 5;
x = 83;
y = 0;
}
);
};
},
{
glyphname = won;
kernLeft = KO_trademark;
kernRight = KO_won;
lastChange = "2022-05-19 01:21:39 +0000";
layers = (
{
layerId = "184835E3-72D9-430C-A639-2454AC4A0BE8";
shapes = (
{
closed = 1;
nodes = (
(1050,389,l),
(1068,407,o),
(1069,431,o),
(1069,457,c),
(56,457,l),
(56,389,l)
);
},
{
pos = (50,0);
ref = W;
}
);
width = 1099;
}
);
unicode = 8361;
userData = {
KernOnSpecialSpacing = {
L = symbols;
R = symbols;
};
};
},
{
glyphname = yen;
kernLeft = KO_sevensuperior;
kernRight = KO_yen;
lastChange = "2022-05-19 01:21:39 +0000";
layers = (
{
layerId = "184835E3-72D9-430C-A639-2454AC4A0BE8";
shapes = (
{
closed = 1;
nodes = (
(551,30,l),
(566,46,o),
(574,70,o),
(574,94,c),
(529,94,o),
(495,107,o),
(495,144,cs),
(495,176,l),
(700,176,l),
(718,195,o),
(727,219,o),
(727,245,c),
(495,245,l),
(495,337,l),
(506,355,l),
(700,355,l),
(718,373,o),
(727,397,o),
(727,424,c),
(545,424,l),
(663,615,l,{
name = hr01;
}),
(675,643,o),
(693,665,o),
(748,665,c),
(748,688,o),
(739,712,o),
(724,728,c),
(516,728,l),
(502,712,o),
(493,688,o),
(493,665,c),
(524,665,o),
(543,646,o),
(543,622,cs),
(543,616,o),
(543,608,o),
(539,601,c),
(443,449,l),
(353,575,ls),
(341,591,o),
(340,608,o),
(340,620,cs),
(340,649,o),
(363,665,o),
(407,665,c),
(407,688,o),
(398,712,o),
(383,728,c),
(83,728,l),
(69,712,o),
(60,688,o),
(60,665,c),
(87,665,o),
(122,641,o),
(138,620,c),
(281,424,l),
(126,424,l),
(126,355,l),
(317,355,l),
(337,325,l),
(337,245,l),
(126,245,l),
(126,176,l),
(337,176,l),
(337,144,ls),
(337,107,o),
(303,94,o),
(259,94,c),
(259,70,o),
(268,46,o),
(282,30,c)
);
}
);
width = 808;
}
);
unicode = 165;
userData = {
KernOnSpecialSpacing = {
L = symbols;
R = symbols;
};
};
},
